<svg width="68" height="89" viewBox="0 0 68 89" fill="none" xmlns="http://www.w3.org/2000/svg">
<g filter="url(#filter0_d_602_2033)">
<mask id="path-1-outside-1_602_2033" maskUnits="userSpaceOnUse" x="4" y="0" width="60" height="81" fill="black">
<rect fill="white" x="4" width="60" height="81"/>
<path fill-rule="evenodd" clip-rule="evenodd" d="M33.3188 4C26.6438 4 21.465 6.17739 18.0124 10.303C15.1353 13.741 13.6392 18.5542 13.6392 24.1695C13.6392 33.9105 18.4728 44.4537 22.5007 51.5589C23.6181 53.5617 24.7355 55.3754 25.7607 56.9476C16.0662 58.1061 8 61.4279 8 66.6859C8 73.3327 20.8896 76.8853 33.6641 76.8853C46.4385 76.8853 59.3281 73.3327 59.3281 66.6859C59.3281 61.3121 50.9028 57.9608 40.9247 56.8742C41.9368 55.319 43.0368 53.5306 44.1368 51.5589C48.1648 44.4537 52.9984 33.9105 52.9984 24.1695C52.9984 18.5542 51.5023 13.8556 48.6252 10.303C45.1726 6.17739 39.9937 4 33.3188 4Z"/>
</mask>
<path fill-rule="evenodd" clip-rule="evenodd" d="M33.3188 4C26.6438 4 21.465 6.17739 18.0124 10.303C15.1353 13.741 13.6392 18.5542 13.6392 24.1695C13.6392 33.9105 18.4728 44.4537 22.5007 51.5589C23.6181 53.5617 24.7355 55.3754 25.7607 56.9476C16.0662 58.1061 8 61.4279 8 66.6859C8 73.3327 20.8896 76.8853 33.6641 76.8853C46.4385 76.8853 59.3281 73.3327 59.3281 66.6859C59.3281 61.3121 50.9028 57.9608 40.9247 56.8742C41.9368 55.319 43.0368 53.5306 44.1368 51.5589C48.1648 44.4537 52.9984 33.9105 52.9984 24.1695C52.9984 18.5542 51.5023 13.8556 48.6252 10.303C45.1726 6.17739 39.9937 4 33.3188 4Z" fill="white"/>
<path d="M18.0124 10.303L21.08 12.8701V12.8701L18.0124 10.303ZM22.5007 51.5589L25.9939 49.61L25.9872 49.5981L25.9805 49.5862L22.5007 51.5589ZM25.7607 56.9476L26.2353 60.9194L32.6277 60.1555L29.1113 54.7628L25.7607 56.9476ZM40.9247 56.8742L37.5721 54.6925L34.0228 60.1463L40.4917 60.8507L40.9247 56.8742ZM44.1368 51.5589L40.6571 49.5862L40.6503 49.5981L40.6437 49.61L44.1368 51.5589ZM48.6252 10.303L51.7336 7.78554L51.7134 7.76053L51.6927 7.73586L48.6252 10.303ZM21.08 12.8701C23.6125 9.8439 27.5537 8 33.3188 8V0C25.7339 0 19.3175 2.51089 14.9449 7.73586L21.08 12.8701ZM17.6392 24.1695C17.6392 19.2283 18.9556 15.4086 21.08 12.8701L14.9449 7.73586C11.315 12.0733 9.63916 17.8801 9.63916 24.1695H17.6392ZM25.9805 49.5862C22.0123 42.5865 17.6392 32.813 17.6392 24.1695H9.63916C9.63916 35.0081 14.9332 46.3208 19.021 53.5316L25.9805 49.5862ZM29.1113 54.7628C28.128 53.2548 27.0596 51.5203 25.9939 49.61L19.0076 53.5077C20.1766 55.603 21.343 57.4959 22.4101 59.1324L29.1113 54.7628ZM12 66.6859C12 66.3993 12.2123 65.284 15.05 63.849C17.7025 62.5077 21.6332 61.4693 26.2353 60.9194L25.2861 52.9759C20.1937 53.5844 15.2441 54.7862 11.4399 56.7099C7.8208 58.54 4 61.7145 4 66.6859H12ZM33.6641 72.8853C27.5777 72.8853 21.6468 72.0307 17.3855 70.5107C15.2432 69.7465 13.7653 68.8992 12.8901 68.1111C12.0643 67.3675 12 66.9055 12 66.6859H4C4 69.7898 5.54692 72.2644 7.53709 74.0563C9.47787 75.8038 12.0208 77.0908 14.6977 78.0457C20.0748 79.9637 26.9759 80.8853 33.6641 80.8853V72.8853ZM55.3281 66.6859C55.3281 66.9055 55.2638 67.3675 54.438 68.1111C53.5628 68.8992 52.085 69.7465 49.9427 70.5107C45.6814 72.0307 39.7504 72.8853 33.6641 72.8853V80.8853C40.3522 80.8853 47.2533 79.9637 52.6304 78.0457C55.3073 77.0908 57.8503 75.8038 59.791 74.0563C61.7812 72.2644 63.3281 69.7898 63.3281 66.6859H55.3281ZM40.4917 60.8507C45.2334 61.3671 49.3276 62.4001 52.1063 63.7634C55.0958 65.2302 55.3281 66.3917 55.3281 66.6859H63.3281C63.3281 61.6063 59.3478 58.4053 55.6301 56.5813C51.7016 54.6538 46.594 53.4679 41.3577 52.8977L40.4917 60.8507ZM40.6437 49.61C39.5945 51.4906 38.5427 53.2009 37.5721 54.6925L44.2773 59.056C45.3308 57.4371 46.4791 55.5705 47.6299 53.5077L40.6437 49.61ZM48.9984 24.1695C48.9984 32.813 44.6253 42.5865 40.6571 49.5862L47.6165 53.5316C51.7044 46.3208 56.9984 35.0081 56.9984 24.1695H48.9984ZM45.5167 12.8204C47.7013 15.5179 48.9984 19.2681 48.9984 24.1695H56.9984C56.9984 17.8402 55.3033 12.1933 51.7336 7.78554L45.5167 12.8204ZM33.3188 8C39.0838 8 43.0251 9.8439 45.5576 12.8701L51.6927 7.73586C47.3201 2.51089 40.9037 0 33.3188 0V8Z" fill="white" mask="url(#path-1-outside-1_602_2033)"/>
</g>
<path d="M33.6636 75.8539C21.8098 75.8539 9.15039 72.6451 9.15039 66.6859C9.15039 60.7268 21.8098 57.6326 33.6636 57.6326C45.5174 57.6326 58.1768 60.8414 58.1768 66.6859C58.1768 72.5305 45.5174 75.8539 33.6636 75.8539Z" fill="white"/>
<path d="M33.6641 58.7786C46.5536 58.7786 57.0264 62.3312 57.0264 66.6859C57.0264 71.0407 46.5536 74.5933 33.6641 74.5933C20.7745 74.5933 10.3017 71.1553 10.3017 66.6859C10.3017 62.3312 20.7745 58.7786 33.6641 58.7786ZM33.6641 56.4866C20.8896 56.4866 8 60.0392 8 66.6859C8 73.3327 20.8896 76.8853 33.6641 76.8853C46.4385 76.8853 59.3281 73.3327 59.3281 66.6859C59.3281 60.0392 46.4385 56.4866 33.6641 56.4866Z" fill="#344049"/>
<path d="M33.319 68.1759C40.5648 68.1759 46.4387 67.2523 46.4387 66.1131C46.4387 64.9738 40.5648 64.0503 33.319 64.0503C26.0731 64.0503 20.1992 64.9738 20.1992 66.1131C20.1992 67.2523 26.0731 68.1759 33.319 68.1759Z" fill="#C01F41"/>
<path d="M33.3178 64.394C31.7066 64.394 25.0317 53.7363 23.5356 50.9859C19.5076 43.9953 14.7891 33.6813 14.7891 24.1695C14.7891 18.898 16.1701 14.314 18.9321 11.1052C22.1545 7.09419 26.9881 5.146 33.3178 5.146C39.6475 5.146 44.4811 7.09419 47.7035 11.1052C50.4656 14.4286 51.8466 18.898 51.8466 24.1695C51.8466 33.6813 47.1281 43.9953 43.1001 50.9859C41.604 53.7363 34.929 64.394 33.3178 64.394Z" fill="white"/>
<path d="M33.3183 6.29199C39.3027 6.29199 43.7911 8.12559 46.8984 11.7928C49.4303 14.887 50.8113 19.1272 50.8113 24.1695C50.8113 42.0471 33.6636 63.248 33.4334 63.248C33.0881 63.248 16.0555 41.9325 16.0555 24.1695C16.0555 19.1272 17.4365 14.887 19.9684 11.7928C22.8455 8.12559 27.3338 6.29199 33.3183 6.29199ZM33.3183 4C26.6433 4 21.4645 6.17739 18.0119 10.303C15.1348 13.741 13.6387 18.5542 13.6387 24.1695C13.6387 33.9105 18.4723 44.4537 22.5003 51.5589C24.802 55.6845 27.1037 59.0079 28.5998 61.0706C31.9373 65.6546 32.2825 65.6546 33.3183 65.6546C34.3541 65.6546 34.6993 65.6546 38.0368 61.0706C39.5329 59.0079 41.8346 55.6845 44.1363 51.5589C48.1643 44.4537 52.9979 33.9105 52.9979 24.1695C52.9979 18.5542 51.5018 13.8556 48.6247 10.303C45.1721 6.17739 39.9933 4 33.3183 4Z" fill="#344049"/>
<path d="M26.9894 20.7315C27.4498 22.9089 29.6364 24.6279 30.6722 24.1695C31.7079 23.7111 32.6286 22.4505 32.5135 19.9293C32.5135 14.6577 25.6084 14.7723 26.9894 20.7315ZM40.3393 21.1899C39.7639 23.2527 37.5773 24.9717 36.5415 24.5133C35.5057 24.0549 34.7001 22.7943 34.8152 20.1585C35.0454 14.8869 41.9505 15.3453 40.3393 21.1899ZM45.288 27.0345C44.2522 28.6389 42.0656 29.4411 41.3751 28.7535C40.6846 28.0659 40.3393 26.8053 41.0298 24.7425C42.526 20.6169 48.0501 22.6797 45.288 27.0345ZM26.6442 37.6922C28.9459 38.7236 30.442 37.2338 33.5493 37.2338C36.5415 37.2338 37.0019 38.8382 39.9941 37.8068C42.1807 37.1192 42.1807 34.7126 41.3751 33.1082C40.7997 31.9622 39.7639 30.9308 38.3829 30.1286C37.6924 29.5556 37.3471 28.6389 36.6566 27.9513C35.1605 26.2323 31.2476 26.1177 29.8666 27.9513C29.2911 28.7535 28.9459 29.6702 27.795 30.2432C24.3425 31.9622 23.5369 36.7754 26.6442 37.6922ZM21.3502 26.4615C22.2709 28.0659 24.4575 28.8681 25.2631 28.2951C26.0687 27.7221 26.414 26.4615 25.7235 24.3987C24.2274 20.1585 18.5882 21.9921 21.3502 26.4615Z" fill="#C01F41"/>
<defs>
<filter id="filter0_d_602_2033" x="0" y="0" width="67.3281" height="88.8853" filterUnits="userSpaceOnUse" color-interpolation-filters="sRGB">
<feFlood flood-opacity="0" result="BackgroundImageFix"/>
<feColorMatrix in="SourceAlpha" type="matrix" values="0 0 0 0 0 0 0 0 0 0 0 0 0 0 0 0 0 0 127 0" result="hardAlpha"/>
<feOffset dy="4"/>
<feGaussianBlur stdDeviation="2"/>
<feComposite in2="hardAlpha" operator="out"/>
<feColorMatrix type="matrix" values="0 0 0 0 0 0 0 0 0 0 0 0 0 0 0 0 0 0 0.25 0"/>
<feBlend mode="normal" in2="BackgroundImageFix" result="effect1_dropShadow_602_2033"/>
<feBlend mode="normal" in="SourceGraphic" in2="effect1_dropShadow_602_2033" result="shape"/>
</filter>
</defs>
</svg>
