<svg xmlns="http://www.w3.org/2000/svg" viewBox="0 0 72 72"><defs><style>.hv-cls-1{fill:none;stroke:#333f48;}.hv-cls-1,.hv-cls-3{stroke-linecap:round;stroke-linejoin:round;stroke-width:2px;}.hv-cls-2,.hv-cls-5{fill:#bf0d3e;}.hv-cls-2,.hv-cls-4{fill-rule:evenodd;}.hv-cls-3{fill:#fff;stroke:#bf0d3e;}.hv-cls-4{fill:#333f48;}</style></defs><g id="Health"><g id="Veterinarian"><path class="hv-cls-1" d="M37.37,12.88A17.39,17.39,0,0,1,41.9,24.71a17.39,17.39,0,0,1-4.53,11.84,14.61,14.61,0,0,1-21.85,0A17.39,17.39,0,0,1,11,24.71a17.39,17.39,0,0,1,4.53-11.83M54.25,50.12C54.25,57.2,48,63,40.29,63h0c-7.68,0-14-6-14-13.14V41.48"/><path class="hv-cls-2" d="M17,8.92a2.16,2.16,0,1,1-2.16,2.16A2.16,2.16,0,0,1,17,8.92Z"/><path class="hv-cls-2" d="M35.94,8.92a2.16,2.16,0,1,1-2.16,2.16,2.16,2.16,0,0,1,2.16-2.16Z"/><path class="hv-cls-3" d="M54.38,35.69a6.64,6.64,0,1,1-6.64,6.64,6.63,6.63,0,0,1,6.64-6.64Z"/><path class="hv-cls-4" d="M54.35,40.3a1.8,1.8,0,1,1-1.8,1.8,1.8,1.8,0,0,1,1.8-1.8Z"/><path id="Paw_Print" data-name="Paw Print" class="hv-cls-5" d="M21.52,21.29c.38,1.45,1.87,2.59,2.59,2.29s1.28-1.2,1.2-3c-.16-3.64-4.87-3.39-3.79.68Zm9.14,0c-.35,1.46-1.81,2.64-2.53,2.36s-1.31-1.17-1.29-2.94c.06-3.64,4.78-3.52,3.82.58Zm3.55,3.89c-.65,1.11-2.15,1.71-2.67,1.29s-.77-1.28-.3-2.72c1-3,4.8-1.68,3,1.43ZM21.65,33c1.59.62,2.58-.42,4.7-.48s2.4,1.06,4.47.24c1.46-.5,1.4-2.2.83-3.27a5.29,5.29,0,0,0-2.09-2A15.77,15.77,0,0,1,28.33,26c-1.08-1.14-3.79-1.11-4.7.15a4.26,4.26,0,0,1-1.38,1.64c-2.3,1.29-2.72,4.62-.6,5.23Zm-3.89-7.62c.7,1.08,2.22,1.62,2.72,1.18s.72-1.32.19-2.73c-1.09-2.93-4.86-1.48-2.91,1.55Z"/></g></g></svg>
