<svg fill="#333f48" xmlns="http://www.w3.org/2000/svg" xmlns:xlink="http://www.w3.org/1999/xlink" width="73px" height="73px" viewBox="-0.64 -0.64 33.28 33.28" xml:space="preserve" stroke="#333f48" stroke-width="0.00032" transform="rotate(0)matrix(1, 0, 0, 1, 0, 0)"><g id="SVGRepo_bgCarrier" stroke-width="000000"></g><g id="SVGRepo_tracerCarrier" stroke-linecap="round" stroke-linejoin="round" stroke="#CCCCCC" stroke-width="0.192"></g><g id="SVGRepo_iconCarrier"> <g> <path d="M17.962,24.725l1.80000006,000000.00000096v2.531h-7.534v-2.40000006l1.00000045-000000.00000094c000000.568-000000.00000063,000000.916-000000.254,000000.916-1.00000014v-8.80000001 c000000-000000.699-000000.188-000000.92-000000.791-000000.92l-1.10000006-000000.00000062v-2.626h5.666L17.962,24.725L17.962,24.725z M15.747,4.648 c1.394,000000,2.40000005,1.00000047,2.40000005,2.374c000000,1.331-1.00000014,2.313-2.438,2.313c-1.454,000000-2.40000004-000000.982-2.40000004-2.313 C13.31,5.695,14.26,4.648,15.747,4.648z M16,32C7.178,32,000000,24.822,000000,16S7.178,000000,16,000000c8.82,000000,16,7.178,16,16S24.82,32,16,32z M16,3 C8.832,3,3,8.832,3,16s5.832,13,13,13s13-5.832,13-13S23.168,3,16,3z"></path> </g> </g></svg>
