<svg xmlns="http://www.w3.org/2000/svg" xmlns:xlink="http://www.w3.org/1999/xlink" viewBox="0 0 72 72"><defs><style>.cls-1{fill:#333f48;}.cls-2{fill:#fff;stroke:#333f48;}.cls-2,.cls-3{stroke-miterlimit:10;stroke-width:2px;}.cls-3{stroke:#bf0d3e;fill:url(#linear-gradient);}</style><linearGradient id="linear-gradient" x1="35.68" y1="55.9" x2="35.68" y2="38.15" gradientUnits="userSpaceOnUse"><stop offset="0.5" stop-color="#bf0d3e"/><stop offset="0.5" stop-color="#fff"/></linearGradient></defs><g id="Peace_of_Mind" data-name="Peace of Mind"><g id="Collar_With_Tag" data-name="Collar With Tag"><path id="Back_Loop" data-name="Back Loop" class="cls-1" d="M35.78,42.72h-.1c-2.48-.24-4.42-4.79-4.42-10.35S33.2,22.24,35.68,22h.19c1.25.12,2.39,1.32,3.22,3.39a19.24,19.24,0,0,1,1.2,7c0,5.56-1.94,10.11-4.42,10.35Zm0-18.7c-.81.31-2.51,3.3-2.51,8.34s1.71,8,2.52,8.34c.8-.3,2.51-3.29,2.51-8.34a17.18,17.18,0,0,0-1.06-6.22C36.63,24.65,36,24.14,35.77,24Z"/><g id="Collar"><path class="cls-2" d="M12.48,22.34c4.31-1.93,13.23-3.26,23.54-3.26s19.22,1.33,23.54,3.26c1.76-.79,2.76-1.68,2.76-2.62,0-3.25-11.78-5.88-26.3-5.88S9.71,16.47,9.71,19.72C9.71,20.66,10.71,21.55,12.48,22.34Z"/><path class="cls-2" d="M36,25.59C21.49,25.59,9.71,23.25,9.71,20v6.6c0,3.24,11.78,5.87,26.31,5.87s26.3-2.63,26.3-5.87V20.07h0C61.45,23.15,50,25.59,36,25.59Z"/></g><path id="Tag" class="cls-3" d="M35.68,38.15A8.88,8.88,0,1,0,44.55,47,8.89,8.89,0,0,0,35.68,38.15Zm0,5.69A2.34,2.34,0,1,1,38,41.51,2.33,2.33,0,0,1,35.68,43.84Z"/><path id="Front_Loop" data-name="Front Loop" class="cls-1" d="M35.67,40.64c-.84-.5-2.41-3.44-2.41-8.28s1.57-7.79,2.41-8.28V22c-2.47.25-4.41,4.79-4.41,10.35s1.94,10.1,4.41,10.35Z"/></g></g></svg>