<svg width="16" height="17" viewBox="0 0 16 17" fill="none" xmlns="http://www.w3.org/2000/svg">
<path d="M14.2858 7.78571C14.2858 11.8167 9.62056 15.4034 8.51752 16.1951C8.36617 16.3038 8.18637 16.3571 8.00007 16.3571C7.81377 16.3571 7.63397 16.3038 7.48262 16.1951C6.37958 15.4034 1.71436 11.8167 1.71436 7.78571C1.71436 4.31421 4.52856 1.5 8.00007 1.5C11.4716 1.5 14.2858 4.31421 14.2858 7.78571Z" stroke="black" stroke-linecap="round" stroke-linejoin="round"/>
<path d="M5.71436 7.21427C5.71436 7.82048 5.95517 8.40186 6.38383 8.83052C6.81248 9.25917 7.39386 9.49999 8.00007 9.49999C8.60628 9.49999 9.18766 9.25917 9.61631 8.83052C10.045 8.40186 10.2858 7.82048 10.2858 7.21427C10.2858 6.60806 10.045 6.02668 9.61631 5.59803C9.18766 5.16937 8.60628 4.92856 8.00007 4.92856C7.39386 4.92856 6.81248 5.16937 6.38383 5.59803C5.95517 6.02668 5.71436 6.60806 5.71436 7.21427Z" stroke="black" stroke-linecap="round" stroke-linejoin="round"/>
</svg>
