<svg version="1.1" id="Layer_1" xmlns="http://www.w3.org/2000/svg" xmlns:xlink="http://www.w3.org/1999/xlink" x="0px" y="0px"
	 width="100%" viewBox="0 0 3336 685" enable-background="new 0 0 3336 685" xml:space="preserve">
<path fill="#FFFFFF" opacity="1.000000" stroke="none" 
	d="
M3337.000000,358.999969 
	C3337.000000,467.989349 3337.000000,576.978699 3337.000000,685.984009 
	C2225.119141,685.984009 1113.238403,685.984009 1.000000,685.984009 
	C1.000000,536.634155 1.000000,387.267975 1.367132,237.605240 
	C2.505772,244.695038 5.554214,250.918808 10.732189,256.300323 
	C20.296350,266.240387 31.476484,273.785370 44.303806,278.624481 
	C58.970592,284.157562 73.635933,289.916626 88.717834,294.065521 
	C104.195953,298.323334 116.774689,305.543427 124.968895,319.677460 
	C137.070969,340.552124 152.158920,358.897919 171.278839,373.795258 
	C179.711380,380.365509 189.207047,384.621155 199.842270,384.881866 
	C220.689590,385.392975 239.924744,367.872772 245.809555,347.808594 
	C249.039627,336.795624 251.209549,325.397217 252.914001,314.031097 
	C254.830444,301.251312 256.380798,288.334198 256.788666,275.435638 
	C257.141235,264.285004 256.048889,253.038391 254.920532,241.902573 
	C253.043167,223.374527 248.541702,205.479065 239.953430,188.810806 
	C231.585602,172.570389 219.040039,160.169571 202.668198,152.518478 
	C185.534485,144.511337 167.328033,140.131836 148.096207,143.007919 
	C136.018555,144.814102 123.734970,145.822891 111.929779,148.747528 
	C89.230980,154.370972 67.124664,161.898392 47.374023,174.958313 
	C39.250847,180.329697 30.758610,185.287216 23.285717,191.463272 
	C12.615613,200.281631 4.230020,211.035767 1.000000,225.000000 
	C1.000000,150.405533 1.000000,75.811073 1.000000,1.000000 
	C64.699234,1.000000 128.398712,1.000000 192.404755,1.360060 
	C191.443253,2.001028 190.110870,2.118268 188.916748,2.587379 
	C170.776443,9.713645 158.998215,23.098629 152.036041,40.893028 
	C148.238968,50.597881 147.444580,60.631451 148.809814,71.158394 
	C150.367386,83.168327 153.854034,94.166367 162.398254,102.734085 
	C178.811157,119.192116 201.290497,121.965988 221.755173,109.003334 
	C248.476425,92.077660 257.758209,67.500549 251.881119,40.692535 
	C249.256119,28.718658 244.026840,17.633490 233.155777,10.896827 
	C226.583405,6.824013 219.083282,4.248340 212.000000,0.999998 
	C1253.545898,1.000000 2295.091797,1.000000 3337.000000,1.000000 
	C3337.000000,114.699142 3337.000000,228.398682 3336.629395,342.399231 
	C3334.485840,329.883453 3328.085938,319.747131 3317.920898,312.033661 
	C3308.445557,304.843567 3297.627197,302.316467 3285.730957,302.890717 
	C3274.272217,303.443848 3264.584229,307.481476 3256.292480,315.213165 
	C3244.308838,326.387207 3239.416260,340.027008 3240.865723,356.427032 
	C3241.846436,367.524689 3245.954590,377.092896 3253.491455,384.770569 
	C3265.081299,396.576721 3279.204346,401.756439 3296.079346,399.101898 
	C3311.937744,396.607330 3323.480713,388.392944 3330.963623,374.511139 
	C3333.576416,369.664520 3335.021484,364.188507 3337.000000,358.999969 
M1251.376099,44.004833 
	C1228.688599,37.032429 1205.345825,35.880814 1181.827393,35.969994 
	C1150.003662,36.090672 1118.176025,35.728230 1086.356079,36.095898 
	C1065.270142,36.339539 1052.194824,49.399555 1052.133545,70.080673 
	C1051.837402,170.384293 1051.963135,270.689301 1052.063232,370.993683 
	C1052.072266,379.947601 1054.498901,388.396332 1060.751221,395.214874 
	C1069.584473,404.847931 1085.881958,408.108246 1098.768188,402.627380 
	C1109.717529,397.970337 1118.130981,385.742706 1118.052246,372.843170 
	C1117.882568,345.018860 1118.000000,317.192810 1118.000000,289.367493 
	C1118.000000,287.619965 1118.000000,285.872406 1118.000000,284.000000 
	C1144.884766,284.000000 1171.039307,284.162933 1197.189941,283.906769 
	C1205.708008,283.823303 1214.338013,283.330353 1222.702759,281.830566 
	C1241.378784,278.481995 1259.459595,273.124634 1276.062378,263.497559 
	C1295.470947,252.243530 1310.959961,237.239212 1321.349854,217.205399 
	C1327.842529,204.686264 1332.343750,191.465485 1332.898560,177.354370 
	C1333.454956,163.202499 1334.186890,148.870743 1332.592407,134.874130 
	C1331.027954,121.141975 1326.251099,107.868401 1318.971313,95.794098 
	C1311.816895,83.928085 1303.198486,73.432266 1292.072144,64.928955 
	C1279.930420,55.649651 1266.310669,49.437012 1251.376099,44.004833 
M734.455566,233.046143 
	C728.449219,240.383850 722.097290,247.469391 716.516602,255.117661 
	C707.879089,266.955170 701.254028,279.490234 703.909485,295.150146 
	C706.527100,310.586792 718.140259,319.812927 732.605103,319.889709 
	C785.261108,320.169098 837.919556,320.000000 890.577087,320.000000 
	C892.330139,320.000000 894.083252,320.000000 896.000000,320.000000 
	C896.000000,339.178009 895.943054,357.663788 896.059143,376.148468 
	C896.077332,379.042358 896.311157,382.172974 897.416260,384.783051 
	C904.265259,400.959930 916.972595,407.402283 932.715881,404.688873 
	C947.624817,402.119232 957.674316,391.894989 957.946411,374.070648 
	C958.198120,357.577362 957.994019,341.077179 958.010498,324.580048 
	C958.011963,323.140381 958.161377,321.700836 958.256714,320.000000 
	C964.051331,320.000000 969.528809,320.128967 974.997559,319.965118 
	C980.912781,319.787872 986.901306,319.838287 992.712097,318.893341 
	C1002.434448,317.312286 1008.832458,311.072021 1011.473816,301.857605 
	C1014.256531,292.150085 1012.434448,282.851379 1005.544922,275.102264 
	C999.907898,268.761871 992.456055,266.160156 984.142334,266.029968 
	C975.537231,265.895203 966.928345,266.000000 958.000000,266.000000 
	C958.000000,263.667847 958.000000,261.866913 958.000000,260.065979 
	C958.000000,193.744141 958.088196,127.421944 957.820618,61.101196 
	C957.800781,56.176437 956.188477,50.693928 953.675598,46.439953 
	C942.076477,26.803698 916.541870,27.564819 901.252380,38.537704 
	C894.932800,43.073135 889.729980,49.289463 884.467224,55.144020 
	C876.243896,64.292168 868.332642,73.724823 860.415527,83.143188 
	C850.622620,94.793144 840.998047,106.584457 831.226746,118.252693 
	C823.646973,127.303886 815.914612,136.227097 808.320557,145.266464 
	C798.317444,157.173309 788.411499,169.161697 778.409241,181.069260 
	C772.393982,188.230362 766.239868,195.274719 760.211121,202.424576 
	C751.767761,212.437988 743.383057,222.500809 734.455566,233.046143 
M582.649536,296.048309 
	C587.477173,292.156250 592.399780,288.375366 597.114014,284.350555 
	C609.350159,273.903870 621.430420,263.274170 633.693115,252.859177 
	C646.949463,241.600296 658.833923,229.061035 669.282837,215.180267 
	C682.264465,197.934998 690.240845,178.418594 691.705017,157.015778 
	C692.709839,142.328110 692.824463,127.485657 689.233276,112.708366 
	C683.523254,89.212326 671.586426,69.931343 652.616272,55.409332 
	C630.562622,38.526855 604.682373,31.800297 577.365295,31.220139 
	C564.288940,30.942421 551.040771,32.207954 538.089478,34.199005 
	C520.871582,36.845970 504.683594,42.788357 489.877502,52.449615 
	C475.889404,61.577133 464.272034,73.175453 453.836121,85.912498 
	C446.448883,94.928612 442.276825,106.085617 445.467896,117.550224 
	C451.661957,139.803818 478.444427,147.049011 494.598694,130.844604 
	C501.500336,123.921585 507.828247,116.407776 514.938354,109.716530 
	C522.788818,102.328484 531.842712,96.618935 542.108459,92.915962 
	C552.842712,89.044029 563.796875,87.900826 575.129028,88.954948 
	C588.964600,90.241928 601.049744,95.577072 610.646484,105.380577 
	C619.395630,114.318306 624.006958,125.740707 624.889404,138.184265 
	C626.073608,154.885437 622.212891,170.428421 612.938416,184.661636 
	C601.842896,201.689362 587.086792,215.273392 572.439453,228.988327 
	C567.041260,234.042938 561.417480,238.864929 555.768677,243.641815 
	C545.893188,251.992950 535.866882,260.165863 526.002502,268.529999 
	C518.234619,275.116516 510.681244,281.956055 502.914948,288.544556 
	C490.548462,299.035645 478.101837,309.432556 465.654449,319.827820 
	C458.247833,326.013336 450.992920,332.410034 443.282288,338.195312 
	C430.678619,347.651917 424.938049,366.394409 430.543365,381.075531 
	C435.927063,395.176178 447.019531,401.764404 461.183167,401.837006 
	C531.012695,402.194946 600.846313,402.228302 670.675476,401.834167 
	C687.467773,401.739380 698.938477,388.073303 697.151672,370.460236 
	C695.648743,355.644958 683.141357,345.970764 668.636963,345.984161 
	C622.304932,346.026886 575.972900,346.000000 529.640869,346.000000 
	C527.912964,346.000000 526.185059,346.000000 523.830017,346.000000 
	C533.046326,338.079071 541.551636,330.707153 550.125671,323.416168 
	C560.737244,314.392578 571.405884,305.436127 582.649536,296.048309 
M1446.819946,402.948853 
	C1448.269287,403.166412 1449.715210,403.410797 1451.168579,403.597168 
	C1460.070923,404.738739 1468.959595,406.617493 1477.882690,406.800262 
	C1487.879517,407.005005 1497.918335,405.798370 1507.920044,404.975708 
	C1522.646729,403.764404 1536.719727,399.673859 1549.543457,392.568237 
	C1559.576782,387.008759 1568.649658,379.730652 1578.240967,373.354401 
	C1587.128296,367.446198 1591.636475,359.771667 1591.207031,348.620819 
	C1590.838257,339.045837 1586.865356,332.105347 1579.027832,327.715179 
	C1570.192139,322.765839 1560.718506,322.031677 1551.758911,327.854340 
	C1547.540894,330.595551 1543.832642,334.108856 1539.709473,337.010864 
	C1527.240112,345.786987 1513.301514,350.273315 1498.171753,352.181885 
	C1481.653198,354.265717 1465.956665,352.435944 1450.898560,345.413971 
	C1432.851807,336.998352 1420.925537,322.767578 1413.446167,304.719177 
	C1410.780762,298.287140 1409.373535,291.333832 1407.209473,284.000000 
	C1410.238159,284.000000 1412.048950,284.000000 1413.859741,284.000000 
	C1469.021240,284.000000 1524.182861,283.978851 1579.344360,284.016876 
	C1591.184082,284.025024 1599.338013,278.079712 1604.906982,268.227051 
	C1608.509399,261.853455 1609.135620,254.892670 1608.068481,247.605286 
	C1606.696411,238.235611 1606.853638,228.529526 1604.533569,219.432083 
	C1597.344482,191.241409 1583.768188,166.777115 1561.208740,147.548126 
	C1539.243896,128.826080 1513.639404,119.764984 1485.401978,118.269737 
	C1473.555054,117.642410 1461.454590,119.343124 1449.637939,121.111366 
	C1424.346191,124.895981 1403.029419,137.293610 1385.070190,154.857727 
	C1376.432861,163.305161 1369.416382,173.648849 1362.790405,183.863251 
	C1349.702393,204.038635 1343.586914,226.792084 1342.246338,250.540924 
	C1341.525757,263.308838 1343.011353,276.245911 1344.079102,289.058472 
	C1345.317261,303.915375 1350.234131,317.862610 1356.712524,331.153687 
	C1365.280640,348.731567 1377.242310,363.686737 1392.491699,376.106628 
	C1408.381104,389.047791 1426.415771,397.359283 1446.819946,402.948853 
M1984.087646,306.695862 
	C1997.689819,267.193359 2011.292114,227.690842 2025.187866,187.336029 
	C2031.686279,205.987900 2037.918091,223.590378 2043.954956,241.259491 
	C2057.380859,280.554962 2070.662842,319.899658 2084.107422,359.188690 
	C2087.795410,369.965424 2091.425049,380.796661 2095.862061,391.272217 
	C2100.011963,401.069458 2108.597412,404.265594 2118.580811,402.874512 
	C2126.726318,401.739532 2132.042969,396.188507 2134.902100,388.761169 
	C2140.457275,374.330475 2145.693115,359.774536 2150.908691,345.215790 
	C2165.127930,305.523376 2179.222900,265.786407 2193.455078,226.098602 
	C2202.906738,199.741776 2212.582031,173.465164 2221.999512,147.096237 
	C2224.838135,139.147629 2222.246338,130.130051 2216.139893,125.712372 
	C2209.263184,120.737228 2198.918945,120.199692 2192.267822,124.200813 
	C2186.322266,127.777641 2184.083252,133.885101 2182.039795,139.839096 
	C2168.242676,180.043625 2154.662354,220.322617 2140.990967,260.570404 
	C2132.714844,284.934753 2124.400146,309.285858 2116.107422,333.644501 
	C2115.326416,335.938416 2114.579834,338.243988 2113.567383,341.298004 
	C2111.873779,336.014801 2110.518311,331.673950 2109.092529,327.356354 
	C2095.763916,286.990845 2082.441650,246.623276 2069.079102,206.269058 
	C2061.449219,183.227020 2053.545898,160.272980 2046.169189,137.150681 
	C2042.756958,126.455589 2036.594482,120.480942 2027.508057,119.942635 
	C2012.620239,119.060631 2006.565796,125.452667 2003.013184,135.791183 
	C1992.217041,167.209152 1981.597046,198.687668 1970.931396,230.150406 
	C1958.461792,266.934479 1946.016602,303.726837 1933.429932,340.902008 
	C1932.856079,339.511688 1932.361206,338.491180 1932.004883,337.424438 
	C1910.014038,271.615662 1888.005493,205.812744 1866.078735,139.982574 
	C1861.724365,126.909538 1854.126709,119.847122 1839.683838,121.929527 
	C1831.740845,123.074799 1824.305664,130.967514 1823.929810,138.963654 
	C1823.664429,144.611755 1825.738647,149.393036 1827.639526,154.533661 
	C1840.058716,188.122040 1852.030762,221.875458 1864.244385,255.540268 
	C1876.292358,288.748352 1888.444702,321.918579 1900.568604,355.098969 
	C1904.366821,365.493591 1907.710449,376.095642 1912.211182,386.179047 
	C1915.843140,394.315918 1922.032349,401.201050 1931.159546,402.798065 
	C1944.744873,405.175171 1953.190430,397.535675 1957.079224,386.062927 
	C1965.965820,359.845795 1975.016235,333.684174 1984.087646,306.695862 
M3211.000000,272.500000 
	C3210.399658,247.527405 3212.936768,222.420593 3207.983887,197.633804 
	C3204.435303,179.874786 3197.431641,163.613647 3185.375977,149.966217 
	C3166.291748,128.361908 3141.253906,119.484001 3113.265625,118.173317 
	C3103.955078,117.737335 3094.494385,118.887894 3085.199951,120.076065 
	C3064.934814,122.666641 3047.468018,131.548294 3032.943604,145.744095 
	C3025.856445,152.670578 3019.756836,160.607574 3013.000000,168.327271 
	C3013.000000,166.658203 3013.000000,164.915817 3013.000000,163.173431 
	C3013.000000,118.849152 3012.589355,74.518951 3013.229248,30.203913 
	C3013.444336,15.299658 2996.562988,3.532388 2981.879150,11.583999 
	C2973.251465,16.314772 2971.033447,24.306948 2971.029297,33.230927 
	C2970.982666,133.876999 2971.000000,234.523117 2971.000000,335.169220 
	C2971.000000,349.166351 2970.686035,363.172821 2971.100342,377.157684 
	C2971.426270,388.162018 2974.751709,396.161011 2986.839355,399.424316 
	C2999.722656,402.902374 3013.366455,393.325470 3013.201172,380.130737 
	C3012.663574,337.146240 3012.960938,294.150757 3013.043945,251.159698 
	C3013.055664,245.060120 3013.772217,238.965286 3013.968506,232.862015 
	C3014.398682,219.495682 3018.333496,207.179779 3024.791992,195.575272 
	C3034.884521,177.440491 3050.225586,165.920120 3069.913330,160.030930 
	C3083.755371,155.890366 3097.972412,155.767105 3112.013184,158.157913 
	C3126.153809,160.565659 3138.937988,166.609131 3148.769775,177.385757 
	C3162.916016,192.892014 3168.604248,212.020889 3168.826172,232.379227 
	C3169.362061,281.530029 3168.993164,330.690582 3169.027588,379.847168 
	C3169.028809,381.624878 3169.250000,383.448975 3169.683594,385.172302 
	C3172.536377,396.515137 3182.356445,401.433594 3193.638184,399.891388 
	C3204.414795,398.418243 3210.994629,390.179291 3210.997314,378.978455 
	C3211.005371,343.818970 3211.000000,308.659485 3211.000000,272.500000 
M2442.456787,147.973633 
	C2439.878906,145.963196 2437.327148,143.918060 2434.718994,141.947952 
	C2415.771973,127.636742 2393.724609,121.591156 2370.660645,120.315987 
	C2354.218994,119.406944 2337.480469,120.286087 2321.124512,122.349503 
	C2302.376953,124.714661 2284.309082,130.467072 2266.961182,138.359406 
	C2259.848877,141.595154 2256.894531,147.141983 2256.155029,153.989395 
	C2255.441162,160.595230 2258.338623,166.162109 2263.983643,169.987686 
	C2270.622803,174.486954 2277.269043,174.446167 2284.668457,171.193207 
	C2302.096924,163.531250 2320.440430,158.416367 2339.402344,157.277847 
	C2352.175537,156.510910 2365.291992,157.175110 2377.921875,159.238632 
	C2401.777344,163.136246 2419.977783,175.568756 2429.315430,198.792282 
	C2434.613037,211.967728 2435.916992,225.724045 2434.698486,239.747864 
	C2434.072754,239.840820 2433.711426,240.005508 2433.422363,239.921555 
	C2413.258789,234.064484 2392.647461,230.371628 2371.744873,229.206177 
	C2358.538574,228.469833 2345.220459,229.543076 2331.960449,230.020752 
	C2316.776855,230.567703 2302.259521,234.379700 2288.281494,240.082794 
	C2273.729492,246.020096 2261.379639,255.038254 2251.717285,267.618347 
	C2243.345215,278.518585 2238.618652,290.683899 2236.845215,304.354614 
	C2235.293945,316.313110 2235.424561,328.129730 2238.434326,339.659790 
	C2243.736084,359.972015 2256.152832,375.675110 2273.619873,386.671722 
	C2299.884766,403.207428 2328.655518,408.343048 2359.424072,403.119141 
	C2386.865967,398.459961 2409.587646,385.699768 2428.210449,365.266052 
	C2429.654053,363.682068 2430.936523,361.951385 2432.485596,360.054443 
	C2433.013428,369.497803 2433.366455,378.243011 2434.024414,386.965271 
	C2434.811523,397.400330 2447.356201,403.502899 2455.960938,401.594910 
	C2467.307373,399.079010 2471.887207,390.483826 2471.924561,380.479950 
	C2472.095947,334.485291 2472.135986,288.488953 2471.908936,242.494781 
	C2471.848877,230.293564 2471.063232,218.061264 2469.924072,205.907562 
	C2467.835205,183.616974 2458.745850,164.429138 2442.456787,147.973633 
M1653.000000,104.499840 
	C1653.000000,111.262985 1653.000000,118.026131 1653.000000,125.000000 
	C1650.053101,125.000000 1647.733521,125.103096 1645.425659,124.983429 
	C1629.238037,124.144073 1619.541138,133.411926 1616.534302,147.041336 
	C1612.987793,163.117188 1624.478394,180.089798 1641.646606,180.002762 
	C1645.394653,179.983765 1649.142822,180.000000 1652.844727,180.000000 
	C1652.927734,181.235046 1652.987305,181.730164 1652.990723,182.225677 
	C1653.329834,232.307053 1653.545776,282.389832 1654.127197,332.468414 
	C1654.215576,340.067108 1655.330322,347.809509 1657.130005,355.203247 
	C1662.341797,376.617737 1675.002319,391.931213 1696.296387,398.877075 
	C1708.896362,402.986969 1721.935547,403.897491 1735.314941,403.247742 
	C1747.153198,402.672852 1758.855225,402.123566 1770.326660,398.998688 
	C1781.874634,395.852905 1790.916870,389.546295 1793.652954,377.396851 
	C1795.845947,367.658875 1792.014038,359.275970 1784.353882,352.934235 
	C1778.677124,348.234436 1772.077515,345.634003 1764.578979,346.196991 
	C1758.712646,346.637421 1752.828125,348.149414 1747.025269,347.832947 
	C1736.585693,347.263672 1727.110352,343.831879 1721.594238,334.005249 
	C1717.475220,326.667145 1717.200562,318.270416 1717.142090,310.245026 
	C1716.837280,268.423676 1717.000000,226.598892 1717.000000,184.775299 
	C1717.000000,183.322144 1717.000000,181.869003 1717.000000,180.000000 
	C1734.391602,180.000000 1751.343384,180.080490 1768.294067,179.977676 
	C1785.719604,179.871979 1797.381470,163.592514 1793.512817,146.121994 
	C1790.420532,132.158096 1778.754028,124.547050 1765.270264,124.901588 
	C1749.331665,125.320671 1733.373779,125.000000 1717.000000,125.000000 
	C1717.000000,108.281204 1717.210815,91.993286 1716.914062,75.714600 
	C1716.757568,67.130096 1712.609741,60.297523 1705.842529,54.946358 
	C1697.265503,48.164097 1687.649902,47.042442 1677.280029,49.005634 
	C1666.633911,51.021122 1654.516113,63.680397 1654.031616,73.741043 
	C1653.554199,83.654228 1653.333374,93.579758 1653.000000,104.499840 
M2742.510986,144.991577 
	C2734.669189,152.494995 2726.523682,159.710037 2719.054932,167.568039 
	C2707.247559,179.990982 2699.702393,195.124969 2694.043457,211.071945 
	C2687.200195,230.357132 2684.327881,250.211319 2685.799561,270.866791 
	C2686.989014,287.562103 2690.345947,303.528503 2697.003418,318.765778 
	C2708.418213,344.891357 2726.011230,365.731964 2750.338867,380.942474 
	C2771.991943,394.480743 2795.722168,400.826263 2820.899658,401.826019 
	C2830.888672,402.222687 2840.986084,400.979279 2850.978760,399.945374 
	C2869.648438,398.013611 2886.959229,391.778107 2902.342529,381.097626 
	C2912.277100,374.200165 2921.453369,366.200897 2930.883545,358.588715 
	C2942.591309,349.137726 2935.817871,329.640320 2922.930664,326.461182 
	C2914.993652,324.503113 2908.768311,327.427094 2902.696045,332.592133 
	C2894.232666,339.790863 2885.725098,347.312408 2876.123779,352.721405 
	C2855.142578,364.541290 2832.341309,367.961090 2808.629395,362.937714 
	C2784.870361,357.904297 2765.373535,346.022766 2750.673096,326.373322 
	C2738.705322,310.376495 2732.186523,292.526703 2729.867432,272.750092 
	C2727.977295,256.633667 2729.218262,240.989258 2733.802002,225.497147 
	C2739.968506,204.656326 2750.860840,187.005325 2768.056152,173.378403 
	C2777.524902,165.874512 2787.851562,160.207047 2799.504395,156.982986 
	C2812.123535,153.491440 2824.815674,152.172470 2837.957520,153.868942 
	C2850.434082,155.479462 2862.587402,158.276199 2873.114014,164.960968 
	C2882.879395,171.162476 2891.279785,179.482468 2900.860107,186.021286 
	C2904.920654,188.792557 2910.523438,190.854355 2915.313721,190.648026 
	C2922.757568,190.327423 2929.578369,187.050400 2932.100830,178.783905 
	C2934.635010,170.480423 2933.255615,162.701965 2926.532715,157.272964 
	C2916.762695,149.383163 2906.726318,141.625580 2895.979492,135.186920 
	C2877.569824,124.157288 2856.954102,119.467522 2835.725342,118.124771 
	C2818.737793,117.050308 2801.935547,118.913589 2785.486572,123.761276 
	C2770.131592,128.286575 2755.990479,135.130722 2742.510986,144.991577 
M2594.523926,121.000000 
	C2591.096680,121.000000 2587.669189,121.000000 2584.162842,121.000000 
	C2584.085693,119.495834 2584.007568,118.679222 2584.007080,117.862587 
	C2584.000000,97.204834 2583.796875,76.544258 2584.083008,55.890480 
	C2584.233643,45.004818 2569.439941,34.101353 2559.458984,36.548855 
	C2547.884033,39.387238 2541.870605,49.559959 2541.954102,59.387230 
	C2542.112305,78.044502 2542.000000,96.704071 2542.000000,115.362686 
	C2542.000000,117.130890 2542.000000,118.899094 2542.000000,121.000000 
	C2535.919189,121.000000 2530.439453,120.800926 2524.982666,121.069008 
	C2521.259277,121.251930 2517.349121,121.491234 2513.907471,122.753883 
	C2506.506348,125.468811 2499.319092,133.544540 2502.010254,145.738327 
	C2503.811523,153.902161 2511.640625,159.980286 2520.813965,159.997437 
	C2527.752197,160.010406 2534.690674,160.000000 2542.000000,160.000000 
	C2542.000000,162.538651 2542.000000,164.504318 2542.000000,166.470001 
	C2542.000000,218.780762 2541.859375,271.092255 2542.134766,323.401581 
	C2542.182129,332.360840 2543.350830,341.443848 2545.141113,350.237640 
	C2549.059814,369.485382 2560.065918,383.788971 2577.428467,393.077332 
	C2589.400879,399.482178 2602.567627,401.068237 2615.786621,401.877594 
	C2622.007568,402.258514 2628.305664,401.260651 2634.573975,401.016266 
	C2645.186768,400.602509 2655.175293,397.871124 2664.604492,393.066284 
	C2671.197021,389.706757 2674.064697,382.143433 2672.553223,376.102234 
	C2669.729736,364.816467 2661.419189,359.381165 2650.019043,362.182251 
	C2639.320801,364.810852 2628.721924,365.959320 2617.842285,364.008453 
	C2610.345215,362.664215 2603.423584,360.239929 2597.522217,355.090118 
	C2587.076904,345.974792 2584.228027,333.682037 2584.143311,320.918823 
	C2583.798828,269.110138 2584.000000,217.297821 2584.000000,165.486847 
	C2584.000000,163.733215 2584.000000,161.979584 2584.000000,160.000000 
	C2586.539795,160.000000 2588.357910,160.000000 2590.176025,160.000000 
	C2612.000000,160.000000 2633.824707,160.120132 2655.647217,159.939926 
	C2664.187988,159.869415 2670.054688,155.505478 2673.217041,147.437271 
	C2675.618652,141.309448 2673.719971,132.767166 2669.331055,127.693611 
	C2664.475342,122.080429 2658.053711,121.162376 2651.493408,121.081116 
	C2632.837646,120.850029 2614.177246,121.000015 2594.523926,121.000000 
M312.012482,184.953888 
	C312.599854,184.662140 313.158081,184.221725 313.778748,184.100128 
	C335.493652,179.845947 351.985382,168.990662 361.103821,147.996033 
	C366.264526,136.113724 367.756012,123.918648 364.828857,111.588165 
	C361.222107,96.395050 352.414368,83.983070 337.754242,78.317673 
	C320.798004,71.764961 303.514465,73.392082 287.254242,82.305092 
	C267.224396,93.284409 250.993729,120.938843 255.943695,145.369446 
	C259.075439,160.826157 267.334137,172.165833 280.957367,180.084198 
	C290.517395,185.640839 300.777496,185.057220 312.012482,184.953888 
M50.006886,44.490788 
	C46.642826,49.798630 42.792233,54.865646 40.020000,60.466427 
	C34.875771,70.859406 34.953262,82.028435 37.050827,93.145248 
	C40.602905,111.970795 56.988689,132.488663 80.990044,131.404831 
	C99.919258,130.550034 112.857079,122.563286 120.662918,106.415733 
	C130.068832,86.958237 128.520554,67.532600 115.384079,50.157440 
	C107.151352,39.268307 96.059586,32.192078 81.598495,31.967794 
	C69.563515,31.781137 59.340054,35.997852 50.006886,44.490788 
M2535.938721,559.030701 
	C2529.719971,558.547546 2523.591553,559.083679 2518.941162,563.645081 
	C2505.022949,577.296875 2491.156738,591.012390 2477.690186,605.104553 
	C2475.422607,607.477661 2473.838379,612.078186 2474.361572,615.249512 
	C2475.937256,624.795166 2478.285889,634.280151 2481.258301,643.490112 
	C2482.220703,646.471985 2485.761230,650.207458 2488.612305,650.687378 
	C2496.193115,651.963440 2504.064697,652.164185 2511.775391,651.811768 
	C2517.820557,651.535583 2520.968750,647.060425 2520.995605,640.831726 
	C2521.017822,635.665649 2520.985596,630.499329 2521.003418,625.333252 
	C2521.027588,618.196594 2525.457031,613.154297 2531.485352,612.956909 
	C2537.191406,612.770203 2543.546143,618.210510 2543.068604,625.433167 
	C2542.717773,630.742798 2542.829102,636.101379 2543.051514,641.424927 
	C2543.245361,646.057861 2544.493896,650.571472 2550.088867,650.974731 
	C2557.959229,651.541992 2565.910889,652.052979 2573.755615,651.520508 
	C2578.947510,651.168152 2582.058350,647.447754 2583.110107,641.851318 
	C2584.571777,634.073364 2586.662598,626.405090 2588.694092,618.745483 
	C2590.376465,612.401489 2588.958252,607.264526 2584.198975,602.611938 
	C2572.044678,590.730286 2560.250000,578.479004 2548.009521,566.688782 
	C2544.828613,563.625122 2540.539307,561.712097 2535.938721,559.030701 
M347.115692,215.047241 
	C338.275513,212.826218 329.417877,212.170929 320.365692,213.951660 
	C310.167969,215.957764 301.037689,220.339584 294.022369,227.740158 
	C284.423004,237.866653 278.624420,249.942734 279.998169,264.503540 
	C281.318542,278.498962 287.790649,289.711334 299.632996,297.003906 
	C312.822845,305.126282 327.413605,305.988037 342.025116,301.390686 
	C358.577393,296.182648 368.495636,283.705475 373.829498,268.049683 
	C379.216278,252.238480 376.987946,237.118210 363.754456,225.482498 
	C359.096436,221.386871 353.199249,218.700577 347.115692,215.047241 
M2694.460693,554.973145 
	C2688.192627,548.335999 2679.656982,547.486023 2671.503174,547.178833 
	C2655.533691,546.577271 2639.524902,546.937378 2623.535156,547.133545 
	C2622.346436,547.148071 2620.289551,548.937561 2620.166748,550.068298 
	C2619.744873,553.946716 2620.004639,557.899353 2620.004639,562.269165 
	C2624.405029,562.269165 2628.140137,562.269165 2631.620117,562.269165 
	C2631.620117,586.454834 2631.620117,610.177551 2631.620117,634.000000 
	C2629.076660,634.000000 2626.893799,634.181702 2624.752686,633.959900 
	C2620.971436,633.568237 2619.666504,635.154358 2619.947754,638.836609 
	C2620.196777,642.096863 2620.000000,645.391113 2620.000000,648.717041 
	C2634.914062,648.717041 2649.306641,648.717041 2663.690918,648.717041 
	C2663.690918,643.698181 2663.690918,638.967712 2663.690918,633.782837 
	C2659.648682,633.782837 2655.911133,633.782837 2652.365723,633.782837 
	C2652.365723,626.585205 2652.365723,619.854126 2652.365723,613.000000 
	C2661.053711,613.000000 2669.403076,613.393372 2677.688477,612.835815 
	C2681.901611,612.552246 2686.416992,611.291016 2690.079102,609.210571 
	C2707.286621,599.434509 2710.079102,568.873108 2694.460693,554.973145 
M2896.316406,547.000000 
	C2884.316650,547.000000 2872.317139,547.000000 2860.317383,547.000000 
	C2846.682129,547.000000 2846.679688,547.000061 2847.073975,560.765869 
	C2847.082275,561.053772 2847.324707,561.335022 2847.670410,562.073730 
	C2851.201416,562.073730 2854.948486,562.073730 2858.705566,562.073730 
	C2858.705566,586.271545 2858.705566,610.005554 2858.705566,634.002319 
	C2855.770264,634.002319 2853.085693,633.729797 2850.500732,634.119324 
	C2849.244141,634.308716 2847.266357,635.651855 2847.177246,636.617065 
	C2846.802979,640.667419 2847.019287,644.772217 2847.019287,648.789551 
	C2861.995117,648.789551 2876.273926,648.789551 2890.760254,648.789551 
	C2890.760254,643.847290 2890.760254,639.116394 2890.760254,633.923584 
	C2886.795166,633.923584 2883.048340,633.923584 2879.300781,633.923584 
	C2879.300781,626.725769 2879.300781,619.993958 2879.300781,613.000000 
	C2887.908447,613.000000 2896.223633,613.199463 2904.525146,612.944397 
	C2912.994141,612.684204 2920.061768,609.065796 2924.911865,602.114136 
	C2930.576904,593.994568 2932.664307,585.042114 2931.183105,574.947571 
	C2930.143066,567.860596 2927.628662,561.901245 2923.082275,556.568298 
	C2916.247803,548.551941 2906.716553,547.916748 2896.316406,547.000000 
M3178.052734,650.555054 
	C3187.035156,651.666931 3195.489014,649.758423 3203.620361,646.053650 
	C3212.725586,641.904907 3212.884277,641.453491 3208.439697,632.931580 
	C3208.363037,632.784546 3208.245605,632.658630 3208.170410,632.510925 
	C3205.312500,626.891663 3204.849121,627.271851 3199.393066,629.856140 
	C3194.243408,632.295349 3188.275879,635.029724 3182.918213,634.589233 
	C3171.511230,633.651428 3164.309082,628.150208 3162.451416,614.777527 
	C3179.259277,614.777527 3196.013916,614.777527 3212.736084,614.777527 
	C3213.784180,605.396423 3212.885254,596.608643 3208.175293,588.818970 
	C3200.557373,576.219849 3188.338379,572.501343 3174.668457,574.210938 
	C3164.707764,575.456543 3155.663574,579.567078 3149.789551,588.668640 
	C3143.453369,598.486572 3142.127686,608.902832 3143.815918,620.406982 
	C3145.894775,634.572083 3160.831299,650.315918 3178.052734,650.555054 
M2740.809326,649.995667 
	C2752.826172,652.264893 2764.058105,650.142944 2774.630859,644.073914 
	C2779.932617,641.030518 2780.063721,640.612915 2777.076416,635.298767 
	C2775.810791,633.047852 2774.821777,630.641357 2773.433838,627.732849 
	C2771.870361,628.128662 2769.976318,628.163147 2768.608887,629.028992 
	C2761.667969,633.424316 2754.335693,635.303772 2746.081787,634.059937 
	C2737.702637,632.797363 2729.593994,623.283142 2730.595947,614.826355 
	C2746.941895,614.826355 2763.343262,614.826355 2780.000000,614.826355 
	C2780.000000,612.257751 2779.999756,610.116638 2779.999756,607.975464 
	C2780.000244,589.019104 2772.547119,578.906555 2754.057617,574.663940 
	C2740.970459,571.660950 2725.458252,576.717529 2716.961670,589.143982 
	C2711.299316,597.425415 2710.122070,606.528503 2710.900391,616.326904 
	C2711.691406,626.285950 2715.281738,634.953003 2722.909180,641.061646 
	C2727.816650,644.991760 2734.216797,647.058289 2740.809326,649.995667 
M3034.612549,646.082642 
	C3040.316406,650.797424 3047.174072,651.090637 3054.040527,650.785889 
	C3055.077637,650.739807 3056.735840,648.530518 3056.864014,647.202026 
	C3057.242920,643.270691 3056.999268,639.279419 3056.999268,635.367615 
	C3048.000000,634.358765 3048.129395,634.356262 3047.965820,625.906311 
	C3047.780273,616.325867 3047.715332,606.717102 3046.885742,597.182617 
	C3046.122314,588.409180 3038.062012,580.671082 3029.485596,578.980896 
	C3020.623779,577.234436 3011.898926,577.793640 3003.246826,580.042542 
	C2989.822021,583.532166 2988.167725,587.034546 2994.287354,598.615845 
	C2994.355469,598.744812 2994.556885,598.803162 2994.696289,598.894409 
	C3002.259521,596.874329 3009.901855,595.493469 3017.592529,595.124329 
	C3025.339600,594.752319 3029.531006,599.988770 3028.526367,607.959290 
	C3026.773438,607.959290 3024.974121,607.956116 3023.174805,607.959900 
	C3016.344482,607.974243 3009.419434,607.287476 3002.708008,608.188354 
	C2994.705078,609.262634 2987.507568,617.808167 2986.969482,624.786621 
	C2985.879150,638.937134 2990.364990,645.063538 3001.078125,649.003540 
	C3012.277100,653.122070 3022.396973,650.539062 3031.858643,642.892517 
	C3032.592285,643.789307 3033.331543,644.692993 3034.612549,646.082642 
M3107.449707,591.000427 
	C3114.902100,592.602356 3115.200195,592.953735 3116.510986,601.708740 
	C3121.913818,601.708740 3127.317871,601.708740 3133.000000,601.708740 
	C3133.000000,599.617065 3132.818115,597.786133 3133.029785,596.001892 
	C3134.349609,584.883728 3127.380615,578.536682 3118.954346,576.600098 
	C3112.480713,575.112305 3105.675781,573.844360 3099.116699,574.215515 
	C3087.480225,574.873962 3077.706543,579.815613 3070.608398,589.695679 
	C3064.575195,598.092590 3063.414307,607.352539 3063.982666,617.208374 
	C3064.505859,626.284119 3068.098877,634.281372 3074.755127,639.991455 
	C3090.033203,653.097595 3107.305664,654.216614 3125.258545,645.906494 
	C3135.510742,641.160950 3135.153320,641.035828 3130.303467,630.520020 
	C3128.325684,626.232361 3126.434814,625.838989 3123.011475,628.495300 
	C3117.420898,632.833069 3110.800049,635.368469 3103.984863,634.800842 
	C3091.187012,633.735107 3082.689453,625.800476 3082.809570,611.612732 
	C3082.919434,598.666321 3093.430420,588.725098 3107.449707,591.000427 
M2813.777100,647.997559 
	C2820.083008,648.901550 2826.345459,651.731812 2832.700928,648.534851 
	C2832.700928,643.668457 2832.700928,638.917297 2832.700928,633.998230 
	C2831.080566,633.998230 2829.752930,634.081848 2828.438477,633.984131 
	C2821.743408,633.486084 2815.265137,629.305664 2815.122803,624.530884 
	C2814.782959,613.121399 2815.013428,601.695068 2815.013428,589.828125 
	C2820.643555,589.828125 2825.712402,589.828125 2830.661133,589.828125 
	C2830.661133,584.971375 2830.661133,580.577393 2830.661133,575.734741 
	C2825.259033,575.734741 2820.192627,575.734741 2815.000000,575.734741 
	C2815.000000,573.619751 2815.000732,571.963013 2815.000000,570.306213 
	C2814.992920,555.045105 2814.996338,555.109253 2799.755859,555.942261 
	C2796.970947,556.094543 2795.903320,557.056030 2795.965820,559.819580 
	C2796.084229,565.092468 2796.000244,570.369995 2796.000244,576.088135 
	C2792.113770,576.088135 2788.705566,576.088135 2785.293945,576.088135 
	C2785.293945,580.945496 2785.293945,585.340820 2785.293945,590.183838 
	C2788.982910,590.183838 2792.385498,590.183838 2796.000000,590.183838 
	C2796.000000,600.938416 2795.969971,611.238159 2796.019531,621.537598 
	C2796.032959,624.338074 2796.011475,627.184082 2796.479004,629.928650 
	C2798.093750,639.410095 2804.666260,644.503174 2813.777100,647.997559 
M2946.000000,597.500000 
	C2946.000000,605.157532 2945.846680,612.819153 2946.053955,620.471069 
	C2946.191650,625.549194 2946.430664,630.689819 2947.350342,635.668457 
	C2949.587891,647.780762 2965.046875,652.413879 2975.631592,648.353577 
	C2975.631592,643.547791 2975.631592,638.820862 2975.631592,634.130066 
	C2966.543701,633.799255 2965.005615,632.168884 2965.002686,623.142761 
	C2964.994873,600.336731 2965.000000,577.530640 2965.000000,554.724609 
	C2965.000000,552.277832 2965.000000,549.831055 2965.000000,547.003845 
	C2955.744141,547.003845 2946.957764,546.885681 2938.183105,547.153931 
	C2937.090820,547.187317 2935.263184,549.180786 2935.127197,550.414734 
	C2933.900146,561.555603 2933.988770,561.561890 2944.957031,562.099731 
	C2945.226074,562.112915 2945.480469,562.425842 2946.000000,562.770142 
	C2946.000000,573.905701 2946.000000,585.202820 2946.000000,597.500000 
M2278.000000,615.499634 
	C2278.000000,621.926025 2278.000000,628.352417 2278.000000,634.722168 
	C2282.025146,634.722168 2285.429932,634.722168 2288.823975,634.722168 
	C2288.976318,633.094727 2289.102539,631.745056 2289.260254,630.055908 
	C2298.121826,639.104919 2317.230225,637.476501 2323.845215,628.831848 
	C2330.731445,619.832520 2331.683350,610.255676 2330.160400,599.412781 
	C2327.408447,579.818481 2307.606934,573.749573 2292.792236,582.608643 
	C2291.747314,583.233398 2290.495605,583.511963 2289.000000,584.080994 
	C2289.000000,577.150757 2288.950684,570.667236 2289.017578,564.184814 
	C2289.061523,559.892700 2287.041992,557.901672 2282.768799,557.984741 
	C2278.983887,558.058350 2275.196289,558.000183 2271.225586,558.000183 
	C2271.225586,561.511353 2271.225586,564.585388 2271.225586,567.998657 
	C2277.436768,566.759521 2278.137451,570.227173 2278.066406,575.059082 
	C2277.873047,588.203430 2278.000000,601.352600 2278.000000,615.499634 
M2357.993896,654.526489 
	C2359.988037,652.071106 2362.678467,649.910278 2363.862305,647.112244 
	C2371.096436,630.011719 2377.918213,612.737244 2385.071289,595.601746 
	C2386.146240,593.025879 2388.238037,590.874268 2389.859375,588.526428 
	C2390.152588,588.729797 2390.446045,588.933167 2390.739258,589.136536 
	C2390.739258,586.197266 2390.739258,583.258057 2390.739258,580.000000 
	C2388.016357,580.000000 2385.516357,580.256348 2383.090332,579.941711 
	C2379.166748,579.432739 2377.242920,581.594910 2376.083008,584.746399 
	C2373.631592,591.407104 2371.395752,598.147034 2368.956055,604.812195 
	C2367.184326,609.652222 2365.227783,614.424561 2363.132568,619.793518 
	C2358.160889,607.600159 2353.698486,596.351562 2348.928223,585.235107 
	C2348.062012,583.216797 2346.196533,580.716675 2344.332031,580.239807 
	C2341.120850,579.418518 2337.548096,580.012451 2334.160400,580.012451 
	C2334.160400,583.675171 2334.160400,586.647095 2334.160400,589.619019 
	C2336.642578,590.442078 2338.870361,591.666443 2339.698486,593.517029 
	C2344.977295,605.316162 2349.895020,617.276306 2355.044189,629.134705 
	C2357.532959,634.866211 2356.541992,641.362488 2352.008789,645.453125 
	C2348.666504,648.468872 2344.954346,649.408691 2340.906494,646.507080 
	C2339.919434,645.799377 2338.678711,645.445801 2337.259277,644.793762 
	C2336.297852,646.631897 2335.807861,648.540344 2334.596924,649.688232 
	C2331.781006,652.357971 2333.260010,653.776367 2335.695801,655.192749 
	C2342.967285,659.420715 2350.210938,659.493530 2357.993896,654.526489 
M2571.000000,538.491150 
	C2570.441162,530.091003 2568.458984,522.032532 2562.800293,515.648743 
	C2558.868164,511.212830 2553.593262,507.727997 2547.297852,509.176331 
	C2541.516846,510.506287 2537.716309,514.434143 2535.779541,520.521423 
	C2531.973633,532.485168 2534.997803,543.089172 2542.163086,552.405762 
	C2549.024414,561.327515 2563.676270,562.843872 2568.834717,549.280884 
	C2570.021240,546.161011 2570.302246,542.696838 2571.000000,538.491150 
M2500.117920,556.656006 
	C2507.054199,560.546509 2513.343750,559.642700 2518.897705,554.698914 
	C2528.542236,546.114380 2530.631348,534.864441 2528.728271,523.245361 
	C2526.661865,510.629333 2515.083496,504.050507 2504.737061,512.915894 
	C2501.090576,516.040405 2498.035889,520.349426 2495.957520,524.711548 
	C2490.944580,535.232727 2491.953369,549.083435 2500.117920,556.656006 
M2596.735352,558.244324 
	C2596.144775,557.096680 2595.658936,555.879028 2594.947021,554.812317 
	C2588.570068,545.257446 2579.608643,546.606262 2574.616455,553.111816 
	C2568.140381,561.551453 2567.091797,571.351379 2571.205811,581.210510 
	C2573.079346,585.700623 2576.671631,588.944153 2582.079590,588.986267 
	C2587.537109,589.028809 2591.195068,586.274597 2593.819336,581.597900 
	C2597.833008,574.444092 2598.822754,566.960144 2596.735352,558.244324 
M2481.523438,588.998840 
	C2486.343018,588.188049 2490.058105,586.487976 2492.385254,581.399963 
	C2496.234375,572.985535 2495.739014,564.911499 2491.917480,557.043457 
	C2487.301270,547.539001 2478.736816,544.877869 2472.324463,551.165527 
	C2469.393799,554.039307 2467.884033,558.753418 2466.668457,562.907532 
	C2463.621338,573.319336 2470.421631,585.539429 2481.523438,588.998840 
M3226.000000,631.904480 
	C3226.290283,635.133179 3225.812256,638.688049 3227.017578,641.528442 
	C3230.402832,649.506592 3239.927246,652.781921 3247.506104,649.151123 
	C3256.738770,644.727905 3257.680664,636.765198 3254.915771,628.128845 
	C3253.191162,622.742554 3245.931152,618.675781 3240.631836,619.007568 
	C3233.388916,619.460999 3228.348389,623.604919 3226.000000,631.904480 
z"/>
<path fill="#D51149" opacity="1.000000" stroke="none" 
	d="
M1.000000,225.460632 
	C4.230020,211.035767 12.615613,200.281631 23.285717,191.463272 
	C30.758610,185.287216 39.250847,180.329697 47.374023,174.958313 
	C67.124664,161.898392 89.230980,154.370972 111.929779,148.747528 
	C123.734970,145.822891 136.018555,144.814102 148.096207,143.007919 
	C167.328033,140.131836 185.534485,144.511337 202.668198,152.518478 
	C219.040039,160.169571 231.585602,172.570389 239.953430,188.810806 
	C248.541702,205.479065 253.043167,223.374527 254.920532,241.902573 
	C256.048889,253.038391 257.141235,264.285004 256.788666,275.435638 
	C256.380798,288.334198 254.830444,301.251312 252.914001,314.031097 
	C251.209549,325.397217 249.039627,336.795624 245.809555,347.808594 
	C239.924744,367.872772 220.689590,385.392975 199.842270,384.881866 
	C189.207047,384.621155 179.711380,380.365509 171.278839,373.795258 
	C152.158920,358.897919 137.070969,340.552124 124.968895,319.677460 
	C116.774689,305.543427 104.195953,298.323334 88.717834,294.065521 
	C73.635933,289.916626 58.970592,284.157562 44.303806,278.624481 
	C31.476484,273.785370 20.296350,266.240387 10.732189,256.300323 
	C5.554214,250.918808 2.505772,244.695038 1.367132,237.154327 
	C1.000000,233.307098 1.000000,229.614182 1.000000,225.460632 
z"/>
<path fill="#D51149" opacity="1.000000" stroke="none" 
	d="
M211.531723,0.999998 
	C219.083282,4.248340 226.583405,6.824013 233.155777,10.896827 
	C244.026840,17.633490 249.256119,28.718658 251.881119,40.692535 
	C257.758209,67.500549 248.476425,92.077660 221.755173,109.003334 
	C201.290497,121.965988 178.811157,119.192116 162.398254,102.734085 
	C153.854034,94.166367 150.367386,83.168327 148.809814,71.158394 
	C147.444580,60.631451 148.238968,50.597881 152.036041,40.893028 
	C158.998215,23.098629 170.776443,9.713645 188.916748,2.587379 
	C190.110870,2.118268 191.443253,2.001028 192.855652,1.360060 
	C199.021149,1.000000 205.042297,1.000000 211.531723,0.999998 
z"/>
<path fill="#434346" opacity="1.000000" stroke="none" 
	d="
M3337.000000,358.533112 
	C3335.021484,364.188507 3333.576416,369.664520 3330.963623,374.511139 
	C3323.480713,388.392944 3311.937744,396.607330 3296.079346,399.101898 
	C3279.204346,401.756439 3265.081299,396.576721 3253.491455,384.770569 
	C3245.954590,377.092896 3241.846436,367.524689 3240.865723,356.427032 
	C3239.416260,340.027008 3244.308838,326.387207 3256.292480,315.213165 
	C3264.584229,307.481476 3274.272217,303.443848 3285.730957,302.890717 
	C3297.627197,302.316467 3308.445557,304.843567 3317.920898,312.033661 
	C3328.085938,319.747131 3334.485840,329.883453 3336.629395,342.850098 
	C3337.000000,348.022095 3337.000000,353.044189 3337.000000,358.533112 
M3249.333740,365.836121 
	C3250.222412,367.561218 3251.129395,369.277130 3251.996826,371.012878 
	C3260.038574,387.103943 3279.643066,397.082062 3296.986328,392.839844 
	C3318.387939,387.604980 3332.214844,369.695557 3330.004883,346.837860 
	C3328.264404,328.834656 3317.421631,315.511780 3299.804443,310.399689 
	C3279.523682,304.514618 3257.098877,315.863068 3249.794678,336.354523 
	C3246.334229,346.061554 3246.506592,355.429810 3249.333740,365.836121 
z"/>
<path fill="#414042" opacity="1.000000" stroke="none" 
	d="
M1251.786865,44.027096 
	C1266.310669,49.437012 1279.930420,55.649651 1292.072144,64.928955 
	C1303.198486,73.432266 1311.816895,83.928085 1318.971313,95.794098 
	C1326.251099,107.868401 1331.027954,121.141975 1332.592407,134.874130 
	C1334.186890,148.870743 1333.454956,163.202499 1332.898560,177.354370 
	C1332.343750,191.465485 1327.842529,204.686264 1321.349854,217.205399 
	C1310.959961,237.239212 1295.470947,252.243530 1276.062378,263.497559 
	C1259.459595,273.124634 1241.378784,278.481995 1222.702759,281.830566 
	C1214.338013,283.330353 1205.708008,283.823303 1197.189941,283.906769 
	C1171.039307,284.162933 1144.884766,284.000000 1118.000000,284.000000 
	C1118.000000,285.872406 1118.000000,287.619965 1118.000000,289.367493 
	C1118.000000,317.192810 1117.882568,345.018860 1118.052246,372.843170 
	C1118.130981,385.742706 1109.717529,397.970337 1098.768188,402.627380 
	C1085.881958,408.108246 1069.584473,404.847931 1060.751221,395.214874 
	C1054.498901,388.396332 1052.072266,379.947601 1052.063232,370.993683 
	C1051.963135,270.689301 1051.837402,170.384293 1052.133545,70.080673 
	C1052.194824,49.399555 1065.270142,36.339539 1086.356079,36.095898 
	C1118.176025,35.728230 1150.003662,36.090672 1181.827393,35.969994 
	C1205.345825,35.880814 1228.688599,37.032429 1251.786865,44.027096 
M1170.500000,95.000000 
	C1152.412354,95.000000 1134.324585,95.000000 1116.320801,95.000000 
	C1116.320801,138.674469 1116.320801,181.725525 1116.320801,225.000000 
	C1139.778931,225.000000 1162.919067,224.827118 1186.054688,225.070999 
	C1198.102051,225.197983 1209.994263,224.658875 1221.546875,220.973038 
	C1238.980713,215.410843 1253.277588,205.553909 1261.861084,189.078903 
	C1267.897827,177.491806 1269.726562,165.028488 1268.198608,151.742233 
	C1266.524048,137.181290 1261.319580,124.514999 1250.860840,114.569748 
	C1238.520752,102.835442 1222.782715,97.872055 1206.244873,96.164879 
	C1194.745728,94.977837 1183.087280,95.333527 1170.500000,95.000000 
z"/>
<path fill="#414042" opacity="1.000000" stroke="none" 
	d="
M734.714417,232.794342 
	C743.383057,222.500809 751.767761,212.437988 760.211121,202.424576 
	C766.239868,195.274719 772.393982,188.230362 778.409241,181.069260 
	C788.411499,169.161697 798.317444,157.173309 808.320557,145.266464 
	C815.914612,136.227097 823.646973,127.303886 831.226746,118.252693 
	C840.998047,106.584457 850.622620,94.793144 860.415527,83.143188 
	C868.332642,73.724823 876.243896,64.292168 884.467224,55.144020 
	C889.729980,49.289463 894.932800,43.073135 901.252380,38.537704 
	C916.541870,27.564819 942.076477,26.803698 953.675598,46.439953 
	C956.188477,50.693928 957.800781,56.176437 957.820618,61.101196 
	C958.088196,127.421944 958.000000,193.744141 958.000000,260.065979 
	C958.000000,261.866913 958.000000,263.667847 958.000000,266.000000 
	C966.928345,266.000000 975.537231,265.895203 984.142334,266.029968 
	C992.456055,266.160156 999.907898,268.761871 1005.544922,275.102264 
	C1012.434448,282.851379 1014.256531,292.150085 1011.473816,301.857605 
	C1008.832458,311.072021 1002.434448,317.312286 992.712097,318.893341 
	C986.901306,319.838287 980.912781,319.787872 974.997559,319.965118 
	C969.528809,320.128967 964.051331,320.000000 958.256714,320.000000 
	C958.161377,321.700836 958.011963,323.140381 958.010498,324.580048 
	C957.994019,341.077179 958.198120,357.577362 957.946411,374.070648 
	C957.674316,391.894989 947.624817,402.119232 932.715881,404.688873 
	C916.972595,407.402283 904.265259,400.959930 897.416260,384.783051 
	C896.311157,382.172974 896.077332,379.042358 896.059143,376.148468 
	C895.943054,357.663788 896.000000,339.178009 896.000000,320.000000 
	C894.083252,320.000000 892.330139,320.000000 890.577087,320.000000 
	C837.919556,320.000000 785.261108,320.169098 732.605103,319.889709 
	C718.140259,319.812927 706.527100,310.586792 703.909485,295.150146 
	C701.254028,279.490234 707.879089,266.955170 716.516602,255.117661 
	C722.097290,247.469391 728.449219,240.383850 734.714417,232.794342 
M896.000000,185.500000 
	C896.000000,165.816345 896.000000,146.132690 896.000000,124.996124 
	C856.358521,172.575134 817.709351,218.963211 778.785706,265.680664 
	C818.372498,265.680664 857.073608,265.680664 896.000000,265.680664 
	C896.000000,239.074646 896.000000,212.787323 896.000000,185.500000 
z"/>
<path fill="#414042" opacity="1.000000" stroke="none" 
	d="
M582.349670,296.249512 
	C571.405884,305.436127 560.737244,314.392578 550.125671,323.416168 
	C541.551636,330.707153 533.046326,338.079071 523.830017,346.000000 
	C526.185059,346.000000 527.912964,346.000000 529.640869,346.000000 
	C575.972900,346.000000 622.304932,346.026886 668.636963,345.984161 
	C683.141357,345.970764 695.648743,355.644958 697.151672,370.460236 
	C698.938477,388.073303 687.467773,401.739380 670.675476,401.834167 
	C600.846313,402.228302 531.012695,402.194946 461.183167,401.837006 
	C447.019531,401.764404 435.927063,395.176178 430.543365,381.075531 
	C424.938049,366.394409 430.678619,347.651917 443.282288,338.195312 
	C450.992920,332.410034 458.247833,326.013336 465.654449,319.827820 
	C478.101837,309.432556 490.548462,299.035645 502.914948,288.544556 
	C510.681244,281.956055 518.234619,275.116516 526.002502,268.529999 
	C535.866882,260.165863 545.893188,251.992950 555.768677,243.641815 
	C561.417480,238.864929 567.041260,234.042938 572.439453,228.988327 
	C587.086792,215.273392 601.842896,201.689362 612.938416,184.661636 
	C622.212891,170.428421 626.073608,154.885437 624.889404,138.184265 
	C624.006958,125.740707 619.395630,114.318306 610.646484,105.380577 
	C601.049744,95.577072 588.964600,90.241928 575.129028,88.954948 
	C563.796875,87.900826 552.842712,89.044029 542.108459,92.915962 
	C531.842712,96.618935 522.788818,102.328484 514.938354,109.716530 
	C507.828247,116.407776 501.500336,123.921585 494.598694,130.844604 
	C478.444427,147.049011 451.661957,139.803818 445.467896,117.550224 
	C442.276825,106.085617 446.448883,94.928612 453.836121,85.912498 
	C464.272034,73.175453 475.889404,61.577133 489.877502,52.449615 
	C504.683594,42.788357 520.871582,36.845970 538.089478,34.199005 
	C551.040771,32.207954 564.288940,30.942421 577.365295,31.220139 
	C604.682373,31.800297 630.562622,38.526855 652.616272,55.409332 
	C671.586426,69.931343 683.523254,89.212326 689.233276,112.708366 
	C692.824463,127.485657 692.709839,142.328110 691.705017,157.015778 
	C690.240845,178.418594 682.264465,197.934998 669.282837,215.180267 
	C658.833923,229.061035 646.949463,241.600296 633.693115,252.859177 
	C621.430420,263.274170 609.350159,273.903870 597.114014,284.350555 
	C592.399780,288.375366 587.477173,292.156250 582.349670,296.249512 
z"/>
<path fill="#414042" opacity="1.000000" stroke="none" 
	d="
M1446.437866,402.755066 
	C1426.415771,397.359283 1408.381104,389.047791 1392.491699,376.106628 
	C1377.242310,363.686737 1365.280640,348.731567 1356.712524,331.153687 
	C1350.234131,317.862610 1345.317261,303.915375 1344.079102,289.058472 
	C1343.011353,276.245911 1341.525757,263.308838 1342.246338,250.540924 
	C1343.586914,226.792084 1349.702393,204.038635 1362.790405,183.863251 
	C1369.416382,173.648849 1376.432861,163.305161 1385.070190,154.857727 
	C1403.029419,137.293610 1424.346191,124.895981 1449.637939,121.111366 
	C1461.454590,119.343124 1473.555054,117.642410 1485.401978,118.269737 
	C1513.639404,119.764984 1539.243896,128.826080 1561.208740,147.548126 
	C1583.768188,166.777115 1597.344482,191.241409 1604.533569,219.432083 
	C1606.853638,228.529526 1606.696411,238.235611 1608.068481,247.605286 
	C1609.135620,254.892670 1608.509399,261.853455 1604.906982,268.227051 
	C1599.338013,278.079712 1591.184082,284.025024 1579.344360,284.016876 
	C1524.182861,283.978851 1469.021240,284.000000 1413.859741,284.000000 
	C1412.048950,284.000000 1410.238159,284.000000 1407.209473,284.000000 
	C1409.373535,291.333832 1410.780762,298.287140 1413.446167,304.719177 
	C1420.925537,322.767578 1432.851807,336.998352 1450.898560,345.413971 
	C1465.956665,352.435944 1481.653198,354.265717 1498.171753,352.181885 
	C1513.301514,350.273315 1527.240112,345.786987 1539.709473,337.010864 
	C1543.832642,334.108856 1547.540894,330.595551 1551.758911,327.854340 
	C1560.718506,322.031677 1570.192139,322.765839 1579.027832,327.715179 
	C1586.865356,332.105347 1590.838257,339.045837 1591.207031,348.620819 
	C1591.636475,359.771667 1587.128296,367.446198 1578.240967,373.354401 
	C1568.649658,379.730652 1559.576782,387.008759 1549.543457,392.568237 
	C1536.719727,399.673859 1522.646729,403.764404 1507.920044,404.975708 
	C1497.918335,405.798370 1487.879517,407.005005 1477.882690,406.800262 
	C1468.959595,406.617493 1460.070923,404.738739 1451.168579,403.597168 
	C1449.715210,403.410797 1448.269287,403.166412 1446.437866,402.755066 
M1421.046387,203.667313 
	C1413.477905,216.033020 1408.308960,229.274033 1406.299683,243.770569 
	C1452.859863,243.770569 1499.283203,243.770569 1546.287842,243.770569 
	C1545.819092,241.253281 1545.325073,239.075714 1545.017212,236.872116 
	C1542.348633,217.769348 1534.963623,201.221863 1519.969360,188.379410 
	C1504.497437,175.127884 1486.158325,172.024277 1467.039185,174.286301 
	C1447.730469,176.570770 1432.579102,187.001221 1421.046387,203.667313 
z"/>
<path fill="#6D6E71" opacity="1.000000" stroke="none" 
	d="
M1984.043823,307.097931 
	C1975.016235,333.684174 1965.965820,359.845795 1957.079224,386.062927 
	C1953.190430,397.535675 1944.744873,405.175171 1931.159546,402.798065 
	C1922.032349,401.201050 1915.843140,394.315918 1912.211182,386.179047 
	C1907.710449,376.095642 1904.366821,365.493591 1900.568604,355.098969 
	C1888.444702,321.918579 1876.292358,288.748352 1864.244385,255.540268 
	C1852.030762,221.875458 1840.058716,188.122040 1827.639526,154.533661 
	C1825.738647,149.393036 1823.664429,144.611755 1823.929810,138.963654 
	C1824.305664,130.967514 1831.740845,123.074799 1839.683838,121.929527 
	C1854.126709,119.847122 1861.724365,126.909538 1866.078735,139.982574 
	C1888.005493,205.812744 1910.014038,271.615662 1932.004883,337.424438 
	C1932.361206,338.491180 1932.856079,339.511688 1933.429932,340.902008 
	C1946.016602,303.726837 1958.461792,266.934479 1970.931396,230.150406 
	C1981.597046,198.687668 1992.217041,167.209152 2003.013184,135.791183 
	C2006.565796,125.452667 2012.620239,119.060631 2027.508057,119.942635 
	C2036.594482,120.480942 2042.756958,126.455589 2046.169189,137.150681 
	C2053.545898,160.272980 2061.449219,183.227020 2069.079102,206.269058 
	C2082.441650,246.623276 2095.763916,286.990845 2109.092529,327.356354 
	C2110.518311,331.673950 2111.873779,336.014801 2113.567383,341.298004 
	C2114.579834,338.243988 2115.326416,335.938416 2116.107422,333.644501 
	C2124.400146,309.285858 2132.714844,284.934753 2140.990967,260.570404 
	C2154.662354,220.322617 2168.242676,180.043625 2182.039795,139.839096 
	C2184.083252,133.885101 2186.322266,127.777641 2192.267822,124.200813 
	C2198.918945,120.199692 2209.263184,120.737228 2216.139893,125.712372 
	C2222.246338,130.130051 2224.838135,139.147629 2221.999512,147.096237 
	C2212.582031,173.465164 2202.906738,199.741776 2193.455078,226.098602 
	C2179.222900,265.786407 2165.127930,305.523376 2150.908691,345.215790 
	C2145.693115,359.774536 2140.457275,374.330475 2134.902100,388.761169 
	C2132.042969,396.188507 2126.726318,401.739532 2118.580811,402.874512 
	C2108.597412,404.265594 2100.011963,401.069458 2095.862061,391.272217 
	C2091.425049,380.796661 2087.795410,369.965424 2084.107422,359.188690 
	C2070.662842,319.899658 2057.380859,280.554962 2043.954956,241.259491 
	C2037.918091,223.590378 2031.686279,205.987900 2025.187866,187.336029 
	C2011.292114,227.690842 1997.689819,267.193359 1984.043823,307.097931 
z"/>
<path fill="#6D6E71" opacity="1.000000" stroke="none" 
	d="
M3211.000000,273.000000 
	C3211.000000,308.659485 3211.005371,343.818970 3210.997314,378.978455 
	C3210.994629,390.179291 3204.414795,398.418243 3193.638184,399.891388 
	C3182.356445,401.433594 3172.536377,396.515137 3169.683594,385.172302 
	C3169.250000,383.448975 3169.028809,381.624878 3169.027588,379.847168 
	C3168.993164,330.690582 3169.362061,281.530029 3168.826172,232.379227 
	C3168.604248,212.020889 3162.916016,192.892014 3148.769775,177.385757 
	C3138.937988,166.609131 3126.153809,160.565659 3112.013184,158.157913 
	C3097.972412,155.767105 3083.755371,155.890366 3069.913330,160.030930 
	C3050.225586,165.920120 3034.884521,177.440491 3024.791992,195.575272 
	C3018.333496,207.179779 3014.398682,219.495682 3013.968506,232.862015 
	C3013.772217,238.965286 3013.055664,245.060120 3013.043945,251.159698 
	C3012.960938,294.150757 3012.663574,337.146240 3013.201172,380.130737 
	C3013.366455,393.325470 2999.722656,402.902374 2986.839355,399.424316 
	C2974.751709,396.161011 2971.426270,388.162018 2971.100342,377.157684 
	C2970.686035,363.172821 2971.000000,349.166351 2971.000000,335.169220 
	C2971.000000,234.523117 2970.982666,133.876999 2971.029297,33.230927 
	C2971.033447,24.306948 2973.251465,16.314772 2981.879150,11.583999 
	C2996.562988,3.532388 3013.444336,15.299658 3013.229248,30.203913 
	C3012.589355,74.518951 3013.000000,118.849152 3013.000000,163.173431 
	C3013.000000,164.915817 3013.000000,166.658203 3013.000000,168.327271 
	C3019.756836,160.607574 3025.856445,152.670578 3032.943604,145.744095 
	C3047.468018,131.548294 3064.934814,122.666641 3085.199951,120.076065 
	C3094.494385,118.887894 3103.955078,117.737335 3113.265625,118.173317 
	C3141.253906,119.484001 3166.291748,128.361908 3185.375977,149.966217 
	C3197.431641,163.613647 3204.435303,179.874786 3207.983887,197.633804 
	C3212.936768,222.420593 3210.399658,247.527405 3211.000000,273.000000 
z"/>
<path fill="#6D6E71" opacity="1.000000" stroke="none" 
	d="
M2442.715820,148.220169 
	C2458.745850,164.429138 2467.835205,183.616974 2469.924072,205.907562 
	C2471.063232,218.061264 2471.848877,230.293564 2471.908936,242.494781 
	C2472.135986,288.488953 2472.095947,334.485291 2471.924561,380.479950 
	C2471.887207,390.483826 2467.307373,399.079010 2455.960938,401.594910 
	C2447.356201,403.502899 2434.811523,397.400330 2434.024414,386.965271 
	C2433.366455,378.243011 2433.013428,369.497803 2432.485596,360.054443 
	C2430.936523,361.951385 2429.654053,363.682068 2428.210449,365.266052 
	C2409.587646,385.699768 2386.865967,398.459961 2359.424072,403.119141 
	C2328.655518,408.343048 2299.884766,403.207428 2273.619873,386.671722 
	C2256.152832,375.675110 2243.736084,359.972015 2238.434326,339.659790 
	C2235.424561,328.129730 2235.293945,316.313110 2236.845215,304.354614 
	C2238.618652,290.683899 2243.345215,278.518585 2251.717285,267.618347 
	C2261.379639,255.038254 2273.729492,246.020096 2288.281494,240.082794 
	C2302.259521,234.379700 2316.776855,230.567703 2331.960449,230.020752 
	C2345.220459,229.543076 2358.538574,228.469833 2371.744873,229.206177 
	C2392.647461,230.371628 2413.258789,234.064484 2433.422363,239.921555 
	C2433.711426,240.005508 2434.072754,239.840820 2434.698486,239.747864 
	C2435.916992,225.724045 2434.613037,211.967728 2429.315430,198.792282 
	C2419.977783,175.568756 2401.777344,163.136246 2377.921875,159.238632 
	C2365.291992,157.175110 2352.175537,156.510910 2339.402344,157.277847 
	C2320.440430,158.416367 2302.096924,163.531250 2284.668457,171.193207 
	C2277.269043,174.446167 2270.622803,174.486954 2263.983643,169.987686 
	C2258.338623,166.162109 2255.441162,160.595230 2256.155029,153.989395 
	C2256.894531,147.141983 2259.848877,141.595154 2266.961182,138.359406 
	C2284.309082,130.467072 2302.376953,124.714661 2321.124512,122.349503 
	C2337.480469,120.286087 2354.218994,119.406944 2370.660645,120.315987 
	C2393.724609,121.591156 2415.771973,127.636742 2434.718994,141.947952 
	C2437.327148,143.918060 2439.878906,145.963196 2442.715820,148.220169 
M2283.065430,293.671814 
	C2279.071045,301.261810 2277.950195,309.347137 2277.893555,317.888000 
	C2277.769043,336.734863 2287.135254,350.220367 2302.059814,359.833069 
	C2318.885986,370.670502 2337.827393,373.849182 2357.586182,370.896973 
	C2372.655273,368.645477 2387.069580,364.234863 2400.292236,356.331116 
	C2415.727295,347.105103 2427.034424,334.597015 2433.278076,317.481750 
	C2438.672607,302.694183 2436.383301,287.512421 2437.072998,272.339020 
	C2435.672607,272.148712 2434.691650,272.122192 2433.769531,271.874603 
	C2405.697510,264.335754 2377.364014,259.250366 2348.059814,260.869873 
	C2336.661865,261.499817 2325.573975,263.152161 2314.970703,267.139832 
	C2301.630615,272.156738 2290.183350,279.794891 2283.065430,293.671814 
z"/>
<path fill="#414042" opacity="1.000000" stroke="none" 
	d="
M1653.000000,103.999863 
	C1653.333374,93.579758 1653.554199,83.654228 1654.031616,73.741043 
	C1654.516113,63.680397 1666.633911,51.021122 1677.280029,49.005634 
	C1687.649902,47.042442 1697.265503,48.164097 1705.842529,54.946358 
	C1712.609741,60.297523 1716.757568,67.130096 1716.914062,75.714600 
	C1717.210815,91.993286 1717.000000,108.281204 1717.000000,125.000000 
	C1733.373779,125.000000 1749.331665,125.320671 1765.270264,124.901588 
	C1778.754028,124.547050 1790.420532,132.158096 1793.512817,146.121994 
	C1797.381470,163.592514 1785.719604,179.871979 1768.294067,179.977676 
	C1751.343384,180.080490 1734.391602,180.000000 1717.000000,180.000000 
	C1717.000000,181.869003 1717.000000,183.322144 1717.000000,184.775299 
	C1717.000000,226.598892 1716.837280,268.423676 1717.142090,310.245026 
	C1717.200562,318.270416 1717.475220,326.667145 1721.594238,334.005249 
	C1727.110352,343.831879 1736.585693,347.263672 1747.025269,347.832947 
	C1752.828125,348.149414 1758.712646,346.637421 1764.578979,346.196991 
	C1772.077515,345.634003 1778.677124,348.234436 1784.353882,352.934235 
	C1792.014038,359.275970 1795.845947,367.658875 1793.652954,377.396851 
	C1790.916870,389.546295 1781.874634,395.852905 1770.326660,398.998688 
	C1758.855225,402.123566 1747.153198,402.672852 1735.314941,403.247742 
	C1721.935547,403.897491 1708.896362,402.986969 1696.296387,398.877075 
	C1675.002319,391.931213 1662.341797,376.617737 1657.130005,355.203247 
	C1655.330322,347.809509 1654.215576,340.067108 1654.127197,332.468414 
	C1653.545776,282.389832 1653.329834,232.307053 1652.990723,182.225677 
	C1652.987305,181.730164 1652.927734,181.235046 1652.844727,180.000000 
	C1649.142822,180.000000 1645.394653,179.983765 1641.646606,180.002762 
	C1624.478394,180.089798 1612.987793,163.117188 1616.534302,147.041336 
	C1619.541138,133.411926 1629.238037,124.144073 1645.425659,124.983429 
	C1647.733521,125.103096 1650.053101,125.000000 1653.000000,125.000000 
	C1653.000000,118.026131 1653.000000,111.262985 1653.000000,103.999863 
z"/>
<path fill="#6D6E71" opacity="1.000000" stroke="none" 
	d="
M2742.773438,144.740173 
	C2755.990479,135.130722 2770.131592,128.286575 2785.486572,123.761276 
	C2801.935547,118.913589 2818.737793,117.050308 2835.725342,118.124771 
	C2856.954102,119.467522 2877.569824,124.157288 2895.979492,135.186920 
	C2906.726318,141.625580 2916.762695,149.383163 2926.532715,157.272964 
	C2933.255615,162.701965 2934.635010,170.480423 2932.100830,178.783905 
	C2929.578369,187.050400 2922.757568,190.327423 2915.313721,190.648026 
	C2910.523438,190.854355 2904.920654,188.792557 2900.860107,186.021286 
	C2891.279785,179.482468 2882.879395,171.162476 2873.114014,164.960968 
	C2862.587402,158.276199 2850.434082,155.479462 2837.957520,153.868942 
	C2824.815674,152.172470 2812.123535,153.491440 2799.504395,156.982986 
	C2787.851562,160.207047 2777.524902,165.874512 2768.056152,173.378403 
	C2750.860840,187.005325 2739.968506,204.656326 2733.802002,225.497147 
	C2729.218262,240.989258 2727.977295,256.633667 2729.867432,272.750092 
	C2732.186523,292.526703 2738.705322,310.376495 2750.673096,326.373322 
	C2765.373535,346.022766 2784.870361,357.904297 2808.629395,362.937714 
	C2832.341309,367.961090 2855.142578,364.541290 2876.123779,352.721405 
	C2885.725098,347.312408 2894.232666,339.790863 2902.696045,332.592133 
	C2908.768311,327.427094 2914.993652,324.503113 2922.930664,326.461182 
	C2935.817871,329.640320 2942.591309,349.137726 2930.883545,358.588715 
	C2921.453369,366.200897 2912.277100,374.200165 2902.342529,381.097626 
	C2886.959229,391.778107 2869.648438,398.013611 2850.978760,399.945374 
	C2840.986084,400.979279 2830.888672,402.222687 2820.899658,401.826019 
	C2795.722168,400.826263 2771.991943,394.480743 2750.338867,380.942474 
	C2726.011230,365.731964 2708.418213,344.891357 2697.003418,318.765778 
	C2690.345947,303.528503 2686.989014,287.562103 2685.799561,270.866791 
	C2684.327881,250.211319 2687.200195,230.357132 2694.043457,211.071945 
	C2699.702393,195.124969 2707.247559,179.990982 2719.054932,167.568039 
	C2726.523682,159.710037 2734.669189,152.494995 2742.773438,144.740173 
z"/>
<path fill="#6D6E71" opacity="1.000000" stroke="none" 
	d="
M2595.021240,121.000000 
	C2614.177246,121.000015 2632.837646,120.850029 2651.493408,121.081116 
	C2658.053711,121.162376 2664.475342,122.080429 2669.331055,127.693611 
	C2673.719971,132.767166 2675.618652,141.309448 2673.217041,147.437271 
	C2670.054688,155.505478 2664.187988,159.869415 2655.647217,159.939926 
	C2633.824707,160.120132 2612.000000,160.000000 2590.176025,160.000000 
	C2588.357910,160.000000 2586.539795,160.000000 2584.000000,160.000000 
	C2584.000000,161.979584 2584.000000,163.733215 2584.000000,165.486847 
	C2584.000000,217.297821 2583.798828,269.110138 2584.143311,320.918823 
	C2584.228027,333.682037 2587.076904,345.974792 2597.522217,355.090118 
	C2603.423584,360.239929 2610.345215,362.664215 2617.842285,364.008453 
	C2628.721924,365.959320 2639.320801,364.810852 2650.019043,362.182251 
	C2661.419189,359.381165 2669.729736,364.816467 2672.553223,376.102234 
	C2674.064697,382.143433 2671.197021,389.706757 2664.604492,393.066284 
	C2655.175293,397.871124 2645.186768,400.602509 2634.573975,401.016266 
	C2628.305664,401.260651 2622.007568,402.258514 2615.786621,401.877594 
	C2602.567627,401.068237 2589.400879,399.482178 2577.428467,393.077332 
	C2560.065918,383.788971 2549.059814,369.485382 2545.141113,350.237640 
	C2543.350830,341.443848 2542.182129,332.360840 2542.134766,323.401581 
	C2541.859375,271.092255 2542.000000,218.780762 2542.000000,166.470001 
	C2542.000000,164.504318 2542.000000,162.538651 2542.000000,160.000000 
	C2534.690674,160.000000 2527.752197,160.010406 2520.813965,159.997437 
	C2511.640625,159.980286 2503.811523,153.902161 2502.010254,145.738327 
	C2499.319092,133.544540 2506.506348,125.468811 2513.907471,122.753883 
	C2517.349121,121.491234 2521.259277,121.251930 2524.982666,121.069008 
	C2530.439453,120.800926 2535.919189,121.000000 2542.000000,121.000000 
	C2542.000000,118.899094 2542.000000,117.130890 2542.000000,115.362686 
	C2542.000000,96.704071 2542.112305,78.044502 2541.954102,59.387230 
	C2541.870605,49.559959 2547.884033,39.387238 2559.458984,36.548855 
	C2569.439941,34.101353 2584.233643,45.004818 2584.083008,55.890480 
	C2583.796875,76.544258 2584.000000,97.204834 2584.007080,117.862587 
	C2584.007568,118.679222 2584.085693,119.495834 2584.162842,121.000000 
	C2587.669189,121.000000 2591.096680,121.000000 2595.021240,121.000000 
z"/>
<path fill="#D51149" opacity="1.000000" stroke="none" 
	d="
M311.552979,184.974228 
	C300.777496,185.057220 290.517395,185.640839 280.957367,180.084198 
	C267.334137,172.165833 259.075439,160.826157 255.943695,145.369446 
	C250.993729,120.938843 267.224396,93.284409 287.254242,82.305092 
	C303.514465,73.392082 320.798004,71.764961 337.754242,78.317673 
	C352.414368,83.983070 361.222107,96.395050 364.828857,111.588165 
	C367.756012,123.918648 366.264526,136.113724 361.103821,147.996033 
	C351.985382,168.990662 335.493652,179.845947 313.778748,184.100128 
	C313.158081,184.221725 312.599854,184.662140 311.552979,184.974228 
z"/>
<path fill="#D51149" opacity="1.000000" stroke="none" 
	d="
M50.263954,44.238373 
	C59.340054,35.997852 69.563515,31.781137 81.598495,31.967794 
	C96.059586,32.192078 107.151352,39.268307 115.384079,50.157440 
	C128.520554,67.532600 130.068832,86.958237 120.662918,106.415733 
	C112.857079,122.563286 99.919258,130.550034 80.990044,131.404831 
	C56.988689,132.488663 40.602905,111.970795 37.050827,93.145248 
	C34.953262,82.028435 34.875771,70.859406 40.020000,60.466427 
	C42.792233,54.865646 46.642826,49.798630 50.263954,44.238373 
z"/>
<path fill="#434346" opacity="1.000000" stroke="none" 
	d="
M2536.349121,559.150635 
	C2540.539307,561.712097 2544.828613,563.625122 2548.009521,566.688782 
	C2560.250000,578.479004 2572.044678,590.730286 2584.198975,602.611938 
	C2588.958252,607.264526 2590.376465,612.401489 2588.694092,618.745483 
	C2586.662598,626.405090 2584.571777,634.073364 2583.110107,641.851318 
	C2582.058350,647.447754 2578.947510,651.168152 2573.755615,651.520508 
	C2565.910889,652.052979 2557.959229,651.541992 2550.088867,650.974731 
	C2544.493896,650.571472 2543.245361,646.057861 2543.051514,641.424927 
	C2542.829102,636.101379 2542.717773,630.742798 2543.068604,625.433167 
	C2543.546143,618.210510 2537.191406,612.770203 2531.485352,612.956909 
	C2525.457031,613.154297 2521.027588,618.196594 2521.003418,625.333252 
	C2520.985596,630.499329 2521.017822,635.665649 2520.995605,640.831726 
	C2520.968750,647.060425 2517.820557,651.535583 2511.775391,651.811768 
	C2504.064697,652.164185 2496.193115,651.963440 2488.612305,650.687378 
	C2485.761230,650.207458 2482.220703,646.471985 2481.258301,643.490112 
	C2478.285889,634.280151 2475.937256,624.795166 2474.361572,615.249512 
	C2473.838379,612.078186 2475.422607,607.477661 2477.690186,605.104553 
	C2491.156738,591.012390 2505.022949,577.296875 2518.941162,563.645081 
	C2523.591553,559.083679 2529.719971,558.547546 2536.349121,559.150635 
z"/>
<path fill="#D51149" opacity="1.000000" stroke="none" 
	d="
M347.491760,215.209015 
	C353.199249,218.700577 359.096436,221.386871 363.754456,225.482498 
	C376.987946,237.118210 379.216278,252.238480 373.829498,268.049683 
	C368.495636,283.705475 358.577393,296.182648 342.025116,301.390686 
	C327.413605,305.988037 312.822845,305.126282 299.632996,297.003906 
	C287.790649,289.711334 281.318542,278.498962 279.998169,264.503540 
	C278.624420,249.942734 284.423004,237.866653 294.022369,227.740158 
	C301.037689,220.339584 310.167969,215.957764 320.365692,213.951660 
	C329.417877,212.170929 338.275513,212.826218 347.491760,215.209015 
z"/>
<path fill="#434346" opacity="1.000000" stroke="none" 
	d="
M2694.721680,555.224060 
	C2710.079102,568.873108 2707.286621,599.434509 2690.079102,609.210571 
	C2686.416992,611.291016 2681.901611,612.552246 2677.688477,612.835815 
	C2669.403076,613.393372 2661.053711,613.000000 2652.365723,613.000000 
	C2652.365723,619.854126 2652.365723,626.585205 2652.365723,633.782837 
	C2655.911133,633.782837 2659.648682,633.782837 2663.690918,633.782837 
	C2663.690918,638.967712 2663.690918,643.698181 2663.690918,648.717041 
	C2649.306641,648.717041 2634.914062,648.717041 2620.000000,648.717041 
	C2620.000000,645.391113 2620.196777,642.096863 2619.947754,638.836609 
	C2619.666504,635.154358 2620.971436,633.568237 2624.752686,633.959900 
	C2626.893799,634.181702 2629.076660,634.000000 2631.620117,634.000000 
	C2631.620117,610.177551 2631.620117,586.454834 2631.620117,562.269165 
	C2628.140137,562.269165 2624.405029,562.269165 2620.004639,562.269165 
	C2620.004639,557.899353 2619.744873,553.946716 2620.166748,550.068298 
	C2620.289551,548.937561 2622.346436,547.148071 2623.535156,547.133545 
	C2639.524902,546.937378 2655.533691,546.577271 2671.503174,547.178833 
	C2679.656982,547.486023 2688.192627,548.335999 2694.721680,555.224060 
M2654.698730,563.001221 
	C2653.802246,563.628418 2652.134277,564.243896 2652.124756,564.884705 
	C2651.962891,575.478088 2652.009521,586.074768 2652.009521,597.000000 
	C2657.822021,597.000000 2663.120117,596.883911 2668.411377,597.025269 
	C2678.113037,597.284363 2682.597656,592.608887 2684.800049,584.315674 
	C2687.349854,574.716614 2682.247070,566.048584 2672.368408,563.992859 
	C2666.966309,562.868652 2661.244629,563.280701 2654.698730,563.001221 
z"/>
<path fill="#434346" opacity="1.000000" stroke="none" 
	d="
M2896.793945,547.000000 
	C2906.716553,547.916748 2916.247803,548.551941 2923.082275,556.568298 
	C2927.628662,561.901245 2930.143066,567.860596 2931.183105,574.947571 
	C2932.664307,585.042114 2930.576904,593.994568 2924.911865,602.114136 
	C2920.061768,609.065796 2912.994141,612.684204 2904.525146,612.944397 
	C2896.223633,613.199463 2887.908447,613.000000 2879.300781,613.000000 
	C2879.300781,619.993958 2879.300781,626.725769 2879.300781,633.923584 
	C2883.048340,633.923584 2886.795166,633.923584 2890.760254,633.923584 
	C2890.760254,639.116394 2890.760254,643.847290 2890.760254,648.789551 
	C2876.273926,648.789551 2861.995117,648.789551 2847.019287,648.789551 
	C2847.019287,644.772217 2846.802979,640.667419 2847.177246,636.617065 
	C2847.266357,635.651855 2849.244141,634.308716 2850.500732,634.119324 
	C2853.085693,633.729797 2855.770264,634.002319 2858.705566,634.002319 
	C2858.705566,610.005554 2858.705566,586.271545 2858.705566,562.073730 
	C2854.948486,562.073730 2851.201416,562.073730 2847.670410,562.073730 
	C2847.324707,561.335022 2847.082275,561.053772 2847.073975,560.765869 
	C2846.679688,547.000061 2846.682129,547.000000 2860.317383,547.000000 
	C2872.317139,547.000000 2884.316650,547.000000 2896.793945,547.000000 
M2904.315430,595.135132 
	C2908.796631,593.153748 2910.336182,589.009521 2911.621094,584.828979 
	C2914.009277,577.059326 2909.358398,565.688965 2902.433838,564.382935 
	C2894.835693,562.949890 2886.939209,563.098022 2879.354492,562.569763 
	C2879.354492,574.779175 2879.354492,585.814575 2879.354492,597.603271 
	C2887.759521,596.955505 2895.763672,596.338684 2904.315430,595.135132 
z"/>
<path fill="#434346" opacity="1.000000" stroke="none" 
	d="
M3177.673584,650.313599 
	C3160.831299,650.315918 3145.894775,634.572083 3143.815918,620.406982 
	C3142.127686,608.902832 3143.453369,598.486572 3149.789551,588.668640 
	C3155.663574,579.567078 3164.707764,575.456543 3174.668457,574.210938 
	C3188.338379,572.501343 3200.557373,576.219849 3208.175293,588.818970 
	C3212.885254,596.608643 3213.784180,605.396423 3212.736084,614.777527 
	C3196.013916,614.777527 3179.259277,614.777527 3162.451416,614.777527 
	C3164.309082,628.150208 3171.511230,633.651428 3182.918213,634.589233 
	C3188.275879,635.029724 3194.243408,632.295349 3199.393066,629.856140 
	C3204.849121,627.271851 3205.312500,626.891663 3208.170410,632.510925 
	C3208.245605,632.658630 3208.363037,632.784546 3208.439697,632.931580 
	C3212.884277,641.453491 3212.725586,641.904907 3203.620361,646.053650 
	C3195.489014,649.758423 3187.035156,651.666931 3177.673584,650.313599 
M3190.031738,594.544800 
	C3186.836914,589.417297 3181.809570,587.839844 3176.475342,589.161987 
	C3169.222168,590.959778 3164.814453,596.126831 3162.976074,603.695068 
	C3173.134521,603.695068 3183.000000,603.695068 3193.858398,603.695068 
	C3192.613281,600.422607 3191.598145,597.754395 3190.031738,594.544800 
z"/>
<path fill="#434346" opacity="1.000000" stroke="none" 
	d="
M2740.378418,649.977905 
	C2734.216797,647.058289 2727.816650,644.991760 2722.909180,641.061646 
	C2715.281738,634.953003 2711.691406,626.285950 2710.900391,616.326904 
	C2710.122070,606.528503 2711.299316,597.425415 2716.961670,589.143982 
	C2725.458252,576.717529 2740.970459,571.660950 2754.057617,574.663940 
	C2772.547119,578.906555 2780.000244,589.019104 2779.999756,607.975464 
	C2779.999756,610.116638 2780.000000,612.257751 2780.000000,614.826355 
	C2763.343262,614.826355 2746.941895,614.826355 2730.595947,614.826355 
	C2729.593994,623.283142 2737.702637,632.797363 2746.081787,634.059937 
	C2754.335693,635.303772 2761.667969,633.424316 2768.608887,629.028992 
	C2769.976318,628.163147 2771.870361,628.128662 2773.433838,627.732849 
	C2774.821777,630.641357 2775.810791,633.047852 2777.076416,635.298767 
	C2780.063721,640.612915 2779.932617,641.030518 2774.630859,644.073914 
	C2764.058105,650.142944 2752.826172,652.264893 2740.378418,649.977905 
M2735.492188,594.005737 
	C2732.901855,596.728027 2730.656006,599.592957 2731.218506,603.819946 
	C2741.226318,603.819946 2750.979736,603.819946 2760.775879,603.819946 
	C2757.066895,588.570618 2746.191406,584.094727 2735.492188,594.005737 
z"/>
<path fill="#434346" opacity="1.000000" stroke="none" 
	d="
M3034.341797,645.839600 
	C3033.331543,644.692993 3032.592285,643.789307 3031.858643,642.892517 
	C3022.396973,650.539062 3012.277100,653.122070 3001.078125,649.003540 
	C2990.364990,645.063538 2985.879150,638.937134 2986.969482,624.786621 
	C2987.507568,617.808167 2994.705078,609.262634 3002.708008,608.188354 
	C3009.419434,607.287476 3016.344482,607.974243 3023.174805,607.959900 
	C3024.974121,607.956116 3026.773438,607.959290 3028.526367,607.959290 
	C3029.531006,599.988770 3025.339600,594.752319 3017.592529,595.124329 
	C3009.901855,595.493469 3002.259521,596.874329 2994.696289,598.894409 
	C2994.556885,598.803162 2994.355469,598.744812 2994.287354,598.615845 
	C2988.167725,587.034546 2989.822021,583.532166 3003.246826,580.042542 
	C3011.898926,577.793640 3020.623779,577.234436 3029.485596,578.980896 
	C3038.062012,580.671082 3046.122314,588.409180 3046.885742,597.182617 
	C3047.715332,606.717102 3047.780273,616.325867 3047.965820,625.906311 
	C3048.129395,634.356262 3048.000000,634.358765 3056.999268,635.367615 
	C3056.999268,639.279419 3057.242920,643.270691 3056.864014,647.202026 
	C3056.735840,648.530518 3055.077637,650.739807 3054.040527,650.785889 
	C3047.174072,651.090637 3040.316406,650.797424 3034.341797,645.839600 
M3026.651611,632.053162 
	C3032.638428,629.468933 3028.996582,624.421387 3030.239258,619.546936 
	C3022.920654,620.060547 3016.187500,620.016785 3009.705322,621.272095 
	C3007.480225,621.703003 3005.018311,625.106628 3004.209961,627.644531 
	C3003.093994,631.147949 3005.482910,633.700806 3008.961670,635.021301 
	C3015.132812,637.363831 3020.656250,635.607178 3026.651611,632.053162 
z"/>
<path fill="#434346" opacity="1.000000" stroke="none" 
	d="
M3107.032715,591.000000 
	C3093.430420,588.725098 3082.919434,598.666321 3082.809570,611.612732 
	C3082.689453,625.800476 3091.187012,633.735107 3103.984863,634.800842 
	C3110.800049,635.368469 3117.420898,632.833069 3123.011475,628.495300 
	C3126.434814,625.838989 3128.325684,626.232361 3130.303467,630.520020 
	C3135.153320,641.035828 3135.510742,641.160950 3125.258545,645.906494 
	C3107.305664,654.216614 3090.033203,653.097595 3074.755127,639.991455 
	C3068.098877,634.281372 3064.505859,626.284119 3063.982666,617.208374 
	C3063.414307,607.352539 3064.575195,598.092590 3070.608398,589.695679 
	C3077.706543,579.815613 3087.480225,574.873962 3099.116699,574.215515 
	C3105.675781,573.844360 3112.480713,575.112305 3118.954346,576.600098 
	C3127.380615,578.536682 3134.349609,584.883728 3133.029785,596.001892 
	C3132.818115,597.786133 3133.000000,599.617065 3133.000000,601.708740 
	C3127.317871,601.708740 3121.913818,601.708740 3116.510986,601.708740 
	C3115.200195,592.953735 3114.902100,592.602356 3107.032715,591.000000 
z"/>
<path fill="#434346" opacity="1.000000" stroke="none" 
	d="
M2813.365234,647.981262 
	C2804.666260,644.503174 2798.093750,639.410095 2796.479004,629.928650 
	C2796.011475,627.184082 2796.032959,624.338074 2796.019531,621.537598 
	C2795.969971,611.238159 2796.000000,600.938416 2796.000000,590.183838 
	C2792.385498,590.183838 2788.982910,590.183838 2785.293945,590.183838 
	C2785.293945,585.340820 2785.293945,580.945496 2785.293945,576.088135 
	C2788.705566,576.088135 2792.113770,576.088135 2796.000244,576.088135 
	C2796.000244,570.369995 2796.084229,565.092468 2795.965820,559.819580 
	C2795.903320,557.056030 2796.970947,556.094543 2799.755859,555.942261 
	C2814.996338,555.109253 2814.992920,555.045105 2815.000000,570.306213 
	C2815.000732,571.963013 2815.000000,573.619751 2815.000000,575.734741 
	C2820.192627,575.734741 2825.259033,575.734741 2830.661133,575.734741 
	C2830.661133,580.577393 2830.661133,584.971375 2830.661133,589.828125 
	C2825.712402,589.828125 2820.643555,589.828125 2815.013428,589.828125 
	C2815.013428,601.695068 2814.782959,613.121399 2815.122803,624.530884 
	C2815.265137,629.305664 2821.743408,633.486084 2828.438477,633.984131 
	C2829.752930,634.081848 2831.080566,633.998230 2832.700928,633.998230 
	C2832.700928,638.917297 2832.700928,643.668457 2832.700928,648.534851 
	C2826.345459,651.731812 2820.083008,648.901550 2813.365234,647.981262 
z"/>
<path fill="#434346" opacity="1.000000" stroke="none" 
	d="
M2946.000000,597.000000 
	C2946.000000,585.202820 2946.000000,573.905701 2946.000000,562.770142 
	C2945.480469,562.425842 2945.226074,562.112915 2944.957031,562.099731 
	C2933.988770,561.561890 2933.900146,561.555603 2935.127197,550.414734 
	C2935.263184,549.180786 2937.090820,547.187317 2938.183105,547.153931 
	C2946.957764,546.885681 2955.744141,547.003845 2965.000000,547.003845 
	C2965.000000,549.831055 2965.000000,552.277832 2965.000000,554.724609 
	C2965.000000,577.530640 2964.994873,600.336731 2965.002686,623.142761 
	C2965.005615,632.168884 2966.543701,633.799255 2975.631592,634.130066 
	C2975.631592,638.820862 2975.631592,643.547791 2975.631592,648.353577 
	C2965.046875,652.413879 2949.587891,647.780762 2947.350342,635.668457 
	C2946.430664,630.689819 2946.191650,625.549194 2946.053955,620.471069 
	C2945.846680,612.819153 2946.000000,605.157532 2946.000000,597.000000 
z"/>
<path fill="#434346" opacity="1.000000" stroke="none" 
	d="
M2278.000000,614.999756 
	C2278.000000,601.352600 2277.873047,588.203430 2278.066406,575.059082 
	C2278.137451,570.227173 2277.436768,566.759521 2271.225586,567.998657 
	C2271.225586,564.585388 2271.225586,561.511353 2271.225586,558.000183 
	C2275.196289,558.000183 2278.983887,558.058350 2282.768799,557.984741 
	C2287.041992,557.901672 2289.061523,559.892700 2289.017578,564.184814 
	C2288.950684,570.667236 2289.000000,577.150757 2289.000000,584.080994 
	C2290.495605,583.511963 2291.747314,583.233398 2292.792236,582.608643 
	C2307.606934,573.749573 2327.408447,579.818481 2330.160400,599.412781 
	C2331.683350,610.255676 2330.731445,619.832520 2323.845215,628.831848 
	C2317.230225,637.476501 2298.121826,639.104919 2289.260254,630.055908 
	C2289.102539,631.745056 2288.976318,633.094727 2288.823975,634.722168 
	C2285.429932,634.722168 2282.025146,634.722168 2278.000000,634.722168 
	C2278.000000,628.352417 2278.000000,621.926025 2278.000000,614.999756 
M2318.091309,600.520569 
	C2316.929199,594.530518 2313.167969,590.575195 2307.518799,589.135193 
	C2301.018066,587.478088 2294.495361,590.495789 2291.362305,596.323914 
	C2287.573975,603.371582 2287.955566,610.902344 2291.109375,617.966370 
	C2293.694092,623.756287 2298.560791,626.624695 2305.281250,626.057190 
	C2310.865479,625.585571 2314.509277,622.970154 2317.080078,618.014404 
	C2319.944336,612.492615 2319.343018,606.869751 2318.091309,600.520569 
z"/>
<path fill="#434346" opacity="1.000000" stroke="none" 
	d="
M2357.709961,654.789490 
	C2350.210938,659.493530 2342.967285,659.420715 2335.695801,655.192749 
	C2333.260010,653.776367 2331.781006,652.357971 2334.596924,649.688232 
	C2335.807861,648.540344 2336.297852,646.631897 2337.259277,644.793762 
	C2338.678711,645.445801 2339.919434,645.799377 2340.906494,646.507080 
	C2344.954346,649.408691 2348.666504,648.468872 2352.008789,645.453125 
	C2356.541992,641.362488 2357.532959,634.866211 2355.044189,629.134705 
	C2349.895020,617.276306 2344.977295,605.316162 2339.698486,593.517029 
	C2338.870361,591.666443 2336.642578,590.442078 2334.160400,589.619019 
	C2334.160400,586.647095 2334.160400,583.675171 2334.160400,580.012451 
	C2337.548096,580.012451 2341.120850,579.418518 2344.332031,580.239807 
	C2346.196533,580.716675 2348.062012,583.216797 2348.928223,585.235107 
	C2353.698486,596.351562 2358.160889,607.600159 2363.132568,619.793518 
	C2365.227783,614.424561 2367.184326,609.652222 2368.956055,604.812195 
	C2371.395752,598.147034 2373.631592,591.407104 2376.083008,584.746399 
	C2377.242920,581.594910 2379.166748,579.432739 2383.090332,579.941711 
	C2385.516357,580.256348 2388.016357,580.000000 2390.739258,580.000000 
	C2390.739258,583.258057 2390.739258,586.197266 2390.739258,589.136536 
	C2390.446045,588.933167 2390.152588,588.729797 2389.859375,588.526428 
	C2388.238037,590.874268 2386.146240,593.025879 2385.071289,595.601746 
	C2377.918213,612.737244 2371.096436,630.011719 2363.862305,647.112244 
	C2362.678467,649.910278 2359.988037,652.071106 2357.709961,654.789490 
z"/>
<path fill="#434346" opacity="1.000000" stroke="none" 
	d="
M2571.000000,538.941162 
	C2570.302246,542.696838 2570.021240,546.161011 2568.834717,549.280884 
	C2563.676270,562.843872 2549.024414,561.327515 2542.163086,552.405762 
	C2534.997803,543.089172 2531.973633,532.485168 2535.779541,520.521423 
	C2537.716309,514.434143 2541.516846,510.506287 2547.297852,509.176331 
	C2553.593262,507.727997 2558.868164,511.212830 2562.800293,515.648743 
	C2568.458984,522.032532 2570.441162,530.091003 2571.000000,538.941162 
z"/>
<path fill="#434346" opacity="1.000000" stroke="none" 
	d="
M2499.860352,556.365479 
	C2491.953369,549.083435 2490.944580,535.232727 2495.957520,524.711548 
	C2498.035889,520.349426 2501.090576,516.040405 2504.737061,512.915894 
	C2515.083496,504.050507 2526.661865,510.629333 2528.728271,523.245361 
	C2530.631348,534.864441 2528.542236,546.114380 2518.897705,554.698914 
	C2513.343750,559.642700 2507.054199,560.546509 2499.860352,556.365479 
z"/>
<path fill="#434346" opacity="1.000000" stroke="none" 
	d="
M2596.853027,558.638794 
	C2598.822754,566.960144 2597.833008,574.444092 2593.819336,581.597900 
	C2591.195068,586.274597 2587.537109,589.028809 2582.079590,588.986267 
	C2576.671631,588.944153 2573.079346,585.700623 2571.205811,581.210510 
	C2567.091797,571.351379 2568.140381,561.551453 2574.616455,553.111816 
	C2579.608643,546.606262 2588.570068,545.257446 2594.947021,554.812317 
	C2595.658936,555.879028 2596.144775,557.096680 2596.853027,558.638794 
z"/>
<path fill="#434346" opacity="1.000000" stroke="none" 
	d="
M2481.116943,588.996948 
	C2470.421631,585.539429 2463.621338,573.319336 2466.668457,562.907532 
	C2467.884033,558.753418 2469.393799,554.039307 2472.324463,551.165527 
	C2478.736816,544.877869 2487.301270,547.539001 2491.917480,557.043457 
	C2495.739014,564.911499 2496.234375,572.985535 2492.385254,581.399963 
	C2490.058105,586.487976 2486.343018,588.188049 2481.116943,588.996948 
z"/>
<path fill="#434346" opacity="1.000000" stroke="none" 
	d="
M3226.000977,631.469849 
	C3228.348389,623.604919 3233.388916,619.460999 3240.631836,619.007568 
	C3245.931152,618.675781 3253.191162,622.742554 3254.915771,628.128845 
	C3257.680664,636.765198 3256.738770,644.727905 3247.506104,649.151123 
	C3239.927246,652.781921 3230.402832,649.506592 3227.017578,641.528442 
	C3225.812256,638.688049 3226.290283,635.133179 3226.000977,631.469849 
M3234.712158,623.843323 
	C3225.056152,631.685120 3227.471924,639.833496 3233.450684,644.916260 
	C3238.031250,648.810303 3242.897461,649.026428 3247.803223,645.663940 
	C3252.442871,642.483826 3254.632080,636.611267 3253.008545,631.699402 
	C3250.310791,623.538086 3244.603027,620.827454 3234.712158,623.843323 
z"/>
<path fill="#FFFFFF" opacity="1.000000" stroke="none" 
	d="
M3249.185547,365.455811 
	C3246.506592,355.429810 3246.334229,346.061554 3249.794678,336.354523 
	C3257.098877,315.863068 3279.523682,304.514618 3299.804443,310.399689 
	C3317.421631,315.511780 3328.264404,328.834656 3330.004883,346.837860 
	C3332.214844,369.695557 3318.387939,387.604980 3296.986328,392.839844 
	C3279.643066,397.082062 3260.038574,387.103943 3251.996826,371.012878 
	C3251.129395,369.277130 3250.222412,367.561218 3249.185547,365.455811 
M3280.000488,360.712128 
	C3280.617188,359.811737 3281.314209,358.095490 3281.837158,358.147003 
	C3284.644287,358.423798 3288.192139,358.257874 3290.026123,359.886658 
	C3294.016357,363.430084 3297.415039,367.762604 3300.501465,372.161194 
	C3302.941406,375.638214 3305.567383,377.316528 3309.351074,375.019135 
	C3312.045166,373.383301 3311.653564,368.615326 3308.868408,365.389679 
	C3306.298828,362.413330 3303.659668,359.496765 3301.007568,356.504822 
	C3309.150879,352.473602 3311.620361,347.960175 3310.999023,338.542145 
	C3310.628906,332.926941 3306.649170,327.668671 3299.928467,326.642365 
	C3291.516846,325.357788 3282.890869,325.279541 3274.350342,325.152283 
	C3271.669189,325.112335 3269.849121,326.887299 3269.908936,330.399841 
	C3270.134766,343.705078 3270.035645,357.016602 3269.974365,370.325409 
	C3269.959717,373.525818 3270.576904,376.014771 3274.446533,375.988068 
	C3278.277100,375.961639 3280.043701,373.911377 3280.005371,370.145782 
	C3279.976807,367.317902 3280.000000,364.489502 3280.000488,360.712128 
z"/>
<path fill="#FFFFFF" opacity="1.000000" stroke="none" 
	d="
M1171.000000,95.000000 
	C1183.087280,95.333527 1194.745728,94.977837 1206.244873,96.164879 
	C1222.782715,97.872055 1238.520752,102.835442 1250.860840,114.569748 
	C1261.319580,124.514999 1266.524048,137.181290 1268.198608,151.742233 
	C1269.726562,165.028488 1267.897827,177.491806 1261.861084,189.078903 
	C1253.277588,205.553909 1238.980713,215.410843 1221.546875,220.973038 
	C1209.994263,224.658875 1198.102051,225.197983 1186.054688,225.070999 
	C1162.919067,224.827118 1139.778931,225.000000 1116.320801,225.000000 
	C1116.320801,181.725525 1116.320801,138.674469 1116.320801,95.000000 
	C1134.324585,95.000000 1152.412354,95.000000 1171.000000,95.000000 
z"/>
<path fill="#FFFFFF" opacity="1.000000" stroke="none" 
	d="
M896.000000,186.000000 
	C896.000000,212.787323 896.000000,239.074646 896.000000,265.680664 
	C857.073608,265.680664 818.372498,265.680664 778.785706,265.680664 
	C817.709351,218.963211 856.358521,172.575134 896.000000,124.996124 
	C896.000000,146.132690 896.000000,165.816345 896.000000,186.000000 
z"/>
<path fill="#FFFFFF" opacity="1.000000" stroke="none" 
	d="
M1421.250977,203.357925 
	C1432.579102,187.001221 1447.730469,176.570770 1467.039185,174.286301 
	C1486.158325,172.024277 1504.497437,175.127884 1519.969360,188.379410 
	C1534.963623,201.221863 1542.348633,217.769348 1545.017212,236.872116 
	C1545.325073,239.075714 1545.819092,241.253281 1546.287842,243.770569 
	C1499.283203,243.770569 1452.859863,243.770569 1406.299683,243.770569 
	C1408.308960,229.274033 1413.477905,216.033020 1421.250977,203.357925 
z"/>
<path fill="#FFFFFF" opacity="1.000000" stroke="none" 
	d="
M2283.269043,293.350830 
	C2290.183350,279.794891 2301.630615,272.156738 2314.970703,267.139832 
	C2325.573975,263.152161 2336.661865,261.499817 2348.059814,260.869873 
	C2377.364014,259.250366 2405.697510,264.335754 2433.769531,271.874603 
	C2434.691650,272.122192 2435.672607,272.148712 2437.072998,272.339020 
	C2436.383301,287.512421 2438.672607,302.694183 2433.278076,317.481750 
	C2427.034424,334.597015 2415.727295,347.105103 2400.292236,356.331116 
	C2387.069580,364.234863 2372.655273,368.645477 2357.586182,370.896973 
	C2337.827393,373.849182 2318.885986,370.670502 2302.059814,359.833069 
	C2287.135254,350.220367 2277.769043,336.734863 2277.893555,317.888000 
	C2277.950195,309.347137 2279.071045,301.261810 2283.269043,293.350830 
z"/>
<path fill="#FFFFFF" opacity="1.000000" stroke="none" 
	d="
M2655.182861,563.000610 
	C2661.244629,563.280701 2666.966309,562.868652 2672.368408,563.992859 
	C2682.247070,566.048584 2687.349854,574.716614 2684.800049,584.315674 
	C2682.597656,592.608887 2678.113037,597.284363 2668.411377,597.025269 
	C2663.120117,596.883911 2657.822021,597.000000 2652.009521,597.000000 
	C2652.009521,586.074768 2651.962891,575.478088 2652.124756,564.884705 
	C2652.134277,564.243896 2653.802246,563.628418 2655.182861,563.000610 
z"/>
<path fill="#FFFFFF" opacity="1.000000" stroke="none" 
	d="
M2904.041504,595.428467 
	C2895.763672,596.338684 2887.759521,596.955505 2879.354492,597.603271 
	C2879.354492,585.814575 2879.354492,574.779175 2879.354492,562.569763 
	C2886.939209,563.098022 2894.835693,562.949890 2902.433838,564.382935 
	C2909.358398,565.688965 2914.009277,577.059326 2911.621094,584.828979 
	C2910.336182,589.009521 2908.796631,593.153748 2904.041504,595.428467 
z"/>
<path fill="#FFFFFF" opacity="1.000000" stroke="none" 
	d="
M3190.307373,594.815430 
	C3191.598145,597.754395 3192.613281,600.422607 3193.858398,603.695068 
	C3183.000000,603.695068 3173.134521,603.695068 3162.976074,603.695068 
	C3164.814453,596.126831 3169.222168,590.959778 3176.475342,589.161987 
	C3181.809570,587.839844 3186.836914,589.417297 3190.307373,594.815430 
z"/>
<path fill="#FFFFFF" opacity="1.000000" stroke="none" 
	d="
M2735.756836,593.737793 
	C2746.191406,584.094727 2757.066895,588.570618 2760.775879,603.819946 
	C2750.979736,603.819946 2741.226318,603.819946 2731.218506,603.819946 
	C2730.656006,599.592957 2732.901855,596.728027 2735.756836,593.737793 
z"/>
<path fill="#FFFFFF" opacity="1.000000" stroke="none" 
	d="
M3026.328613,632.286011 
	C3020.656250,635.607178 3015.132812,637.363831 3008.961670,635.021301 
	C3005.482910,633.700806 3003.093994,631.147949 3004.209961,627.644531 
	C3005.018311,625.106628 3007.480225,621.703003 3009.705322,621.272095 
	C3016.187500,620.016785 3022.920654,620.060547 3030.239258,619.546936 
	C3028.996582,624.421387 3032.638428,629.468933 3026.328613,632.286011 
z"/>
<path fill="#FFFFFF" opacity="1.000000" stroke="none" 
	d="
M2318.365234,600.827759 
	C2319.343018,606.869751 2319.944336,612.492615 2317.080078,618.014404 
	C2314.509277,622.970154 2310.865479,625.585571 2305.281250,626.057190 
	C2298.560791,626.624695 2293.694092,623.756287 2291.109375,617.966370 
	C2287.955566,610.902344 2287.573975,603.371582 2291.362305,596.323914 
	C2294.495361,590.495789 2301.018066,587.478088 2307.518799,589.135193 
	C2313.167969,590.575195 2316.929199,594.530518 2318.365234,600.827759 
z"/>
<path fill="#FFFFFF" opacity="1.000000" stroke="none" 
	d="
M3234.978271,623.553528 
	C3244.603027,620.827454 3250.310791,623.538086 3253.008545,631.699402 
	C3254.632080,636.611267 3252.442871,642.483826 3247.803223,645.663940 
	C3242.897461,649.026428 3238.031250,648.810303 3233.450684,644.916260 
	C3227.471924,639.833496 3225.056152,631.685120 3234.978271,623.553528 
M3239.045410,638.891479 
	C3240.273438,639.340332 3241.601318,639.621521 3242.705322,640.278748 
	C3244.243408,641.194397 3245.614502,642.391357 3247.054443,643.466248 
	C3247.407959,638.909607 3248.147705,635.062561 3247.784668,631.322571 
	C3247.633545,629.764832 3245.345703,627.647217 3243.648682,627.185852 
	C3241.066650,626.484070 3238.153076,627.002197 3235.001953,627.002197 
	C3235.001953,631.560120 3234.882568,635.674194 3235.083740,639.772400 
	C3235.135986,640.837036 3236.190674,641.852539 3236.784912,642.890564 
	C3237.524658,641.820190 3238.264404,640.749817 3239.045410,638.891479 
z"/>
<path fill="#434346" opacity="1.000000" stroke="none" 
	d="
M3280.000244,361.186707 
	C3280.000000,364.489502 3279.976807,367.317902 3280.005371,370.145782 
	C3280.043701,373.911377 3278.277100,375.961639 3274.446533,375.988068 
	C3270.576904,376.014771 3269.959717,373.525818 3269.974365,370.325409 
	C3270.035645,357.016602 3270.134766,343.705078 3269.908936,330.399841 
	C3269.849121,326.887299 3271.669189,325.112335 3274.350342,325.152283 
	C3282.890869,325.279541 3291.516846,325.357788 3299.928467,326.642365 
	C3306.649170,327.668671 3310.628906,332.926941 3310.999023,338.542145 
	C3311.620361,347.960175 3309.150879,352.473602 3301.007568,356.504822 
	C3303.659668,359.496765 3306.298828,362.413330 3308.868408,365.389679 
	C3311.653564,368.615326 3312.045166,373.383301 3309.351074,375.019135 
	C3305.567383,377.316528 3302.941406,375.638214 3300.501465,372.161194 
	C3297.415039,367.762604 3294.016357,363.430084 3290.026123,359.886658 
	C3288.192139,358.257874 3284.644287,358.423798 3281.837158,358.147003 
	C3281.314209,358.095490 3280.617188,359.811737 3280.000244,361.186707 
M3280.000000,340.573883 
	C3280.000000,343.650970 3280.000000,346.728058 3280.000000,350.469055 
	C3285.525879,349.901154 3290.416748,349.721252 3295.166016,348.806824 
	C3298.868408,348.093933 3301.048096,345.117157 3300.638428,341.384583 
	C3300.236572,337.721466 3297.819336,335.174835 3293.831787,335.037048 
	C3289.403320,334.884064 3284.965088,335.002045 3280.219971,335.002045 
	C3280.136963,336.744812 3280.068359,338.178375 3280.000000,340.573883 
z"/>
<path fill="#434346" opacity="1.000000" stroke="none" 
	d="
M3239.024902,639.285461 
	C3238.264404,640.749817 3237.524658,641.820190 3236.784912,642.890564 
	C3236.190674,641.852539 3235.135986,640.837036 3235.083740,639.772400 
	C3234.882568,635.674194 3235.001953,631.560120 3235.001953,627.002197 
	C3238.153076,627.002197 3241.066650,626.484070 3243.648682,627.185852 
	C3245.345703,627.647217 3247.633545,629.764832 3247.784668,631.322571 
	C3248.147705,635.062561 3247.407959,638.909607 3247.054443,643.466248 
	C3245.614502,642.391357 3244.243408,641.194397 3242.705322,640.278748 
	C3241.601318,639.621521 3240.273438,639.340332 3239.024902,639.285461 
z"/>
<path fill="#FFFFFF" opacity="1.000000" stroke="none" 
	d="
M3280.000000,340.092896 
	C3280.068359,338.178375 3280.136963,336.744812 3280.219971,335.002045 
	C3284.965088,335.002045 3289.403320,334.884064 3293.831787,335.037048 
	C3297.819336,335.174835 3300.236572,337.721466 3300.638428,341.384583 
	C3301.048096,345.117157 3298.868408,348.093933 3295.166016,348.806824 
	C3290.416748,349.721252 3285.525879,349.901154 3280.000000,350.469055 
	C3280.000000,346.728058 3280.000000,343.650970 3280.000000,340.092896 
z"/>
</svg>