<svg viewBox="0 0 800.39 164.15" xmlns="http://www.w3.org/2000/svg"><path d="m458.28 91.54-20.02-55.17c-.41-.82-.82-1.63-.82-2.86 0-2.45 2.04-4.5 4.9-4.5 2.45 0 4.09 1.63 4.9 4.09l16.35 49.04 16.76-49.45c.82-2.45 2.45-4.09 4.9-4.09h.41c2.45 0 4.5 1.63 4.9 4.09l16.35 49.45 16.76-49.45c.82-2.04 2.04-3.68 4.5-3.68 2.86 0 4.9 2.04 4.9 4.5 0 .82-.41 2.04-.82 2.86l-20.02 55.58c-.82 2.86-2.86 4.5-5.31 4.5h.41c-2.45 0-4.5-1.63-5.31-4.5l-16.35-47.81-16.35 47.81c-.82 2.86-2.86 4.5-5.31 4.5h-.41c-2.04-.41-4.09-2.04-5.31-4.9" fill="#6d6e71"/><path d="m536.33 76.01c0-13.89 11.44-21.25 27.79-21.25 8.17 0 14.3 1.23 20.02 2.86v-2.45c0-11.85-7.36-17.98-19.62-17.98-6.54 0-12.26 1.63-17.16 3.68-.82.41-1.23.41-1.63.41-2.45 0-4.5-2.04-4.5-4.09s1.23-3.68 2.45-4.09c6.54-2.86 13.08-4.5 21.25-4.5 9.4 0 16.35 2.45 21.25 7.36 4.5 4.5 6.54 10.63 6.54 19.21v35.96c0 2.86-2.04 4.9-4.5 4.9-2.86 0-4.5-2.04-4.5-4.5v-6.13c-4.5 6.13-12.26 11.44-23.7 11.44-11.44-.41-23.7-7.36-23.7-20.84m48.24-4.89v-6.13c-4.9-1.23-11.44-2.86-19.21-2.86-12.26 0-19.21 5.31-19.21 13.49v.41c0 8.17 7.76 13.08 16.35 13.08 12.26-.41 22.07-7.76 22.07-17.98" fill="#6d6e71"/><path d="m609.9 77.65v-39.64h-5.31c-2.45 0-4.5-2.04-4.5-4.5s2.04-4.5 4.5-4.5h5.31v-15.53c0-2.45 2.04-4.9 4.9-4.9 2.45 0 4.9 2.45 4.9 4.9v15.53h17.16c2.45 0 4.5 2.04 4.5 4.5s-2.04 4.5-4.5 4.5h-17.16v38.41c0 8.17 4.5 11.03 11.03 11.03 3.27 0 5.31-.82 6.13-.82 2.45 0 4.09 2.04 4.09 4.09 0 1.63-1.23 3.27-2.86 3.68-2.86 1.23-5.72 1.63-9.81 1.63-10.22 0-18.39-4.9-18.39-18.39" fill="#6d6e71"/><path d="m644.22 62.53c0-18.8 14.3-34.33 33.51-34.33 11.03 0 18.39 4.09 24.11 9.4.82.82 1.63 2.04 1.63 3.27 0 2.86-2.04 4.5-4.5 4.5-1.23 0-2.45-.41-3.27-1.23-4.5-4.5-9.81-7.76-17.98-7.76-13.49 0-23.29 11.44-23.29 25.34v.41c0 14.3 10.22 25.34 24.11 25.34 7.36 0 13.49-3.27 18.39-8.17.82-.82 1.63-1.23 2.86-1.23 2.45 0 4.5 2.04 4.5 4.5 0 1.23-.41 2.45-1.23 2.86-6.13 6.13-13.49 10.63-24.52 10.63-20.02.41-34.33-15.12-34.33-33.51" fill="#6d6e71"/><path d="m712.88 6.95c0-2.86 2.04-4.9 4.9-4.9s4.9 2.45 4.9 4.9v33.92c4.5-6.95 11.03-12.67 22.48-12.67 15.94 0 24.93 10.63 24.93 26.15v36.37c0 2.86-2.04 4.9-4.9 4.9s-4.9-2.04-4.9-4.9v-33.92c0-12.26-6.54-19.62-17.98-19.62s-19.62 8.17-19.62 20.43v33.1c0 2.86-2.04 4.9-4.9 4.9s-4.9-2.04-4.9-4.9v-83.76z" fill="#6d6e71"/><path d="m106.41 80.92 26.97-22.89c11.85-10.22 16.35-15.53 16.35-23.7 0-8.58-6.13-13.49-13.89-13.49-6.95 0-11.85 3.27-17.16 9.81-1.23 1.23-2.86 2.45-5.31 2.45-3.68 0-6.95-3.27-6.95-6.95 0-1.63.82-3.27 1.63-4.9 6.95-8.99 15.12-13.89 29.02-13.89 17.16 0 28.61 10.63 28.61 26.15v.41c0 13.89-7.36 21.25-22.89 33.92l-17.98 15.12h35.55c3.68 0 6.54 2.86 6.54 6.54s-2.86 6.54-6.54 6.54h-49.45c-4.9 0-8.17-2.86-8.17-7.36-.41-3.27.82-5.72 3.68-7.76" fill="#414042"/><path d="m214.71 76.42h-38.82c-4.09 0-7.36-2.86-7.36-7.36 0-2.86 1.23-5.31 3.27-8.17l40.87-48.63c2.86-3.27 4.9-4.9 9.4-4.9 4.09 0 7.36 3.27 7.36 7.36v49.04h6.54c3.68 0 6.54 2.86 6.54 6.54s-2.86 6.13-6.54 6.13h-6.54v13.08c0 4.09-3.27 7.36-7.36 7.36s-7.36-3.27-7.36-7.36v-13.08zm0-12.67v-34.33l-28.61 34.33z" fill="#414042"/><path d="m252.31 16.35c0-4.5 3.27-7.76 7.76-7.76h26.56c20.43 0 33.1 11.44 33.1 29.02v.41c0 19.62-15.53 29.83-34.74 29.83h-17.16v21.25c0 4.09-3.27 7.76-7.76 7.76s-7.76-3.27-7.76-7.76zm33.1 37.59c11.44 0 18.8-6.54 18.8-15.53v-.41c0-10.22-7.36-15.53-18.8-15.53h-17.98v31.47z" fill="#414042"/><path d="m355.7 97.26c-19.21 0-33.92-13.89-33.92-34.33v-.41c0-18.8 13.49-34.33 32.28-34.33 20.84 0 31.47 17.16 31.47 32.28 0 4.09-3.27 7.36-6.95 7.36h-41.28c1.63 10.63 9.4 16.76 18.8 16.76 6.54 0 11.44-2.04 15.53-5.72 1.23-.82 2.04-1.23 3.68-1.23 3.27 0 6.13 2.45 6.13 6.13 0 2.04-.82 3.68-2.04 4.5-6.13 5.72-13.49 8.99-23.7 8.99m15.12-38.82c-.82-9.81-6.54-17.16-16.76-17.16-9.4 0-15.53 6.95-17.16 17.16z" fill="#414042"/><path d="m396.57 77.65v-34.74h-2.45c-3.68 0-6.54-2.86-6.54-6.54s2.86-6.54 6.54-6.54h2.45v-11.03c0-4.09 3.27-7.36 7.76-7.36 4.09 0 7.36 3.27 7.36 7.36v11.03h11.85c3.68 0 6.54 2.86 6.54 6.54s-2.86 6.54-6.54 6.54h-11.85v32.28c0 5.72 2.86 8.17 8.17 8.17 1.63 0 3.27-.41 3.68-.41 3.27 0 6.54 2.86 6.54 6.13 0 2.86-2.04 4.9-4.09 5.72-3.27 1.23-6.54 1.63-10.22 1.63-11.44.41-19.21-4.5-19.21-18.8" fill="#414042"/><path d="m68.82 56.4c-4.5 6.54-.41 13.89 4.9 15.53 6.13 1.63 11.44 0 14.71-6.13 2.45-4.09 1.63-9.4-2.04-12.26-5.31-4.5-13.89-2.86-17.57 2.86" fill="#d51149"/><path d="m10.38 12.26c-3.68 5.31-2.45 14.3 4.09 17.98 2.86 1.63 8.58.82 10.63-.82 3.68-3.27 5.31-7.36 4.5-12.26-.82-4.5-4.5-8.58-8.58-9.4s-8.17.82-10.63 4.5" fill="#d51149"/><path d="m85.16 37.19c.41-.41.82-1.23.82-1.63 2.04-4.5 2.04-8.99-.82-13.08s-6.95-5.31-11.85-4.5c-6.13.82-11.44 6.54-12.26 13.08-.82 6.95 4.5 13.08 11.44 13.08 5.72-.41 9.81-2.86 12.67-6.95" fill="#d51149"/><path d="m58.19 20.43c1.63-2.45 2.45-5.72 2.04-9.4-.82-4.9-3.27-8.58-7.76-10.22-4.5-1.63-8.58-.81-11.85 2.46-4.5 4.09-6.13 8.99-4.9 15.12.82 4.09 3.27 6.95 6.95 8.58 5.31 2.04 11.44-.41 15.53-6.54" fill="#d51149"/><path d="m56.15 87.46c-1.23 1.63-3.27 3.27-5.72 4.09s-4.9.41-7.36-.82c-2.45-1.23-4.5-3.27-6.54-5.31-2.86-2.86-5.31-6.54-7.36-9.81-.82-1.23-2.04-2.86-3.68-3.68-1.23-.82-2.86-1.23-4.5-1.63-2.86-.82-5.72-1.63-8.58-2.86s-5.72-2.45-8.17-4.5c-2.04-1.63-3.68-3.27-4.09-6.13-.41-2.04 0-4.09.82-5.72 1.23-2.45 3.27-4.5 5.31-6.13 2.45-1.63 4.9-3.27 7.76-4.9 6.13-2.86 12.26-4.9 19.21-5.72 2.86-.41 5.31-.41 8.17 0 2.45.41 4.5 1.23 6.54 2.04 4.09 2.04 6.95 4.9 8.99 8.58s2.86 7.76 3.68 11.85c.41 3.68.82 7.36.41 10.63-.41 5.31-.82 10.22-2.45 15.12-.41 1.63-.82 2.86-2.45 4.9" fill="#d51149"/><g fill="#434346"><path d="m613.67 133.74c-2.2.56-4.66-1.6-5.43-4.79-.82-3.19.35-6.25 2.54-6.81s4.66 1.6 5.43 4.79c.82 3.19-.35 6.25-2.54 6.81"/><path d="m619.11 140.94c-1.81-.17-3.06-2.46-2.76-5.09.26-2.63 1.98-4.61 3.8-4.4 1.81.17 3.06 2.46 2.76 5.09s-1.98 4.61-3.8 4.4"/><path d="m604.18 135.25c.82-.82 1.98-1.25 3.06-1.29h.04c1.08.04 2.24.47 3.06 1.29l9.92 9.92c.6.6.82 1.47.65 2.29l-1.6 6.69c-.26 1.08-1.21 1.85-2.33 1.85h-4.74c-1.21 0-2.2-.99-2.2-2.2v-4.31c0-1.55-1.25-2.76-2.76-2.8-1.55 0-2.76 1.25-2.76 2.8v4.31c0 1.21-.99 2.2-2.2 2.2h-4.79c-1.12 0-2.07-.78-2.33-1.85l-1.6-6.69c-.22-.82.04-1.68.65-2.29l9.92-9.92z"/><path d="m600.86 133.74c-2.2-.56-3.32-3.58-2.54-6.81.82-3.19 3.23-5.35 5.43-4.79s3.32 3.58 2.54 6.81c-.82 3.19-3.23 5.35-5.43 4.79"/><path d="m594.44 131.41c1.81-.17 3.49 1.77 3.8 4.4.26 2.63-.95 4.92-2.76 5.09s-3.49-1.77-3.8-4.4c-.3-2.59.95-4.87 2.76-5.09"/><path d="m639.72 143.23c.99 0 1.81-.17 2.46-.47 1.34-.65 1.98-2.03 1.98-3.8s-.65-2.98-1.77-3.62c-.65-.39-1.51-.56-2.63-.56h-3.8v8.45h3.75zm-10.95 8.84h2.72v-17.51h-2.72c-.09 0-.17-.09-.17-.17v-2.98c0-.09.09-.17.17-.17h11.43c1.47 0 2.89.09 4.1.6 2.63 1.08 4.31 3.75 4.31 7.16s-1.77 6.38-4.61 7.38c-1.12.39-2.37.47-3.71.47h-4.31v5.26h2.76c.09 0 .17.09.17.17v2.98c0 .09-.09.17-.17.17h-9.92c-.09 0-.17-.09-.17-.17v-2.98c-.04-.13.04-.22.13-.22"/><path d="m662.32 144.78c-.09-2.42-1.51-3.84-3.36-3.84-2.2 0-3.8 1.51-4.18 3.84h7.55zm-3.27-7.16c5 0 7.76 3.67 7.76 8.24 0 .26 0 .6-.04.91l-.09.56h-12.03c.26 3.19 2.59 4.83 5.22 4.83 1.47 0 2.67-.39 3.58-.91.47-.22.91-.52 1.29-.78.09-.09.22-.04.3.04l1.51 2.72c.04.09.04.17-.04.26-.47.39-1.08.73-1.77 1.08-1.21.65-2.98 1.21-5.13 1.21-5.78 0-9.36-4.18-9.36-9.1-.04-5.3 3.58-9.06 8.8-9.06"/><path d="m670.73 141.25h-2.46c-.09 0-.17-.09-.17-.17v-2.85c0-.09.09-.17.17-.17h2.59v-4.57c0-.09.09-.17.17-.17h3.8c.09 0 .17.09.17.17v4.57h3.75c.09 0 .17.09.17.17v2.85c0 .09-.09.17-.17.17h-3.75v7.33c0 3.02 2.24 3.36 3.49 3.36.13 0 .39 0 .6-.04.13 0 .22.09.22.17v3.19c0 .09-.09.17-.17.17-.22.04-.65.09-1.16.09-2.46.04-7.29-.73-7.29-6.56l.04-7.72z"/><path d="m694.2 143.23c.99 0 1.81-.17 2.46-.47 1.34-.65 1.98-2.03 1.98-3.8s-.65-2.98-1.77-3.62c-.65-.39-1.51-.56-2.63-.56h-3.8v8.45h3.75zm-10.96 8.84h2.72v-17.51h-2.72c-.09 0-.17-.09-.17-.17v-2.98c0-.09.09-.17.17-.17h11.43c1.47 0 2.89.09 4.1.6 2.63 1.08 4.31 3.75 4.31 7.16s-1.77 6.38-4.61 7.38c-1.12.39-2.37.47-3.71.47h-4.31v5.26h2.76c.09 0 .17.09.17.17v2.98c0 .09-.09.17-.17.17h-9.92c-.09 0-.17-.09-.17-.17v-2.98c-.04-.13.04-.22.13-.22"/><path d="m706.83 134.43h-2.5c-.09 0-.17-.09-.17-.17v-2.85c0-.09.09-.17.17-.17h6.81v18.42c0 1.6.3 2.37 1.77 2.37.13 0 .43 0 .6-.04.13 0 .22.09.22.17v3.11c0 .09-.09.17-.17.17-.26.04-.73.09-1.38.09-2.76 0-5.3-.91-5.3-5.65v-15.44h-.04z"/><path d="m744.27 137.62c2.89 0 7.12 1.08 7.12 4.18v2.2c0 .09-.09.17-.17.17h-3.36c-.09 0-.17-.09-.17-.17v-.95c0-1.21-1.77-1.73-3.23-1.73-3.19 0-5.13 2.2-5.13 5.35 0 3.58 2.5 5.52 5.48 5.52 2.33 0 4.23-1.21 5.26-1.98.09-.09.22-.04.3.09l1.38 2.72c.04.09.04.17-.04.22-1.25 1.12-3.84 2.59-7.12 2.59-5.09 0-9.57-3.49-9.57-9.06-.04-5.18 3.92-9.14 9.27-9.14"/><path d="m766.14 144.78c-.09-2.42-1.51-3.84-3.36-3.84-2.2 0-3.8 1.51-4.18 3.84h7.55zm-3.28-7.16c5 0 7.76 3.67 7.76 8.24 0 .26 0 .6-.04.91l-.09.56h-12.03c.26 3.19 2.59 4.83 5.22 4.83 1.47 0 2.67-.39 3.58-.91.47-.22.91-.52 1.29-.78.09-.09.22-.04.3.04l1.51 2.72c.04.09.04.17-.04.26-.47.39-1.08.73-1.77 1.08-1.21.65-2.98 1.21-5.13 1.21-5.78 0-9.36-4.18-9.36-9.1-.04-5.3 3.58-9.06 8.8-9.06"/><path d="m725.08 152.16c-.65.26-1.38.39-2.2.39s-1.42-.22-1.81-.6c-.43-.39-.65-.91-.65-1.51 0-.35.09-.6.22-.86s.3-.47.52-.6c.22-.17.47-.3.73-.39s.52-.13.82-.13h4.14v2.63l-.13.09c-.43.39-.99.73-1.64.99m7.37.03c-.78 0-1.25-.26-1.51-.73v-6.47c0-1.16-.17-2.2-.52-3.02s-.82-1.47-1.42-1.98c-.6-.52-1.34-.86-2.16-1.08-.86-.22-1.81-.35-2.8-.35-1.29 0-2.54.22-3.71.6-1.04.35-2.03.86-3.02 1.47-.09.04-.13.17-.09.26l1.12 2.37c.04.09.17.13.26.09.6-.3 1.21-.52 1.85-.69.78-.22 1.73-.3 2.72-.3.52 0 .99.04 1.38.13.43.09.82.26 1.16.47.35.22.6.52.78.86s.26.78.26 1.25v.91l-.26-.04c-.52-.13-1.12-.22-1.73-.3s-1.29-.13-2.03-.13c-.99 0-1.9.13-2.67.39-.78.26-1.42.6-1.94 1.08-.52.43-.91.99-1.21 1.6-.26.65-.43 1.34-.43 2.07s.13 1.42.39 2.03.65 1.16 1.16 1.64 1.16.82 1.9 1.08c.73.26 1.64.39 2.59.39.39 0 .73-.04 1.04-.09.3-.04.6-.13.91-.22s.6-.22.91-.39.65-.39.99-.6l.43-.3.47-.3c.99 1.51 2.63 1.9 4.4 1.9.69 0 1.16-.04 1.42-.09.09 0 .17-.09.17-.17v-3.19c0-.13-.09-.22-.22-.17-.17.04-.43.04-.6.04"/><text font-family="Museo-500, Museo" font-size="26.17" transform="translate(544.21 152.25)"><tspan letter-spacing="-.01em" x="0" y="0">b</tspan><tspan x="15.44" y="0">y</tspan></text><path d="m773.86 152.14v-.02c0-1.96 1.59-3.61 3.59-3.61s3.59 1.63 3.59 3.59v.02c0 1.96-1.59 3.61-3.59 3.61s-3.59-1.63-3.59-3.59zm6.77-.02v-.02c0-1.75-1.36-3.2-3.18-3.2s-3.18 1.47-3.18 3.22v.02c0 1.75 1.36 3.2 3.18 3.2s3.18-1.46 3.18-3.22zm-4.58-1.54c0-.19.14-.35.35-.35h1.3c.8 0 1.4.39 1.4 1.16 0 .56-.31.95-.8 1.13l.7.83c.08.1.1.19.1.27 0 .19-.14.35-.33.35-.14 0-.25-.08-.33-.19l-.95-1.16h-.74v.97c0 .21-.17.37-.35.37-.21 0-.35-.16-.35-.37zm1.59 1.46c.47 0 .74-.25.74-.6 0-.39-.27-.6-.74-.6h-.89v1.2z"/><path d="m777.45 84.08v-.07c0-6.26 5.08-11.54 11.47-11.54s11.47 5.21 11.47 11.47v.07c0 6.26-5.08 11.54-11.47 11.54s-11.47-5.21-11.47-11.47zm21.62-.06v-.07c0-5.6-4.35-10.22-10.15-10.22s-10.15 4.68-10.15 10.29v.07c0 5.6 4.35 10.22 10.15 10.22s10.15-4.68 10.15-10.29zm-14.64-4.95c0-.59.46-1.12 1.12-1.12h4.15c2.57 0 4.48 1.25 4.48 3.69 0 1.78-.99 3.03-2.57 3.63l2.24 2.64c.27.33.33.59.33.86 0 .59-.46 1.12-1.05 1.12-.46 0-.79-.26-1.06-.59l-3.03-3.69h-2.37v3.1c0 .66-.53 1.19-1.12 1.19-.66 0-1.12-.53-1.12-1.19v-9.63zm5.08 4.68c1.52 0 2.38-.79 2.38-1.91 0-1.25-.86-1.91-2.38-1.91h-2.83v3.82z"/></g></svg>