<svg width="90" height="91" viewBox="0 0 90 91" fill="none" xmlns="http://www.w3.org/2000/svg">
<g filter="url(#filter0_d_36_2226)">
<mask id="path-1-outside-1_36_2226" maskUnits="userSpaceOnUse" x="3.30859" y="0.523682" width="83" height="82" fill="black">
<rect fill="white" x="3.30859" y="0.523682" width="83" height="82"/>
<path fill-rule="evenodd" clip-rule="evenodd" d="M41.2402 41.8943C40.0409 42.7276 38.7309 43.4444 37.3197 44.0219C26.985 48.2506 15.1366 43.4028 10.8557 33.1938C6.57485 22.9849 11.4825 11.2808 21.8173 7.05199C32.152 2.82322 44.0003 7.67111 48.2812 17.8801C51.27 25.0077 49.7799 32.864 45.091 38.3964L52.4779 45.6933L48.7819 49.3442L41.2402 41.8943ZM56.2854 43.3496L46.4912 53.0245L68.9439 75.2039L78.7381 65.5289L56.2854 43.3496Z"/>
</mask>
<path fill-rule="evenodd" clip-rule="evenodd" d="M41.2402 41.8943C40.0409 42.7276 38.7309 43.4444 37.3197 44.0219C26.985 48.2506 15.1366 43.4028 10.8557 33.1938C6.57485 22.9849 11.4825 11.2808 21.8173 7.05199C32.152 2.82322 44.0003 7.67111 48.2812 17.8801C51.27 25.0077 49.7799 32.864 45.091 38.3964L52.4779 45.6933L48.7819 49.3442L41.2402 41.8943ZM56.2854 43.3496L46.4912 53.0245L68.9439 75.2039L78.7381 65.5289L56.2854 43.3496Z" fill="white"/>
<path d="M37.3197 44.0219L39.2132 48.6495H39.2132L37.3197 44.0219ZM41.2402 41.8943L44.754 38.3371L41.7985 35.4176L38.3869 37.7883L41.2402 41.8943ZM10.8557 33.1938L15.4668 31.2603V31.2603L10.8557 33.1938ZM21.8173 7.05199L19.9237 2.4244L21.8173 7.05199ZM48.2812 17.8801L52.8923 15.9465V15.9465L48.2812 17.8801ZM45.091 38.3964L41.2767 35.1636L38.2814 38.6978L41.5772 41.9535L45.091 38.3964ZM52.4779 45.6933L55.9917 49.2504L59.5926 45.6933L55.9917 42.1362L52.4779 45.6933ZM48.7819 49.3442L45.2681 52.9013L48.7819 56.3724L52.2958 52.9013L48.7819 49.3442ZM46.4912 53.0245L42.9774 49.4674L39.3765 53.0245L42.9774 56.5817L46.4912 53.0245ZM56.2854 43.3496L59.7992 39.7925L56.2854 36.3214L52.7716 39.7925L56.2854 43.3496ZM68.9439 75.2039L65.4301 78.761L68.9439 82.232L72.4577 78.761L68.9439 75.2039ZM78.7381 65.5289L82.2519 69.086L85.8529 65.5289L82.2519 61.9718L78.7381 65.5289ZM39.2132 48.6495C40.9639 47.9331 42.5956 47.0411 44.0934 46.0002L38.3869 37.7883C37.4863 38.4142 36.4979 38.9557 35.4262 39.3943L39.2132 48.6495ZM6.24472 35.1273C11.6025 47.9044 26.3757 53.9023 39.2132 48.6495L35.4262 39.3943C27.5942 42.599 18.6708 38.9011 15.4668 31.2603L6.24472 35.1273ZM19.9237 2.4244C7.05592 7.68965 0.873471 22.3181 6.24472 35.1273L15.4668 31.2603C12.2762 23.6516 15.9091 14.8719 23.7108 11.6796L19.9237 2.4244ZM52.8923 15.9465C47.5345 3.16949 32.7612 -2.82844 19.9237 2.4244L23.7108 11.6796C31.5428 8.47488 40.4662 12.1727 43.6702 19.8136L52.8923 15.9465ZM48.9054 41.6292C54.7571 34.7248 56.6399 24.8839 52.8923 15.9465L43.6702 19.8136C45.9001 25.1314 44.8027 31.0033 41.2767 35.1636L48.9054 41.6292ZM55.9917 42.1362L48.6049 34.8393L41.5772 41.9535L48.964 49.2504L55.9917 42.1362ZM52.2958 52.9013L55.9917 49.2504L48.964 42.1362L45.2681 45.7871L52.2958 52.9013ZM37.7264 45.4514L45.2681 52.9013L52.2958 45.7871L44.754 38.3371L37.7264 45.4514ZM50.0051 56.5816L59.7992 46.9067L52.7716 39.7925L42.9774 49.4674L50.0051 56.5816ZM72.4577 71.6467L50.0051 49.4674L42.9774 56.5817L65.4301 78.761L72.4577 71.6467ZM75.2243 61.9718L65.4301 71.6467L72.4577 78.761L82.2519 69.086L75.2243 61.9718ZM52.7716 46.9067L75.2243 69.086L82.2519 61.9718L59.7992 39.7925L52.7716 46.9067Z" fill="white" mask="url(#path-1-outside-1_36_2226)"/>
</g>
<g clip-path="url(#clip0_36_2226)">
<path d="M56.2864 43.3497L46.4922 53.0246L68.9449 75.2039L78.739 65.529L56.2864 43.3497Z" fill="#BF0D3E" stroke="#BF0D3E" stroke-width="2" stroke-miterlimit="10" stroke-linecap="round" stroke-linejoin="round"/>
<path d="M44.2555 37.5701L40.5596 41.221L48.783 49.3443L52.4789 45.6934L44.2555 37.5701Z" fill="#333F48"/>
<path d="M37.3207 44.0219C47.6555 39.7931 52.5631 28.0891 48.2822 17.8801C44.0013 7.67117 32.153 2.82328 21.8182 7.05205C11.4835 11.2808 6.57582 22.9849 10.8567 33.1939C15.1376 43.4028 26.9859 48.2507 37.3207 44.0219Z" fill="white" stroke="#333F48" stroke-width="2" stroke-miterlimit="10"/>
<path d="M28.6468 41.2959C19.7612 41.2959 12.5742 34.1964 12.5742 25.548C12.5742 16.8996 19.7612 9.67108 28.6468 9.67108C29.4308 9.67108 30.0842 10.3165 30.0842 11.091C30.0842 11.8655 29.4308 12.5109 28.6468 12.5109C21.4599 12.5109 15.5797 18.3195 15.5797 25.4189C15.5797 32.5184 21.4599 38.327 28.6468 38.327C29.4308 38.327 30.0842 38.9724 30.0842 39.7469C30.0842 40.5214 29.4308 41.2959 28.6468 41.2959Z" fill="#333F48"/>
<path d="M24.2038 19.6103C24.7265 21.5465 26.6865 22.9664 27.7319 22.5791C28.6466 22.1919 29.4307 21.0301 29.1693 18.7067C28.908 13.9307 22.6357 14.447 24.2038 19.6103ZM36.2256 19.4812C35.8336 21.4174 33.8735 22.9664 32.9588 22.5791C32.0441 22.1919 31.2601 21.1592 31.2601 18.8358C31.1294 14.0598 37.4016 14.0598 36.2256 19.4812ZM40.9297 24.3862C40.1457 25.8061 38.1856 26.7097 37.4016 26.0643C36.7483 25.548 36.3562 24.3862 36.8789 22.5791C38.1856 18.7067 43.2818 20.2557 40.9297 24.3862ZM24.7265 34.8418C26.8172 35.6163 28.1239 34.1964 30.868 34.0673C33.4815 33.9382 34.0042 35.3581 36.7483 34.3255C38.7083 33.68 38.5777 31.4857 37.7936 30.0658C37.2709 29.0331 36.2256 28.1296 35.0495 27.4842C34.3962 26.9679 34.0042 26.1934 33.3508 25.548C31.9134 24.1281 28.3853 24.2572 27.2092 25.8061C26.6865 26.4515 26.4252 27.3551 25.3798 28.0005C22.3744 29.8076 21.8517 34.1964 24.7265 34.8418ZM19.3689 25.0316C20.2836 26.4515 22.3744 27.0969 23.0277 26.4515C23.6811 25.8061 23.9424 24.7735 23.1584 22.8373C21.5904 19.223 16.7555 21.1592 19.3689 25.0316Z" fill="#BF0D3E"/>
</g>
<defs>
<filter id="filter0_d_36_2226" x="0.305664" y="0.523804" width="89.5469" height="89.7082" filterUnits="userSpaceOnUse" color-interpolation-filters="sRGB">
<feFlood flood-opacity="0" result="BackgroundImageFix"/>
<feColorMatrix in="SourceAlpha" type="matrix" values="0 0 0 0 0 0 0 0 0 0 0 0 0 0 0 0 0 0 127 0" result="hardAlpha"/>
<feOffset dy="4"/>
<feGaussianBlur stdDeviation="2"/>
<feComposite in2="hardAlpha" operator="out"/>
<feColorMatrix type="matrix" values="0 0 0 0 0 0 0 0 0 0 0 0 0 0 0 0 0 0 0.25 0"/>
<feBlend mode="normal" in2="BackgroundImageFix" result="effect1_dropShadow_36_2226"/>
<feBlend mode="normal" in="SourceGraphic" in2="effect1_dropShadow_36_2226" result="shape"/>
</filter>
<clipPath id="clip0_36_2226">
<rect width="72" height="72.2852" fill="white" transform="translate(8 4.24969)"/>
</clipPath>
</defs>
</svg>
