 <svg width="104" height="87" viewBox="0 0 104 87" fill="none" xmlns="http://www.w3.org/2000/svg">
<g filter="url(#filter0_d_36_2198)">
<mask id="path-1-outside-1_36_2198" maskUnits="userSpaceOnUse" x="4.61523" y="0.249695" width="96" height="79" fill="black">
<rect fill="white" x="4.61523" y="0.249695" width="96" height="79"/>
<path fill-rule="evenodd" clip-rule="evenodd" d="M79.2211 16.5398C79.2211 16.8632 79.0595 17.3484 78.7364 17.6718C78.0901 18.3186 77.1207 18.3186 76.6359 17.6718C70.0116 11.0416 61.2869 7.32222 51.7543 7.32222C42.3832 7.32222 33.6585 10.8799 27.1957 17.5101C26.5494 18.1569 25.58 18.1569 25.0953 17.5101C24.449 16.8632 24.449 15.8929 25.0953 15.4078C32.2044 8.13078 41.737 4.24969 51.7543 4.24969C62.0947 4.24969 71.6273 8.29249 78.8979 15.5695C79.0595 15.7312 79.2211 16.2164 79.2211 16.5398ZM72.7583 23.6551C73.0814 23.3317 73.243 22.8466 73.243 22.5231C73.243 22.3615 73.2026 22.1998 73.1622 22.0381L73.1622 22.038C73.1218 21.8763 73.0814 21.7146 73.0814 21.5529C67.4265 15.8929 59.9943 12.8204 52.0774 12.8204C44.1605 12.8204 36.7283 15.8929 31.235 21.3911C30.5887 21.8763 30.5887 22.8466 31.235 23.4934C31.7197 24.1402 32.6891 24.1402 33.3354 23.4934C38.344 18.642 44.9683 15.8929 51.9158 15.8929C59.0249 15.8929 65.6492 18.642 70.6579 23.6551C71.1426 24.302 72.112 24.302 72.7583 23.6551ZM66.2955 29.4767C66.2955 29.8002 66.1339 30.2853 65.8108 30.6087C65.1645 31.2556 64.1951 31.2556 63.7104 30.6087C60.6406 27.3745 56.2782 25.5957 51.9158 25.5957C47.3919 25.5957 43.3527 27.3745 40.1213 30.447C39.475 31.0939 38.5056 31.0939 38.0209 30.447C37.3746 29.8002 37.3746 28.8299 38.0209 28.3448C41.737 24.6254 46.7456 22.5231 51.9158 22.5231C57.2476 22.5231 62.2563 24.6254 65.9724 28.3448C66.1339 28.6682 66.2955 28.9916 66.2955 29.4767ZM8.61523 59.2317C8.61523 50.661 15.5627 43.7074 24.1259 43.7074H80.1905C88.7537 43.7074 95.7012 50.661 95.7012 59.2317C95.7012 67.8024 88.7537 74.7561 80.1905 74.7561H45.0946C44.8749 74.8595 44.6131 74.9178 44.3221 74.9178C44.0796 74.9178 43.8517 74.8595 43.6514 74.7561H24.1259C15.5627 74.9178 8.61523 67.9642 8.61523 59.2317Z"/>
</mask>
<path fill-rule="evenodd" clip-rule="evenodd" d="M79.2211 16.5398C79.2211 16.8632 79.0595 17.3484 78.7364 17.6718C78.0901 18.3186 77.1207 18.3186 76.6359 17.6718C70.0116 11.0416 61.2869 7.32222 51.7543 7.32222C42.3832 7.32222 33.6585 10.8799 27.1957 17.5101C26.5494 18.1569 25.58 18.1569 25.0953 17.5101C24.449 16.8632 24.449 15.8929 25.0953 15.4078C32.2044 8.13078 41.737 4.24969 51.7543 4.24969C62.0947 4.24969 71.6273 8.29249 78.8979 15.5695C79.0595 15.7312 79.2211 16.2164 79.2211 16.5398ZM72.7583 23.6551C73.0814 23.3317 73.243 22.8466 73.243 22.5231C73.243 22.3615 73.2026 22.1998 73.1622 22.0381L73.1622 22.038C73.1218 21.8763 73.0814 21.7146 73.0814 21.5529C67.4265 15.8929 59.9943 12.8204 52.0774 12.8204C44.1605 12.8204 36.7283 15.8929 31.235 21.3911C30.5887 21.8763 30.5887 22.8466 31.235 23.4934C31.7197 24.1402 32.6891 24.1402 33.3354 23.4934C38.344 18.642 44.9683 15.8929 51.9158 15.8929C59.0249 15.8929 65.6492 18.642 70.6579 23.6551C71.1426 24.302 72.112 24.302 72.7583 23.6551ZM66.2955 29.4767C66.2955 29.8002 66.1339 30.2853 65.8108 30.6087C65.1645 31.2556 64.1951 31.2556 63.7104 30.6087C60.6406 27.3745 56.2782 25.5957 51.9158 25.5957C47.3919 25.5957 43.3527 27.3745 40.1213 30.447C39.475 31.0939 38.5056 31.0939 38.0209 30.447C37.3746 29.8002 37.3746 28.8299 38.0209 28.3448C41.737 24.6254 46.7456 22.5231 51.9158 22.5231C57.2476 22.5231 62.2563 24.6254 65.9724 28.3448C66.1339 28.6682 66.2955 28.9916 66.2955 29.4767ZM8.61523 59.2317C8.61523 50.661 15.5627 43.7074 24.1259 43.7074H80.1905C88.7537 43.7074 95.7012 50.661 95.7012 59.2317C95.7012 67.8024 88.7537 74.7561 80.1905 74.7561H45.0946C44.8749 74.8595 44.6131 74.9178 44.3221 74.9178C44.0796 74.9178 43.8517 74.8595 43.6514 74.7561H24.1259C15.5627 74.9178 8.61523 67.9642 8.61523 59.2317Z" fill="white"/>
<path d="M78.7364 17.6718L75.9067 14.8446L75.9067 14.8446L78.7364 17.6718ZM76.6359 17.6718L79.837 15.2731L79.6665 15.0457L79.4656 14.8446L76.6359 17.6718ZM27.1957 17.5101L30.0254 20.3372L30.0428 20.3198L30.0601 20.3021L27.1957 17.5101ZM25.0953 17.5101L28.2963 15.1114L28.1259 14.884L27.925 14.6829L25.0953 17.5101ZM25.0953 15.4078L27.4967 18.6068L27.7421 18.4226L27.9566 18.203L25.0953 15.4078ZM78.8979 15.5695L81.7276 12.7424L81.7276 12.7423L78.8979 15.5695ZM72.7583 23.6551L75.588 26.4823L75.588 26.4823L72.7583 23.6551ZM73.1622 22.0381L77.043 21.0688L77.0428 21.0679L73.1622 22.0381ZM73.1622 22.038L69.2814 23.0073L69.2816 23.0081L73.1622 22.038ZM73.0814 21.5529H77.0814V19.897L75.9111 18.7257L73.0814 21.5529ZM31.235 21.3911L33.6363 24.5901L33.8637 24.4195L34.0646 24.2183L31.235 21.3911ZM31.235 23.4934L34.436 21.0948L34.2655 20.8673L34.0646 20.6662L31.235 23.4934ZM33.3354 23.4934L30.5524 20.6202L30.5289 20.643L30.5057 20.6662L33.3354 23.4934ZM70.6579 23.6551L73.8589 21.2565L73.6885 21.029L73.4876 20.8279L70.6579 23.6551ZM63.7104 30.6087L66.9114 28.2101L66.7719 28.0238L66.6116 27.855L63.7104 30.6087ZM40.1213 30.447L37.365 27.5482L37.3278 27.5836L37.2916 27.6198L40.1213 30.447ZM38.0209 30.447L41.2219 28.0484L41.0514 27.8209L40.8505 27.6198L38.0209 30.447ZM38.0209 28.3448L40.4222 31.5437L40.6496 31.3731L40.8505 31.1719L38.0209 28.3448ZM65.9724 28.3448L69.5507 26.5572L69.2607 25.9766L68.8021 25.5176L65.9724 28.3448ZM45.0946 74.7561V70.7561H44.1998L43.3904 71.1373L45.0946 74.7561ZM43.6514 74.7561L45.487 71.2021L44.6234 70.7561H43.6514V74.7561ZM24.1259 74.7561V70.7561H24.0881L24.0504 70.7568L24.1259 74.7561ZM81.566 20.499C82.6879 19.3761 83.2211 17.8516 83.2211 16.5398H75.2211C75.2211 16.1037 75.3139 15.8007 75.3855 15.6213C75.4641 15.4248 75.6135 15.138 75.9067 14.8446L81.566 20.499ZM73.4349 20.0704C75.7157 23.1141 79.6188 22.4479 81.566 20.499L75.9067 14.8446C76.2896 14.4613 76.8869 14.1569 77.6256 14.1569C78.3926 14.1569 79.261 14.5045 79.837 15.2731L73.4349 20.0704ZM51.7543 11.3222C60.205 11.3222 67.9176 14.6051 73.8063 20.499L79.4656 14.8446C72.1056 7.47807 62.3687 3.32222 51.7543 3.32222V11.3222ZM30.0601 20.3021C35.7402 14.4749 43.4184 11.3222 51.7543 11.3222V3.32222C41.3481 3.32222 31.5768 7.2849 24.3314 14.718L30.0601 20.3021ZM21.8943 19.9087C24.175 22.9524 28.0782 22.2862 30.0254 20.3372L24.366 14.6829C24.749 14.2996 25.3463 13.9952 26.0849 13.9952C26.8519 13.9952 27.7203 14.3428 28.2963 15.1114L21.8943 19.9087ZM22.694 12.2088C19.655 14.4901 20.3201 18.39 22.2656 20.3372L27.925 14.6829C28.3079 15.0661 28.6106 15.6624 28.6106 16.3983C28.6106 17.1622 28.2652 18.0299 27.4967 18.6068L22.694 12.2088ZM51.7543 0.249695C40.6873 0.249695 30.1147 4.54577 22.2341 12.6126L27.9566 18.203C34.2941 11.7158 42.7867 8.24969 51.7543 8.24969V0.249695ZM81.7276 12.7423C73.7221 4.72978 63.1777 0.249695 51.7543 0.249695V8.24969C61.0117 8.24969 69.5325 11.8552 76.0682 18.3967L81.7276 12.7423ZM83.2211 16.5398C83.2211 15.8189 83.0634 15.1752 82.9151 14.7301C82.8116 14.4192 82.4944 13.5098 81.7276 12.7424L76.0682 18.3967C75.6965 18.0247 75.5146 17.6801 75.463 17.5803C75.3883 17.4357 75.3471 17.3243 75.325 17.2579C75.3013 17.1869 75.2802 17.1089 75.2629 17.0174C75.2475 16.9361 75.2211 16.7706 75.2211 16.5398H83.2211ZM69.243 22.5231C69.243 22.0871 69.3358 21.784 69.4075 21.6047C69.486 21.4081 69.6354 21.1214 69.9286 20.828L75.588 26.4823C76.7098 25.3594 77.243 23.8349 77.243 22.5231H69.243ZM69.2815 23.0074C69.2928 23.0526 69.2956 23.0644 69.2972 23.0713C69.2981 23.0752 69.293 23.0538 69.2861 23.0171C69.2732 22.9481 69.243 22.7688 69.243 22.5231H77.243C77.243 21.7836 77.06 21.1368 77.043 21.0688L69.2815 23.0074ZM69.2816 23.0081L69.2817 23.0082L77.0428 21.0679L77.0428 21.0679L69.2816 23.0081ZM69.0814 21.5529C69.0814 22.2924 69.2644 22.9393 69.2814 23.0073L77.043 21.0687C77.0317 21.0234 77.0288 21.0117 77.0272 21.0048C77.0263 21.0009 77.0314 21.0222 77.0383 21.0589C77.0512 21.1279 77.0814 21.3072 77.0814 21.5529H69.0814ZM52.0774 16.8204C58.9296 16.8204 65.3448 19.4687 70.2518 24.38L75.9111 18.7257C69.5083 12.3172 61.0591 8.82042 52.0774 8.82042V16.8204ZM34.0646 24.2183C38.7984 19.4804 45.2087 16.8204 52.0774 16.8204V8.82042C43.1123 8.82042 34.6582 12.3055 28.4053 18.564L34.0646 24.2183ZM34.0646 20.6662C34.4475 21.0495 34.7502 21.6457 34.7502 22.3816C34.7502 23.1455 34.4048 24.0133 33.6363 24.5901L28.8336 18.1922C25.7946 20.4734 26.4598 24.3733 28.4053 26.3206L34.0646 20.6662ZM30.5057 20.6662C30.8886 20.2829 31.4859 19.9785 32.2246 19.9785C32.9916 19.9785 33.86 20.3261 34.436 21.0948L28.0339 25.892C30.3147 28.9357 34.2178 28.2695 36.165 26.3206L30.5057 20.6662ZM51.9158 11.8929C43.9015 11.8929 36.2868 15.0659 30.5524 20.6202L36.1183 26.3666C40.4012 22.2182 46.0352 19.8929 51.9158 19.8929V11.8929ZM73.4876 20.8279C67.7283 15.0636 60.0859 11.8929 51.9158 11.8929V19.8929C57.9639 19.8929 63.5701 22.2205 67.8282 26.4823L73.4876 20.8279ZM69.9286 20.8279C70.3116 20.4446 70.9089 20.1402 71.6475 20.1402C72.4145 20.1402 73.2829 20.4878 73.8589 21.2565L67.4569 26.0538C69.7376 29.0974 73.6408 28.4312 75.588 26.4823L69.9286 20.8279ZM68.6405 33.4359C69.7624 32.313 70.2955 30.7885 70.2955 29.4767H62.2955C62.2955 29.0407 62.3883 28.7376 62.46 28.5583C62.5385 28.3617 62.6879 28.075 62.9811 27.7815L68.6405 33.4359ZM60.5094 33.0074C62.7901 36.0511 66.6933 35.3848 68.6405 33.4359L62.9811 27.7815C63.3641 27.3982 63.9614 27.0939 64.7 27.0939C65.467 27.0939 66.3354 27.4414 66.9114 28.2101L60.5094 33.0074ZM51.9158 29.5957C55.2268 29.5957 58.5255 30.9564 60.8092 33.3624L66.6116 27.855C62.7557 23.7926 57.3296 21.5957 51.9158 21.5957V29.5957ZM42.8775 33.3458C45.4353 30.9138 48.5104 29.5957 51.9158 29.5957V21.5957C46.2734 21.5957 41.27 23.8352 37.365 27.5482L42.8775 33.3458ZM34.8199 32.8457C37.1006 35.8893 41.0037 35.2231 42.9509 33.2742L37.2916 27.6198C37.6746 27.2365 38.2719 26.9321 39.0105 26.9321C39.7775 26.9321 40.6459 27.2797 41.2219 28.0484L34.8199 32.8457ZM35.6195 25.1458C32.5805 27.427 33.2457 31.327 35.1912 33.2742L40.8505 27.6198C41.2335 28.0031 41.5362 28.5993 41.5362 29.3352C41.5362 30.0991 41.1907 30.9669 40.4222 31.5437L35.6195 25.1458ZM51.9158 18.5231C45.6611 18.5231 39.6411 21.0637 35.1912 25.5176L40.8505 31.1719C43.8328 28.187 47.8301 26.5231 51.9158 26.5231V18.5231ZM68.8021 25.5176C64.3397 21.0513 58.3148 18.5231 51.9158 18.5231V26.5231C56.1805 26.5231 60.1729 28.1995 63.1427 31.1719L68.8021 25.5176ZM70.2955 29.4767C70.2955 27.9732 69.728 26.9121 69.5507 26.5572L62.394 30.1323C62.4156 30.1755 62.4274 30.1993 62.4378 30.2204C62.4471 30.2396 62.4499 30.2457 62.449 30.2439C62.447 30.2394 62.4252 30.1913 62.3995 30.114C62.3727 30.0336 62.3449 29.9316 62.3247 29.8133C62.3045 29.6947 62.2955 29.5808 62.2955 29.4767H70.2955ZM24.1259 39.7074C13.3503 39.7074 4.61523 48.4552 4.61523 59.2317H12.6152C12.6152 52.8668 17.7752 47.7074 24.1259 47.7074V39.7074ZM80.1905 39.7074H24.1259V47.7074H80.1905V39.7074ZM99.7012 59.2317C99.7012 48.4552 90.9661 39.7074 80.1905 39.7074V47.7074C86.5412 47.7074 91.7012 52.8668 91.7012 59.2317H99.7012ZM80.1905 78.7561C90.9661 78.7561 99.7012 70.0083 99.7012 59.2317H91.7012C91.7012 65.5966 86.5412 70.7561 80.1905 70.7561V78.7561ZM45.0946 78.7561H80.1905V70.7561H45.0946V78.7561ZM44.3221 78.9178C45.1436 78.9178 45.9954 78.7532 46.7988 78.3748L43.3904 71.1373C43.7544 70.9658 44.0825 70.9178 44.3221 70.9178V78.9178ZM41.8157 78.31C42.5751 78.7022 43.4315 78.9178 44.3221 78.9178V70.9178C44.7277 70.9178 45.1282 71.0168 45.487 71.2021L41.8157 78.31ZM24.1259 78.7561H43.6514V70.7561H24.1259V78.7561ZM4.61523 59.2317C4.61523 70.1272 13.3251 78.9607 24.2014 78.7553L24.0504 70.7568C17.8004 70.8748 12.6152 65.8011 12.6152 59.2317H4.61523Z" fill="white" mask="url(#path-1-outside-1_36_2198)"/>
</g>
<g clip-path="url(#clip0_36_2198)">
<path d="M8.61523 59.2317C8.61523 50.661 15.5627 43.7074 24.1259 43.7074H80.1905C88.7537 43.7074 95.7012 50.661 95.7012 59.2317C95.7012 67.8025 88.7537 74.7561 80.1905 74.7561H24.1259C15.5627 74.9178 8.61523 67.9642 8.61523 59.2317Z" fill="white" stroke="#333F48" stroke-width="2" stroke-miterlimit="10"/>
<path d="M43.1911 66.6705H29.7808C25.7416 66.6705 22.3486 63.4362 22.3486 59.2317C22.3486 55.1889 25.58 51.793 29.7808 51.793H43.1911V66.6705Z" fill="#BF0D3E"/>
<path d="M44.3223 74.9178C43.5144 74.9178 42.8682 74.271 42.8682 73.4624V45.3245C42.8682 44.516 43.5144 43.8691 44.3223 43.8691C45.1301 43.8691 45.7764 44.516 45.7764 45.3245V73.4624C45.938 74.271 45.2917 74.9178 44.3223 74.9178Z" fill="#333F48"/>
<path d="M66.2955 29.4767C66.2955 29.8002 66.1339 30.2853 65.8108 30.6087C65.1645 31.2556 64.1951 31.2556 63.7104 30.6087C60.6406 27.3745 56.2782 25.5957 51.9158 25.5957C47.3919 25.5957 43.3526 27.3745 40.1212 30.447C39.475 31.0939 38.5055 31.0939 38.0208 30.447C37.3746 29.8002 37.3746 28.8299 38.0208 28.3448C41.7369 24.6254 46.7456 22.5231 51.9158 22.5231C57.2476 22.5231 62.2563 24.6254 65.9723 28.3448C66.1339 28.6682 66.2955 28.9916 66.2955 29.4767Z" fill="#BF0D3E"/>
<path d="M73.2428 22.5231C73.2428 22.8466 73.0812 23.3317 72.7581 23.6551C72.1118 24.302 71.1424 24.302 70.6576 23.6551C65.649 18.6421 59.0246 15.893 51.9156 15.893C44.9681 15.893 38.3438 18.6421 33.3351 23.4934C32.6888 24.1403 31.7194 24.1403 31.2347 23.4934C30.5884 22.8466 30.5884 21.8763 31.2347 21.3912C36.7281 15.893 44.1603 12.8204 52.0772 12.8204C59.9941 12.8204 67.4263 15.893 73.0812 21.5529C73.0812 21.8763 73.2428 22.1997 73.2428 22.5231Z" fill="#BF0D3E"/>
<path d="M79.2208 16.5398C79.2208 16.8632 79.0592 17.3484 78.7361 17.6718C78.0898 18.3186 77.1204 18.3186 76.6357 17.6718C70.0113 11.0416 61.2866 7.32222 51.754 7.32222C42.383 7.32222 33.6582 10.8799 27.1955 17.5101C26.5492 18.1569 25.5798 18.1569 25.0951 17.5101C24.4488 16.8632 24.4488 15.8929 25.0951 15.4078C32.2041 8.13078 41.7367 4.24969 51.754 4.24969C62.0944 4.24969 71.627 8.29249 78.8977 15.5695C79.0592 15.7312 79.2208 16.2164 79.2208 16.5398Z" fill="#BF0D3E"/>
<path d="M66.2955 29.4767C66.2955 29.8002 66.1339 30.2853 65.8108 30.6087C65.1645 31.2556 64.1951 31.2556 63.7104 30.6087C60.6406 27.3745 56.2782 25.5957 51.9158 25.5957C47.3919 25.5957 43.3526 27.3745 40.1212 30.447C39.475 31.0939 38.5055 31.0939 38.0208 30.447C37.3746 29.8002 37.3746 28.8299 38.0208 28.3448C41.7369 24.6254 46.7456 22.5231 51.9158 22.5231C57.2476 22.5231 62.2563 24.6254 65.9723 28.3448C66.1339 28.6682 66.2955 28.9916 66.2955 29.4767Z" fill="#BF0D3E"/>
<path d="M73.2428 22.5231C73.2428 22.8466 73.0812 23.3317 72.7581 23.6551C72.1118 24.302 71.1424 24.302 70.6576 23.6551C65.649 18.6421 59.0246 15.893 51.9156 15.893C44.9681 15.893 38.3438 18.6421 33.3351 23.4934C32.6888 24.1403 31.7194 24.1403 31.2347 23.4934C30.5884 22.8466 30.5884 21.8763 31.2347 21.3912C36.7281 15.893 44.1603 12.8204 52.0772 12.8204C59.9941 12.8204 67.4263 15.893 73.0812 21.5529C73.0812 21.8763 73.2428 22.1997 73.2428 22.5231Z" fill="#BF0D3E"/>
<path d="M79.2208 16.5398C79.2208 16.8632 79.0592 17.3484 78.7361 17.6718C78.0898 18.3186 77.1204 18.3186 76.6357 17.6718C70.0113 11.0416 61.2866 7.32222 51.754 7.32222C42.383 7.32222 33.6582 10.8799 27.1955 17.5101C26.5492 18.1569 25.5798 18.1569 25.0951 17.5101C24.4488 16.8632 24.4488 15.8929 25.0951 15.4078C32.2041 8.13078 41.7367 4.24969 51.754 4.24969C62.0944 4.24969 71.627 8.29249 78.8977 15.5695C79.0592 15.7312 79.2208 16.2164 79.2208 16.5398Z" fill="#BF0D3E"/>
</g>
<defs>
<filter id="filter0_d_36_2198" x="0.615234" y="0.249695" width="103.086" height="86.6681" filterUnits="userSpaceOnUse" color-interpolation-filters="sRGB">
<feFlood flood-opacity="0" result="BackgroundImageFix"/>
<feColorMatrix in="SourceAlpha" type="matrix" values="0 0 0 0 0 0 0 0 0 0 0 0 0 0 0 0 0 0 127 0" result="hardAlpha"/>
<feOffset dy="4"/>
<feGaussianBlur stdDeviation="2"/>
<feComposite in2="hardAlpha" operator="out"/>
<feColorMatrix type="matrix" values="0 0 0 0 0 0 0 0 0 0 0 0 0 0 0 0 0 0 0.25 0"/>
<feBlend mode="normal" in2="BackgroundImageFix" result="effect1_dropShadow_36_2198"/>
<feBlend mode="normal" in="SourceGraphic" in2="effect1_dropShadow_36_2198" result="shape"/>
</filter>
<clipPath id="clip0_36_2198">
<rect width="90.4789" height="72.2852" fill="white" transform="translate(7 4.24969)"/>
</clipPath>
</defs>
</svg>
