24pw-petco.svg<svg width="70" height="70" viewBox="0 0 70 70" fill="none" xmlns="http://www.w3.org/2000/svg">
<path d="M55.3346 51.288L49.097 59.7087L44.7306 56.2781C44.2628 55.9662 43.4831 55.9662 43.1712 56.434C42.8593 56.9018 42.8593 57.5256 43.3272 57.8375L48.6291 61.8919C48.7851 62.0479 49.097 62.2038 49.2529 62.2038H49.4088C49.7207 62.2038 50.0326 62.0479 50.1885 61.736L57.0499 52.3795C57.3618 51.9117 57.2059 51.288 56.738 50.9761C56.2702 50.8201 55.6465 50.8201 55.3346 51.288Z" fill="#C01F41"/>
<path fill-rule="evenodd" clip-rule="evenodd" d="M14.6 8C12.3908 8 10.6 9.79086 10.6 12V65C10.6 67.2091 12.3908 69 14.6 69H42.6C42.6478 69 42.6953 68.9992 42.7427 68.9975C38.4679 66.4755 35.6 61.8227 35.6 56.5C35.6 49.6986 40.2827 43.991 46.6 42.4252V12C46.6 9.79086 44.8091 8 42.6 8H14.6Z" fill="white"/>
<path d="M42.0798 67.8168H14.6342C13.2307 67.8168 11.9832 66.7253 11.9832 65.3218V57.3688H36.3099C36.3099 57.0569 36.3099 56.745 36.3099 56.2772C36.3099 55.9653 36.3099 55.6535 36.3099 55.1856H11.9832V15.4208H45.3545V42.8663C46.1342 42.5545 46.758 42.3985 47.5377 42.2426V11.6782C47.5377 9.18317 45.3545 7 42.7035 7H14.6342C11.9832 7 9.80005 9.02723 9.80005 11.6782V65.3218C9.80005 67.8168 11.9832 70 14.6342 70H42.7035C43.4832 70 44.107 69.8441 44.7307 69.5322C43.7951 68.9084 42.8595 68.4406 42.0798 67.8168ZM11.9832 11.6782C11.9832 10.2748 13.2307 9.18317 14.6342 9.18317H42.7035C44.107 9.18317 45.3545 10.2748 45.3545 11.6782V13.2376H11.9832V11.6782Z" fill="#333333"/>
<path d="M28.6689 64.6953C27.4214 64.6953 26.4857 63.7597 26.4857 62.6681C26.4857 61.5765 27.4214 60.6409 28.6689 60.6409C29.9164 60.6409 30.8521 61.5765 30.8521 62.6681C30.8521 63.7597 29.9164 64.6953 28.6689 64.6953ZM28.6689 58.3018C26.1738 58.3018 24.1466 60.173 24.1466 62.5122C24.1466 64.8513 26.1738 66.7226 28.6689 66.7226C31.1639 66.7226 33.1912 64.8513 33.1912 62.5122C33.1912 60.173 31.1639 58.3018 28.6689 58.3018Z" fill="#333333"/>
<path d="M24.3025 12.3018H28.8248C29.4486 12.3018 29.9164 11.834 29.9164 11.2102C29.9164 10.5865 29.4486 10.1187 28.8248 10.1187H24.3025C23.6788 10.1187 23.2109 10.5865 23.2109 11.2102C23.2109 11.834 23.6788 12.3018 24.3025 12.3018Z" fill="#333333"/>
<path d="M32.0995 12.3018H33.1911C33.8149 12.3018 34.2827 11.834 34.2827 11.2102C34.2827 10.5865 33.8149 10.1187 33.1911 10.1187H32.0995C31.4758 10.1187 31.0079 10.5865 31.0079 11.2102C31.0079 11.834 31.4758 12.3018 32.0995 12.3018Z" fill="#333333"/>
<path d="M50.0327 67.9729C56.3197 67.9729 61.4164 62.8763 61.4164 56.5892C61.4164 50.3022 56.3197 45.2056 50.0327 45.2056C43.7457 45.2056 38.649 50.3022 38.649 56.5892C38.649 62.8763 43.7457 67.9729 50.0327 67.9729Z" fill="white" stroke="#C01F41" stroke-width="1.89" stroke-miterlimit="10"/>
<path d="M55.3347 51.288L49.0971 59.7087L44.7307 56.2781C44.2629 55.9662 43.4832 55.9662 43.1713 56.434C42.8595 56.9018 42.8595 57.5256 43.3273 57.8375L48.6293 61.8919C48.7852 62.0479 49.0971 62.2038 49.253 62.2038H49.409C49.7208 62.2038 50.0327 62.0479 50.1887 61.736L57.0501 52.3795C57.3619 51.9117 57.206 51.288 56.7382 50.9761C56.2703 50.8201 55.6466 50.8201 55.3347 51.288Z" fill="#C01F41"/>
</svg>
