<svg width="52" height="53" viewBox="0 0 52 53" fill="none" xmlns="http://www.w3.org/2000/svg">
<path d="M39.0363 32.1101C38.4956 32.8298 38.1367 33.6695 37.99 34.5577C37.8433 35.4458 37.9133 36.3563 38.1938 37.2117C38.4744 38.0671 38.9573 38.842 39.6016 39.4708C40.2458 40.0995 41.0323 40.5635 41.8943 40.8231C45.4473 41.7701 48.3463 40.7781 50.3433 37.4011C51.0055 36.2862 51.258 34.9751 51.0572 33.694C50.8564 32.4129 50.2149 31.2419 49.2433 30.3831C48.4778 29.7771 47.5935 29.3386 46.6478 29.096C45.702 28.8534 44.7158 28.8123 43.7531 28.9751C42.7904 29.1379 41.8727 29.501 41.0593 30.0411C40.2458 30.5812 39.555 31.286 39.0313 32.1101" fill="#B4002D"/>
<path d="M5.94448 6.88827C5.41121 7.7058 5.04787 8.62225 4.87606 9.58309C4.70426 10.5439 4.72751 11.5295 4.94444 12.4812C5.16136 13.4329 5.56751 14.3312 6.13874 15.1226C6.70997 15.9141 7.4346 16.5826 8.26948 17.0883C9.22469 17.5202 10.2748 17.6996 11.3192 17.6094C12.3636 17.5193 13.3674 17.1625 14.2345 16.5733C15.2402 15.7313 15.9987 14.6322 16.4291 13.3931C16.8595 12.1541 16.9457 10.8214 16.6785 9.53726C16.475 8.27175 15.9009 7.095 15.0287 6.15572C14.1565 5.21645 13.0255 4.55685 11.7785 4.26028C10.6537 4.0541 9.49277 4.19517 8.45011 4.66479C7.40746 5.1344 6.53247 5.9103 5.94148 6.88928" fill="#B4002D"/>
<path d="M48.4055 21.1383C48.5835 20.8243 48.8055 20.4893 48.9755 20.1293C50.1755 17.5463 50.2355 14.9883 48.4995 12.6293C47.751 11.6004 46.7179 10.8127 45.5275 10.3632C44.3371 9.91366 43.0413 9.82195 41.7995 10.0993C40.0049 10.4307 38.3635 11.3279 37.1156 12.6594C35.8677 13.991 35.0789 15.6871 34.8645 17.4994C34.7511 18.4261 34.8367 19.3664 35.1156 20.2575C35.3944 21.1486 35.86 21.97 36.4814 22.6669C37.1027 23.3638 37.8656 23.9202 38.719 24.299C39.5724 24.6777 40.4968 24.8701 41.4305 24.8633C42.812 24.8777 44.175 24.544 45.3936 23.893C46.6122 23.242 47.6474 22.2947 48.4035 21.1383" fill="#B4002D"/>
<path d="M33.0755 11.6303C34.0385 10.0262 34.4182 8.13893 34.1505 6.28727C34.0507 5.0037 33.5877 3.77501 32.8154 2.74491C32.0432 1.71481 30.9936 0.925848 29.7895 0.470254C28.6529 0.00845751 27.4074 -0.116581 26.2017 0.110025C24.9959 0.336631 23.8809 0.905328 22.9895 1.74827C21.7409 2.74427 20.8098 4.0826 20.31 5.59953C19.8102 7.11645 19.7635 8.74617 20.1755 10.2893C20.3874 11.3521 20.8599 12.3456 21.5505 13.1808C22.2412 14.016 23.1284 14.6666 24.1325 15.0743C27.2165 16.3863 30.7155 15.1523 33.0745 11.6303" fill="#B4002D"/>
<path d="M31.9794 49.6314C31.165 50.722 30.0174 51.5175 28.7104 51.8974C27.3335 52.3034 25.8533 52.1653 24.5754 51.5114C23.1622 50.7431 21.9117 49.7075 20.8934 48.4624C19.3667 46.6957 17.9433 44.8423 16.6304 42.9114C16.0987 42.0711 15.3659 41.3765 14.4984 40.8904C13.7028 40.5083 12.8782 40.1896 12.0324 39.9374C10.3578 39.4698 8.7086 38.9157 7.09138 38.2774C5.44365 37.621 3.89544 36.7382 2.49139 35.6544C1.33021 34.8192 0.489383 33.6121 0.108382 32.2334C-0.129967 31.1015 0.0274735 29.9221 0.554381 28.8924C1.27546 27.4831 2.35066 26.2856 3.67439 25.4174C5.07535 24.3974 6.56034 23.4982 8.11339 22.7294C11.4894 21.009 15.1479 19.9115 18.9134 19.4894C20.4618 19.299 22.0272 19.2916 23.5774 19.4674C24.8974 19.6605 26.1794 20.0576 27.3774 20.6444C29.5623 21.6778 31.3443 23.4044 32.4464 25.5554C33.5179 27.6544 34.2124 29.9252 34.4984 32.2644C34.7951 34.289 34.8956 36.3375 34.7984 38.3814C34.7017 41.2805 34.225 44.1544 33.3804 46.9294C33.069 47.9026 32.5953 48.8161 31.9794 49.6314Z" fill="#B4002D"/>
</svg>
