<svg width="70" height="70" viewBox="0 0 70 70" fill="none" xmlns="http://www.w3.org/2000/svg">
<path d="M62.0342 37.5003C61.4727 37.1634 60.9112 37.2757 60.3497 37.7249C59.9005 38.1741 59.1145 38.3987 58.4407 38.511C56.8685 38.7356 55.8578 37.8372 56.0824 36.3773C56.5316 31.9977 54.7348 29.1902 50.692 27.618C48.5583 26.8319 47.4353 25.2597 47.4353 22.9014C47.4353 22.003 46.9861 20.88 46.5369 20.0939C44.8524 16.7249 45.3016 13.8052 47.8845 10.5485C48.6706 9.53777 49.2321 9.53777 49.9059 10.6608C50.2428 11.2223 50.5797 11.7838 51.0289 12.3453C52.2642 13.8052 54.1733 13.8052 55.2963 12.3453C57.6545 9.53777 57.0931 3.8105 52.4888 3.0244C52.3765 3.0244 52.1519 2.7998 52.0396 2.7998C51.1412 2.7998 50.2428 2.7998 49.3444 2.7998C48.5583 3.0244 47.6599 3.1367 46.9861 3.5859C45.8631 4.1474 44.7401 4.93349 43.7294 5.71959C43.2802 6.05649 42.831 6.28109 42.2695 6.05649C39.7989 5.38269 37.4406 5.38269 34.9701 6.05649C34.6332 6.16879 34.0717 6.16879 33.8471 5.94419C32.2749 4.372 30.4781 3.3613 28.2321 3.0244C28.1198 3.0244 28.0075 2.9121 28.0075 2.7998C27.1091 2.7998 26.2107 2.7998 25.3123 2.7998L25.2 2.9121C22.3925 3.4736 20.8203 5.27039 20.708 8.30248C18.799 7.96558 17.9005 9.31317 17.0021 10.6608C13.9701 15.1527 14.307 19.3078 17.7882 23.3506C19.9219 25.8212 19.8096 25.8212 17.1144 27.3934C16.3283 27.8426 15.6546 28.2918 14.8685 28.8533C13.6332 29.864 12.9594 31.2116 12.9594 32.7838C12.9594 33.9068 12.9594 35.0297 12.9594 36.1527C12.9594 37.388 12.2856 38.1741 11.2749 38.6233C10.1519 39.0725 9.2535 38.7356 8.46741 37.9495C8.24281 37.7249 7.6813 37.5003 7.23211 37.6126C5.88451 37.8372 5.09842 38.7356 4.53693 39.8586C4.53693 40.3078 4.53693 40.757 4.53693 41.2062C6.67062 44.3506 9.81498 45.249 13.7455 44.126C14.307 43.9014 15.0931 44.0137 15.7669 44.126C16.3284 44.126 16.8898 44.3506 17.5636 44.3506C28.9059 44.3506 40.1358 44.3506 51.4781 44.3506C52.2642 44.3506 53.1626 44.0137 53.9487 43.9014C54.2856 43.9014 54.6225 43.9014 54.9594 43.9014C56.4193 44.126 57.9915 44.4629 59.4514 44.4629C61.6973 44.4629 63.3818 43.4522 64.5048 41.4308C64.5048 40.8693 64.5048 40.1955 64.5048 39.634C63.7187 38.9602 62.9326 38.1741 62.0342 37.5003Z" fill="white"/>
<path d="M62.0342 37.5003C61.4727 37.1634 60.9112 37.2757 60.3497 37.7249C59.9005 38.1741 59.1145 38.3987 58.4407 38.511C56.8685 38.7356 55.8578 37.8372 56.0824 36.3773C56.5316 31.9977 54.7348 29.1902 50.692 27.618C48.5583 26.8319 47.4353 25.2597 47.4353 22.9014C47.4353 22.003 46.9861 20.88 46.5369 20.0939C44.8524 16.7249 45.3016 13.8052 47.8845 10.5485C48.6706 9.53777 49.2321 9.53777 49.9059 10.6608C50.2428 11.2223 50.5797 11.7838 51.0289 12.3453C52.2642 13.8052 54.1733 13.8052 55.2963 12.3453C57.6545 9.53777 57.0931 3.8105 52.4888 3.0244C52.3765 3.0244 52.1519 2.7998 52.0396 2.7998C51.1412 2.7998 50.2428 2.7998 49.3444 2.7998C48.5583 3.0244 47.6599 3.1367 46.9861 3.5859C45.8631 4.1474 44.7401 4.93349 43.7294 5.71959C43.2802 6.05649 42.831 6.28109 42.2695 6.05649C39.7989 5.38269 37.4406 5.38269 34.9701 6.05649C34.6332 6.16879 34.0717 6.16879 33.8471 5.94419C32.2749 4.372 30.4781 3.3613 28.2321 3.0244C28.1198 3.0244 28.0075 2.9121 28.0075 2.7998C27.1091 2.7998 26.2107 2.7998 25.3123 2.7998L25.2 2.9121C22.3925 3.4736 20.8203 5.27039 20.708 8.30248C18.799 7.96558 17.9005 9.31317 17.0021 10.6608C13.9701 15.1527 14.307 19.3078 17.7882 23.3506C19.9219 25.8212 19.8096 25.8212 17.1144 27.3934C16.3283 27.8426 15.6546 28.2918 14.8685 28.8533C13.6332 29.864 12.9594 31.2116 12.9594 32.7838C12.9594 33.9068 12.9594 35.0297 12.9594 36.1527C12.9594 37.388 12.2856 38.1741 11.2749 38.6233C10.1519 39.0725 9.2535 38.7356 8.46741 37.9495C8.24281 37.7249 7.6813 37.5003 7.23211 37.6126C5.88451 37.8372 5.09842 38.7356 4.53693 39.8586C4.53693 40.3078 4.53693 40.757 4.53693 41.2062C6.67062 44.3506 9.81498 45.249 13.7455 44.126C14.307 43.9014 15.0931 44.0137 15.7669 44.126C16.3284 44.126 16.8898 44.3506 17.5636 44.3506C28.9059 44.3506 40.1358 44.3506 51.4781 44.3506C52.2642 44.3506 53.1626 44.0137 53.9487 43.9014C54.2856 43.9014 54.6225 43.9014 54.9594 43.9014C56.4193 44.126 57.9915 44.4629 59.4514 44.4629C61.6973 44.4629 63.3818 43.4522 64.5048 41.4308C64.5048 40.8693 64.5048 40.1955 64.5048 39.634C63.7187 38.9602 62.9326 38.1741 62.0342 37.5003ZM22.7294 6.28109C23.4032 4.7089 24.8631 4.2597 26.4353 4.2597C29.4674 4.1474 31.938 5.27039 33.7348 8.07788C37.1038 6.50569 40.3604 6.50569 43.7294 8.07788C43.954 7.85328 44.1786 7.51638 44.2909 7.29178C46.0877 4.82119 49.7936 3.5859 52.7134 4.4843C54.1733 4.93349 54.9594 5.94419 55.184 7.40408C55.4086 8.97627 55.184 10.4362 53.9487 11.5592C53.3872 12.1207 52.7134 11.8961 52.2642 11.2223C51.815 10.6608 51.4781 9.98697 51.0289 9.31317C50.0182 7.85328 48.5583 7.62868 47.2107 8.97627C44.6278 11.6715 42.831 16.0511 44.9647 20.2062C45.3016 20.88 45.6385 21.6661 45.8631 22.3399C46.2 23.6875 45.6385 24.9228 44.5155 25.7089C43.5048 26.3827 42.0449 26.3827 40.9219 25.7089C39.7989 24.9228 39.1251 23.4629 39.462 22.2276C39.462 22.003 39.6867 21.7784 39.9113 21.6661C40.1359 21.4415 40.4727 21.4415 40.585 21.2169C40.9219 20.6554 41.2588 19.9816 41.4834 19.4201C40.9219 19.1955 40.3604 18.7463 39.7989 18.7463C38.7883 18.7463 37.6652 18.8586 36.6545 18.9709C35.9807 19.0832 35.7561 19.5324 36.093 20.0939C36.4299 20.6554 36.7668 21.2169 37.3283 21.5538C38.0021 21.8907 38.1145 22.3399 38.1145 23.0137C38.1145 24.4736 37.4406 25.4843 36.093 26.0458C34.8578 26.6073 33.7348 26.3827 32.6118 25.4843C31.4888 24.5859 31.2642 23.2383 31.7134 22.003C32.1626 20.7677 32.8364 19.5324 33.1733 18.2971C34.0717 14.3666 32.4995 11.3346 29.9166 8.63938C29.0182 7.74098 27.7829 7.85328 26.8845 8.86398C26.323 9.42547 25.9861 10.2116 25.5369 10.8854C24.7508 12.0084 23.8524 12.1207 23.0663 10.8854C22.1679 9.53777 21.9433 7.96558 22.7294 6.28109ZM40.1358 27.0565C39.1251 27.0565 38.4513 27.0565 37.4407 27.0565C38.0022 26.3827 38.3391 26.0458 38.7883 25.4843C39.2375 26.0458 39.5743 26.3827 40.1358 27.0565ZM30.9273 42.2169C30.815 42.5538 30.0289 42.6661 29.5797 42.6661C29.0182 42.7784 28.4567 42.6661 27.7829 42.6661C27.7829 42.2169 27.7829 41.9923 27.7829 41.6554C27.6706 41.0939 27.7829 40.3078 27.446 39.9709C26.323 38.8479 26.8845 37.7249 27.1091 36.6019C27.3337 35.7035 27.5583 34.9174 27.6706 34.0191C27.6706 33.6822 27.446 33.3453 27.2214 33.0084C26.9968 33.233 26.6599 33.4576 26.5476 33.6822C26.2107 34.4683 26.0984 35.3666 25.8738 36.265C25.7615 36.265 25.6492 36.265 25.5369 36.265C25.3123 35.4789 25.2 34.6929 24.9754 34.0191C24.8631 33.6822 24.4139 33.3453 24.077 33.1207C23.9647 33.5699 23.6278 34.0191 23.7401 34.356C23.9647 35.5912 24.3016 36.8265 24.6385 38.0618C24.8631 38.7356 25.3123 39.2971 25.6492 39.9709C25.8738 40.4201 26.2107 40.8693 26.323 41.4308C26.4353 42.3292 26.2107 43.003 25.0877 42.7784C24.8631 42.7784 24.7508 42.7784 24.5262 42.7784C23.0663 42.7784 23.0663 42.7784 22.954 41.2062C22.8417 40.1955 22.6171 39.4094 21.831 38.7356C21.4941 38.511 21.3818 38.0618 21.2695 37.7249C20.9326 36.6019 20.708 35.3666 20.3711 34.1314C20.2588 33.6822 19.8096 33.3453 19.4727 33.0084C19.3604 33.4576 19.1358 34.0191 19.2481 34.4683C19.4727 35.7035 19.8096 36.9388 20.1465 38.2864C19.2481 38.0618 18.6866 37.9495 18.7989 37.0511C18.7989 36.8265 18.462 36.3773 18.3497 36.4896C18.1251 36.6019 17.6759 36.7142 17.6759 37.0511C17.339 37.8372 17.6759 38.6233 18.3497 38.9602C19.0235 39.2971 19.8096 39.5217 20.5957 39.7463C21.6064 39.9709 21.831 40.5324 21.831 41.88C21.831 42.8907 21.0449 42.6661 20.4834 42.6661C19.3604 42.6661 18.3497 42.6661 17.2268 42.6661C17.0022 42.6661 16.6652 42.6661 16.4406 42.5538C15.2053 41.6554 14.0824 42.3292 12.8471 42.6661C10.8257 43.2276 8.69198 43.2276 6.89519 41.7677C6.44599 41.4308 6.10911 40.6447 6.10911 40.0832C6.10911 39.2971 7.11981 38.9602 7.90591 39.5217C10.7134 41.3185 14.307 39.634 14.4193 36.265C14.5316 35.2543 14.5316 34.2437 14.4193 33.233C14.307 31.5485 15.093 30.3132 16.4406 29.4148C17.2267 28.8533 18.1252 28.4041 19.0235 27.8426C20.9326 26.6073 21.2695 25.2597 19.8096 23.3506C19.2481 22.5645 18.5743 21.7784 17.7882 20.88C18.2374 20.7677 18.5743 20.7677 18.9112 20.5431C19.2481 20.3185 19.585 20.0939 19.9219 19.8693C19.585 19.757 19.2481 19.757 18.7989 19.757C18.5743 19.757 18.462 19.8693 18.2374 19.8693C17.1144 20.0939 17.1145 19.9816 16.8899 18.7463C17.9006 18.8586 18.9112 18.8586 19.9219 18.9709C19.9219 18.7463 20.0342 18.634 20.0342 18.4094C19.4727 18.2971 19.0235 18.0725 18.4621 18.0725C16.3284 17.7356 16.1037 17.511 16.4406 15.3773C16.7775 13.356 17.7883 11.6715 19.0235 10.2116C19.4727 9.65007 20.0342 9.76237 20.3711 10.3239C20.9326 11.2223 21.4941 12.1207 22.0556 13.1314C22.2802 13.6929 22.5048 13.9175 23.1786 13.6929C23.5155 13.5806 24.077 13.4683 24.4139 13.5806C25.7615 14.142 26.2107 13.356 26.6599 12.233C26.9968 11.4469 27.5583 10.8854 28.0075 10.2116C28.3444 9.76237 28.7936 9.65007 29.2428 10.0993C30.815 12.0084 32.0503 14.0298 32.0503 16.6126C32.0503 17.3987 31.8257 17.8479 30.9273 17.9602C30.1412 18.0725 29.4674 18.2971 28.6813 18.5217C28.6813 18.7463 28.7936 18.8586 28.7936 19.0832C29.692 18.9709 30.4781 18.9709 31.3765 18.8586C31.3765 19.757 31.0396 20.2062 30.1412 19.9816C29.8043 19.8693 29.5797 19.8693 29.2428 19.8693C29.0182 19.8693 28.9059 20.0939 28.6813 20.2062C28.7936 20.3185 28.9059 20.5431 29.0182 20.6554C29.4674 20.7677 29.8043 20.88 30.3658 20.9923C30.2535 21.3292 30.2535 21.6661 30.2535 21.8907C29.9166 23.2383 29.9166 24.4736 30.5904 25.7089C31.7134 27.7303 31.8257 29.7517 31.1519 31.8854C30.5904 33.7945 30.0289 35.7035 29.5797 37.7249C29.3551 38.6233 29.4674 39.4094 30.3658 40.0832C31.3765 40.4201 31.2642 41.4308 30.9273 42.2169ZM62.708 41.4308C62.2588 41.88 61.585 42.3292 60.9112 42.5538C58.8898 43.2276 56.8685 43.003 54.9594 42.2169C54.6225 42.1046 54.2856 42.1046 53.9487 42.1046C53.0503 42.3292 52.1519 42.6661 51.2535 42.6661C50.0182 42.7784 48.6706 42.6661 47.323 42.6661C45.8631 42.6661 45.077 41.2062 45.8631 39.9709C46.4246 38.9602 47.323 38.6233 48.3337 38.3987C48.6706 38.3987 49.0075 38.3987 49.3444 38.2864C50.0182 38.0618 51.0289 37.9495 51.1412 37.5003C51.3658 36.8265 51.0289 35.9281 50.8043 35.2543C50.692 35.0297 50.2428 34.9174 49.9059 34.8052C49.7936 35.142 49.6813 35.4789 49.6813 35.8158C49.6813 36.1527 49.9059 36.4896 50.1305 36.8265C48.5583 37.388 48.2214 37.2757 47.6599 35.9281C47.5476 35.7035 47.2107 35.4789 46.9861 35.2543C46.8738 35.5912 46.5369 36.0404 46.5369 36.265C46.9861 37.2757 46.5369 37.7249 45.7508 38.2864C44.4032 39.4094 44.0663 40.8693 44.9647 42.6661C43.2802 42.6661 41.8203 42.6661 40.3604 42.6661C40.2481 42.6661 40.0236 42.5538 39.9113 42.4415C39.2375 41.7677 39.7989 39.5217 40.6973 39.1848C42.831 38.3987 43.0556 38.0618 42.3818 35.9281C42.1572 35.2543 42.0449 34.4683 41.8203 33.7945C41.708 33.4576 41.2588 33.233 41.0342 33.0084C40.922 33.3453 40.585 33.6822 40.6973 34.0191C40.8096 34.9174 41.0342 35.7035 41.3711 36.6019C41.5957 37.388 41.4834 37.7249 40.585 37.9495C39.9112 38.0618 39.3498 38.511 38.7883 38.7356C38.2268 38.511 37.553 38.1741 36.8792 37.9495C36.2054 37.7249 36.0931 37.388 36.2054 36.8265C36.43 35.9281 36.7669 34.9174 36.8792 34.0191C36.8792 33.6822 36.6546 33.3453 36.43 33.0084C36.2054 33.233 35.7562 33.4576 35.6439 33.6822C35.307 34.6929 35.0824 35.8158 34.8578 36.9388C34.6332 38.1741 34.9701 38.7356 36.2054 39.0725C37.6652 39.5217 38.339 40.5324 37.8898 42.1046C37.7775 42.3292 37.4406 42.6661 37.216 42.6661C35.8684 42.7784 34.5209 42.7784 33.061 42.6661C32.8364 42.6661 32.4995 42.1046 32.4995 41.88C32.6118 40.6447 32.3872 39.4094 31.3765 38.511C31.1519 38.2864 31.1519 37.8372 31.1519 37.5003C31.2642 36.6019 31.6011 35.8158 31.8257 34.9174C32.1626 33.6822 32.6118 32.5592 32.8364 31.3239C33.061 30.0886 33.1733 28.8533 33.2856 27.5057C34.5209 27.9549 35.8684 27.2811 37.216 28.1795C38.1144 28.8533 39.3498 28.6287 40.4728 28.1795C41.1465 27.9549 41.8203 27.7303 42.4941 27.7303C43.954 27.7303 45.1893 27.0565 46.3123 25.8212C47.4353 27.9549 49.3444 28.741 51.2535 29.6394C53.4995 30.6501 54.6225 32.3346 54.3979 34.8052C54.3979 35.3666 54.3979 35.8158 54.3979 36.3773C54.3979 38.6233 55.7454 40.0832 57.9914 39.9709C58.8898 39.9709 59.9006 39.634 60.6867 39.1848C61.4727 38.7356 62.0342 38.9602 62.4834 39.5217C63.1572 40.1955 63.2695 40.8693 62.708 41.4308Z" fill="#333333"/>
<path d="M26.8845 20.0946C26.7722 20.0946 26.7722 20.3192 26.6599 20.3192C26.2107 20.7684 25.6492 20.8807 25.2 20.4315C24.7508 19.9823 24.6385 19.5331 25.2 18.9716C25.4246 18.747 25.6492 18.2978 25.9861 17.7363C24.8631 17.7363 23.9647 17.7363 22.7294 17.7363C23.1786 18.2978 23.5155 18.6347 23.5155 18.9716C23.6278 19.4208 23.7401 19.9823 23.5155 20.3192C23.1786 20.8807 22.6171 20.7684 22.0556 20.3192C21.831 20.0946 21.4941 19.87 21.2695 19.6454C21.2695 21.2176 22.3925 21.8914 23.5155 21.4422C24.077 21.2176 24.4139 21.1053 25.0877 21.4422C25.9861 21.8914 26.9968 21.4422 27.446 20.6561C27.5583 20.4315 27.446 20.0946 27.446 19.87C27.2214 19.9823 26.9968 19.9823 26.8845 20.0946Z" fill="#333333"/>
<path d="M27.1091 15.1509C26.7722 15.6001 26.323 16.0493 26.323 16.2739C26.4353 16.7231 26.9968 17.06 27.3337 17.3969C27.6706 17.06 28.2321 16.7231 28.2321 16.2739C28.2321 15.937 27.7829 15.4878 27.5583 15.0386C27.446 15.1509 27.3337 15.1509 27.1091 15.1509Z" fill="#333333"/>
<path d="M22.954 16.2762C22.1679 15.827 21.7187 15.2655 21.3818 15.3778C20.9326 15.4901 20.708 16.0516 20.3711 16.3885C20.708 16.7254 21.1572 17.2869 21.4941 17.3992C21.831 17.3992 22.2802 16.8377 22.954 16.2762Z" fill="#333333"/>
<path d="M35.7562 17.3979C36.0931 17.5102 36.5423 16.9487 37.2161 16.3872C36.5423 15.8257 36.0931 15.3765 35.7562 15.3765C35.4193 15.3765 34.9701 15.938 34.6332 16.2749C35.0824 16.6118 35.4193 17.2856 35.7562 17.3979Z" fill="#333333"/>
<path d="M42.831 16.2773C42.4941 15.9404 42.1572 15.3789 41.8203 15.2666C41.4834 15.2666 41.0342 15.7158 40.2481 16.2773C40.9219 16.8388 41.3711 17.4003 41.708 17.288C42.0449 17.288 42.3818 16.7265 42.831 16.2773Z" fill="#333333"/>
<path d="M11.9487 50.6333C10.3765 50.6333 9.1412 50.9702 8.2428 51.644V50.7456H4.20001V68.6012H4.6492C4.6492 68.6012 4.76152 68.6012 4.98612 68.6012C5.65992 68.6012 7.00751 68.4889 7.79361 67.7028C8.24281 67.2536 8.57968 66.5798 8.57968 65.906V63.7723C9.25348 64.2215 10.0396 64.5584 11.4995 64.5584C15.6546 64.5584 17.5636 60.9648 17.5636 57.4836C17.5636 54.2269 15.43 50.6333 11.9487 50.6333ZM10.7134 60.9648C9.36581 60.9648 8.35511 59.6173 8.35511 57.8205C8.35511 55.9114 9.36581 54.5638 10.7134 54.5638C12.061 54.5638 13.0717 55.9114 13.0717 57.8205C13.184 59.8419 11.9487 60.9648 10.7134 60.9648Z" fill="#C01F41"/>
<path d="M50.4674 59.3946C49.569 60.4053 48.2214 60.8545 47.2107 60.8545C45.5262 60.8545 44.4032 59.6192 44.4032 57.7101C44.4032 55.9133 45.6385 54.5657 47.0984 54.5657C48.8952 54.5657 49.3444 55.3518 49.9059 56.0256L50.0182 56.2502H50.2428C50.3551 56.2502 51.0289 56.2502 51.5904 55.5764C52.0396 55.1272 52.2642 54.5657 52.3765 54.1165C52.3765 53.1058 51.5904 52.0952 50.3551 51.4214C49.4567 50.9722 48.446 50.7476 47.0984 50.7476C43.0556 50.7476 39.9113 53.7796 39.9113 57.9347C39.9113 61.8652 43.0556 64.8973 47.0984 64.8973C49.4567 64.8973 51.4781 63.9989 52.938 62.3144L53.1626 62.0898L50.8043 59.0577L50.4674 59.3946Z" fill="#C01F41"/>
<path d="M38.0022 60.5175C37.3284 60.5175 36.8792 59.8437 36.8792 59.1699V54.7902H39.5743V50.8597H36.8792V47.9399H32.3872V50.8597H30.815V54.7902H32.3872V59.2822C32.3872 59.5068 32.3872 59.7314 32.3872 59.956C32.7241 63.325 35.307 64.448 37.6653 64.448C38.3391 64.448 38.676 64.448 39.3498 64.3357L39.6867 64.2234V60.2929L39.2375 60.4052C38.7883 60.5175 38.676 60.5175 38.0022 60.5175Z" fill="#C01F41"/>
<path d="M28.9059 59.0587L28.569 59.3956C27.6706 60.294 26.323 60.8555 25.2 60.8555C24.077 60.8555 23.0663 60.0694 22.6171 58.8341H27.2214C28.9059 58.8341 30.7027 58.1603 30.7027 56.3635C30.7027 54.3421 29.4674 50.5239 24.7508 50.5239C20.9327 50.5239 18.0129 53.556 18.0129 57.7111C18.0129 57.9357 18.0129 58.2726 18.0129 58.4972C18.3498 62.2031 21.1572 64.7859 25.0877 64.7859C27.2214 64.7859 29.0182 64.1122 30.4781 62.6523L30.815 62.3154L30.5904 61.9785L28.9059 59.0587ZM24.7508 54.3421C25.7615 54.3421 26.2107 55.0159 26.323 55.5774H22.7294C23.1786 54.7913 23.9648 54.3421 24.7508 54.3421Z" fill="#C01F41"/>
<path d="M59.9005 50.6333C55.7455 50.6333 52.6011 53.7777 52.6011 57.8205C52.6011 61.7509 55.7455 64.783 59.9005 64.783C63.7187 64.783 66.8631 62.0878 67.2 58.4943C67.2 58.2697 67.2 58.0451 67.2 57.8205V57.7082C67.2 53.6654 64.0556 50.6333 59.9005 50.6333ZM59.7882 60.8525C58.216 60.8525 56.8684 59.505 56.8684 57.7082C56.8684 56.2483 57.7668 54.6761 59.7882 54.6761C61.3604 54.6761 62.708 56.0237 62.708 57.8205C62.708 59.2804 61.8096 60.8525 59.7882 60.8525Z" fill="#C01F41"/>
<path d="M62.0342 37.5003C61.4727 37.1634 60.9112 37.2757 60.3497 37.7249C59.9005 38.1741 59.1145 38.3987 58.4407 38.511C56.8685 38.7356 55.8578 37.8372 56.0824 36.3773C56.5316 31.9977 54.7348 29.1902 50.692 27.618C48.5583 26.8319 47.4353 25.2597 47.4353 22.9014C47.4353 22.003 46.9861 20.88 46.5369 20.0939C44.8524 16.7249 45.3016 13.8052 47.8845 10.5485C48.6706 9.53777 49.2321 9.53777 49.9059 10.6608C50.2428 11.2223 50.5797 11.7838 51.0289 12.3453C52.2642 13.8052 54.1733 13.8052 55.2963 12.3453C57.6545 9.53777 57.0931 3.8105 52.4888 3.0244C52.3765 3.0244 52.1519 2.7998 52.0396 2.7998C51.1412 2.7998 50.2428 2.7998 49.3444 2.7998C48.5583 3.0244 47.6599 3.1367 46.9861 3.5859C45.8631 4.1474 44.7401 4.93349 43.7294 5.71959C43.2802 6.05649 42.831 6.28109 42.2695 6.05649C39.7989 5.38269 37.4406 5.38269 34.9701 6.05649C34.6332 6.16879 34.0717 6.16879 33.8471 5.94419C32.2749 4.372 30.4781 3.3613 28.2321 3.0244C28.1198 3.0244 28.0075 2.9121 28.0075 2.7998C27.1091 2.7998 26.2107 2.7998 25.3123 2.7998L25.2 2.9121C22.3925 3.4736 20.8203 5.27039 20.708 8.30248C18.799 7.96558 17.9005 9.31317 17.0021 10.6608C13.9701 15.1527 14.307 19.3078 17.7882 23.3506C19.9219 25.8212 19.8096 25.8212 17.1144 27.3934C16.3283 27.8426 15.6546 28.2918 14.8685 28.8533C13.6332 29.864 12.9594 31.2116 12.9594 32.7838C12.9594 33.9068 12.9594 35.0297 12.9594 36.1527C12.9594 37.388 12.2856 38.1741 11.2749 38.6233C10.1519 39.0725 9.2535 38.7356 8.46741 37.9495C8.24281 37.7249 7.6813 37.5003 7.23211 37.6126C5.88451 37.8372 5.09842 38.7356 4.53693 39.8586C4.53693 40.3078 4.53693 40.757 4.53693 41.2062C6.67062 44.3506 9.81498 45.249 13.7455 44.126C14.307 43.9014 15.0931 44.0137 15.7669 44.126C16.3284 44.126 16.8898 44.3506 17.5636 44.3506C28.9059 44.3506 40.1358 44.3506 51.4781 44.3506C52.2642 44.3506 53.1626 44.0137 53.9487 43.9014C54.2856 43.9014 54.6225 43.9014 54.9594 43.9014C56.4193 44.126 57.9915 44.4629 59.4514 44.4629C61.6973 44.4629 63.3818 43.4522 64.5048 41.4308C64.5048 40.8693 64.5048 40.1955 64.5048 39.634C63.7187 38.9602 62.9326 38.1741 62.0342 37.5003ZM22.7294 6.28109C23.4032 4.7089 24.8631 4.2597 26.4353 4.2597C29.4674 4.1474 31.938 5.27039 33.7348 8.07788C37.1038 6.50569 40.3604 6.50569 43.7294 8.07788C43.954 7.85328 44.1786 7.51638 44.2909 7.29178C46.0877 4.82119 49.7936 3.5859 52.7134 4.4843C54.1733 4.93349 54.9594 5.94419 55.184 7.40408C55.4086 8.97627 55.184 10.4362 53.9487 11.5592C53.3872 12.1207 52.7134 11.8961 52.2642 11.2223C51.815 10.6608 51.4781 9.98697 51.0289 9.31317C50.0182 7.85328 48.5583 7.62868 47.2107 8.97627C44.6278 11.6715 42.831 16.0511 44.9647 20.2062C45.3016 20.88 45.6385 21.6661 45.8631 22.3399C46.2 23.6875 45.6385 24.9228 44.5155 25.7089C43.5048 26.3827 42.0449 26.3827 40.9219 25.7089C39.7989 24.9228 39.1251 23.4629 39.462 22.2276C39.462 22.003 39.6867 21.7784 39.9113 21.6661C40.1359 21.4415 40.4727 21.4415 40.585 21.2169C40.9219 20.6554 41.2588 19.9816 41.4834 19.4201C40.9219 19.1955 40.3604 18.7463 39.7989 18.7463C38.7883 18.7463 37.6652 18.8586 36.6545 18.9709C35.9807 19.0832 35.7561 19.5324 36.093 20.0939C36.4299 20.6554 36.7668 21.2169 37.3283 21.5538C38.0021 21.8907 38.1145 22.3399 38.1145 23.0137C38.1145 24.4736 37.4406 25.4843 36.093 26.0458C34.8578 26.6073 33.7348 26.3827 32.6118 25.4843C31.4888 24.5859 31.2642 23.2383 31.7134 22.003C32.1626 20.7677 32.8364 19.5324 33.1733 18.2971C34.0717 14.3666 32.4995 11.3346 29.9166 8.63938C29.0182 7.74098 27.7829 7.85328 26.8845 8.86398C26.323 9.42547 25.9861 10.2116 25.5369 10.8854C24.7508 12.0084 23.8524 12.1207 23.0663 10.8854C22.1679 9.53777 21.9433 7.96558 22.7294 6.28109ZM40.1358 27.0565C39.1251 27.0565 38.4513 27.0565 37.4407 27.0565C38.0022 26.3827 38.3391 26.0458 38.7883 25.4843C39.2375 26.0458 39.5743 26.3827 40.1358 27.0565ZM30.9273 42.2169C30.815 42.5538 30.0289 42.6661 29.5797 42.6661C29.0182 42.7784 28.4567 42.6661 27.7829 42.6661C27.7829 42.2169 27.7829 41.9923 27.7829 41.6554C27.6706 41.0939 27.7829 40.3078 27.446 39.9709C26.323 38.8479 26.8845 37.7249 27.1091 36.6019C27.3337 35.7035 27.5583 34.9174 27.6706 34.0191C27.6706 33.6822 27.446 33.3453 27.2214 33.0084C26.9968 33.233 26.6599 33.4576 26.5476 33.6822C26.2107 34.4683 26.0984 35.3666 25.8738 36.265C25.7615 36.265 25.6492 36.265 25.5369 36.265C25.3123 35.4789 25.2 34.6929 24.9754 34.0191C24.8631 33.6822 24.4139 33.3453 24.077 33.1207C23.9647 33.5699 23.6278 34.0191 23.7401 34.356C23.9647 35.5912 24.3016 36.8265 24.6385 38.0618C24.8631 38.7356 25.3123 39.2971 25.6492 39.9709C25.8738 40.4201 26.2107 40.8693 26.323 41.4308C26.4353 42.3292 26.2107 43.003 25.0877 42.7784C24.8631 42.7784 24.7508 42.7784 24.5262 42.7784C23.0663 42.7784 23.0663 42.7784 22.954 41.2062C22.8417 40.1955 22.6171 39.4094 21.831 38.7356C21.4941 38.511 21.3818 38.0618 21.2695 37.7249C20.9326 36.6019 20.708 35.3666 20.3711 34.1314C20.2588 33.6822 19.8096 33.3453 19.4727 33.0084C19.3604 33.4576 19.1358 34.0191 19.2481 34.4683C19.4727 35.7035 19.8096 36.9388 20.1465 38.2864C19.2481 38.0618 18.6866 37.9495 18.7989 37.0511C18.7989 36.8265 18.462 36.3773 18.3497 36.4896C18.1251 36.6019 17.6759 36.7142 17.6759 37.0511C17.339 37.8372 17.6759 38.6233 18.3497 38.9602C19.0235 39.2971 19.8096 39.5217 20.5957 39.7463C21.6064 39.9709 21.831 40.5324 21.831 41.88C21.831 42.8907 21.0449 42.6661 20.4834 42.6661C19.3604 42.6661 18.3497 42.6661 17.2268 42.6661C17.0022 42.6661 16.6652 42.6661 16.4406 42.5538C15.2053 41.6554 14.0824 42.3292 12.8471 42.6661C10.8257 43.2276 8.69198 43.2276 6.89519 41.7677C6.44599 41.4308 6.10911 40.6447 6.10911 40.0832C6.10911 39.2971 7.11981 38.9602 7.90591 39.5217C10.7134 41.3185 14.307 39.634 14.4193 36.265C14.5316 35.2543 14.5316 34.2437 14.4193 33.233C14.307 31.5485 15.093 30.3132 16.4406 29.4148C17.2267 28.8533 18.1252 28.4041 19.0235 27.8426C20.9326 26.6073 21.2695 25.2597 19.8096 23.3506C19.2481 22.5645 18.5743 21.7784 17.7882 20.88C18.2374 20.7677 18.5743 20.7677 18.9112 20.5431C19.2481 20.3185 19.585 20.0939 19.9219 19.8693C19.585 19.757 19.2481 19.757 18.7989 19.757C18.5743 19.757 18.462 19.8693 18.2374 19.8693C17.1144 20.0939 17.1145 19.9816 16.8899 18.7463C17.9006 18.8586 18.9112 18.8586 19.9219 18.9709C19.9219 18.7463 20.0342 18.634 20.0342 18.4094C19.4727 18.2971 19.0235 18.0725 18.4621 18.0725C16.3284 17.7356 16.1037 17.511 16.4406 15.3773C16.7775 13.356 17.7883 11.6715 19.0235 10.2116C19.4727 9.65007 20.0342 9.76237 20.3711 10.3239C20.9326 11.2223 21.4941 12.1207 22.0556 13.1314C22.2802 13.6929 22.5048 13.9175 23.1786 13.6929C23.5155 13.5806 24.077 13.4683 24.4139 13.5806C25.7615 14.142 26.2107 13.356 26.6599 12.233C26.9968 11.4469 27.5583 10.8854 28.0075 10.2116C28.3444 9.76237 28.7936 9.65007 29.2428 10.0993C30.815 12.0084 32.0503 14.0298 32.0503 16.6126C32.0503 17.3987 31.8257 17.8479 30.9273 17.9602C30.1412 18.0725 29.4674 18.2971 28.6813 18.5217C28.6813 18.7463 28.7936 18.8586 28.7936 19.0832C29.692 18.9709 30.4781 18.9709 31.3765 18.8586C31.3765 19.757 31.0396 20.2062 30.1412 19.9816C29.8043 19.8693 29.5797 19.8693 29.2428 19.8693C29.0182 19.8693 28.9059 20.0939 28.6813 20.2062C28.7936 20.3185 28.9059 20.5431 29.0182 20.6554C29.4674 20.7677 29.8043 20.88 30.3658 20.9923C30.2535 21.3292 30.2535 21.6661 30.2535 21.8907C29.9166 23.2383 29.9166 24.4736 30.5904 25.7089C31.7134 27.7303 31.8257 29.7517 31.1519 31.8854C30.5904 33.7945 30.0289 35.7035 29.5797 37.7249C29.3551 38.6233 29.4674 39.4094 30.3658 40.0832C31.3765 40.4201 31.2642 41.4308 30.9273 42.2169ZM62.708 41.4308C62.2588 41.88 61.585 42.3292 60.9112 42.5538C58.8898 43.2276 56.8685 43.003 54.9594 42.2169C54.6225 42.1046 54.2856 42.1046 53.9487 42.1046C53.0503 42.3292 52.1519 42.6661 51.2535 42.6661C50.0182 42.7784 48.6706 42.6661 47.323 42.6661C45.8631 42.6661 45.077 41.2062 45.8631 39.9709C46.4246 38.9602 47.323 38.6233 48.3337 38.3987C48.6706 38.3987 49.0075 38.3987 49.3444 38.2864C50.0182 38.0618 51.0289 37.9495 51.1412 37.5003C51.3658 36.8265 51.0289 35.9281 50.8043 35.2543C50.692 35.0297 50.2428 34.9174 49.9059 34.8052C49.7936 35.142 49.6813 35.4789 49.6813 35.8158C49.6813 36.1527 49.9059 36.4896 50.1305 36.8265C48.5583 37.388 48.2214 37.2757 47.6599 35.9281C47.5476 35.7035 47.2107 35.4789 46.9861 35.2543C46.8738 35.5912 46.5369 36.0404 46.5369 36.265C46.9861 37.2757 46.5369 37.7249 45.7508 38.2864C44.4032 39.4094 44.0663 40.8693 44.9647 42.6661C43.2802 42.6661 41.8203 42.6661 40.3604 42.6661C40.2481 42.6661 40.0236 42.5538 39.9113 42.4415C39.2375 41.7677 39.7989 39.5217 40.6973 39.1848C42.831 38.3987 43.0556 38.0618 42.3818 35.9281C42.1572 35.2543 42.0449 34.4683 41.8203 33.7945C41.708 33.4576 41.2588 33.233 41.0342 33.0084C40.922 33.3453 40.585 33.6822 40.6973 34.0191C40.8096 34.9174 41.0342 35.7035 41.3711 36.6019C41.5957 37.388 41.4834 37.7249 40.585 37.9495C39.9112 38.0618 39.3498 38.511 38.7883 38.7356C38.2268 38.511 37.553 38.1741 36.8792 37.9495C36.2054 37.7249 36.0931 37.388 36.2054 36.8265C36.43 35.9281 36.7669 34.9174 36.8792 34.0191C36.8792 33.6822 36.6546 33.3453 36.43 33.0084C36.2054 33.233 35.7562 33.4576 35.6439 33.6822C35.307 34.6929 35.0824 35.8158 34.8578 36.9388C34.6332 38.1741 34.9701 38.7356 36.2054 39.0725C37.6652 39.5217 38.339 40.5324 37.8898 42.1046C37.7775 42.3292 37.4406 42.6661 37.216 42.6661C35.8684 42.7784 34.5209 42.7784 33.061 42.6661C32.8364 42.6661 32.4995 42.1046 32.4995 41.88C32.6118 40.6447 32.3872 39.4094 31.3765 38.511C31.1519 38.2864 31.1519 37.8372 31.1519 37.5003C31.2642 36.6019 31.6011 35.8158 31.8257 34.9174C32.1626 33.6822 32.6118 32.5592 32.8364 31.3239C33.061 30.0886 33.1733 28.8533 33.2856 27.5057C34.5209 27.9549 35.8684 27.2811 37.216 28.1795C38.1144 28.8533 39.3498 28.6287 40.4728 28.1795C41.1465 27.9549 41.8203 27.7303 42.4941 27.7303C43.954 27.7303 45.1893 27.0565 46.3123 25.8212C47.4353 27.9549 49.3444 28.741 51.2535 29.6394C53.4995 30.6501 54.6225 32.3346 54.3979 34.8052C54.3979 35.3666 54.3979 35.8158 54.3979 36.3773C54.3979 38.6233 55.7454 40.0832 57.9914 39.9709C58.8898 39.9709 59.9006 39.634 60.6867 39.1848C61.4727 38.7356 62.0342 38.9602 62.4834 39.5217C63.1572 40.1955 63.2695 40.8693 62.708 41.4308Z" fill="#333333"/>
<path d="M26.8845 20.0946C26.7722 20.0946 26.7722 20.3192 26.6599 20.3192C26.2107 20.7684 25.6492 20.8807 25.2 20.4315C24.7508 19.9823 24.6385 19.5331 25.2 18.9716C25.4246 18.747 25.6492 18.2978 25.9861 17.7363C24.8631 17.7363 23.9647 17.7363 22.7294 17.7363C23.1786 18.2978 23.5155 18.6347 23.5155 18.9716C23.6278 19.4208 23.7401 19.9823 23.5155 20.3192C23.1786 20.8807 22.6171 20.7684 22.0556 20.3192C21.831 20.0946 21.4941 19.87 21.2695 19.6454C21.2695 21.2176 22.3925 21.8914 23.5155 21.4422C24.077 21.2176 24.4139 21.1053 25.0877 21.4422C25.9861 21.8914 26.9968 21.4422 27.446 20.6561C27.5583 20.4315 27.446 20.0946 27.446 19.87C27.2214 19.9823 26.9968 19.9823 26.8845 20.0946Z" fill="#333333"/>
<path d="M27.1091 15.1509C26.7722 15.6001 26.323 16.0493 26.323 16.2739C26.4353 16.7231 26.9968 17.06 27.3337 17.3969C27.6706 17.06 28.2321 16.7231 28.2321 16.2739C28.2321 15.937 27.7829 15.4878 27.5583 15.0386C27.446 15.1509 27.3337 15.1509 27.1091 15.1509Z" fill="#333333"/>
<path d="M22.9541 16.2762C22.168 15.827 21.7188 15.2655 21.3819 15.3778C20.9327 15.4901 20.7081 16.0516 20.3712 16.3885C20.7081 16.7254 21.1573 17.2869 21.4941 17.3992C21.831 17.3992 22.2803 16.8377 22.9541 16.2762Z" fill="#333333"/>
<path d="M35.7562 17.3979C36.0931 17.5102 36.5423 16.9487 37.2161 16.3872C36.5423 15.8257 36.0931 15.3765 35.7562 15.3765C35.4193 15.3765 34.9701 15.938 34.6332 16.2749C35.0824 16.6118 35.4193 17.2856 35.7562 17.3979Z" fill="#333333"/>
<path d="M42.831 16.2773C42.4941 15.9404 42.1573 15.3789 41.8204 15.2666C41.4835 15.2666 41.0343 15.7158 40.2482 16.2773C40.922 16.8388 41.3712 17.4003 41.708 17.288C42.0449 17.288 42.3818 16.7265 42.831 16.2773Z" fill="#333333"/>
</svg>
