<svg width="53" height="45" viewBox="0 0 53 45" fill="none" xmlns="http://www.w3.org/2000/svg">
<circle cx="16" cy="16" r="5" fill="white"/>
<path d="M13.534 27.3102C13.9939 27.4047 14.455 27.4845 14.914 27.5262L14.914 27.5263L14.9219 27.5269C15.8755 27.6059 16.8346 27.5879 17.7845 27.4731L17.7845 27.4732L17.7945 27.4718C21.0067 27.0509 23.9225 25.3775 25.9065 22.8164C27.8906 20.2553 28.7822 17.0139 28.3871 13.7984L28.3871 13.7984L28.386 13.7902C28.0281 11.0628 26.7741 8.53156 24.8211 6.59432C22.8681 4.65709 20.3269 3.42364 17.5966 3.08781L17.5966 3.08779L17.5904 3.08706C14.87 2.76971 12.1215 3.37093 9.78202 4.79513C7.44254 6.21934 5.64633 8.38476 4.67897 10.9471L4.67897 10.9471L4.67801 10.9497C3.0767 15.2267 2.62118 19.8479 3.35656 24.3551C4.22943 30.1646 6.95828 35.5353 11.1347 39.6653C11.4123 40.0166 11.7529 40.3135 12.1394 40.5406C12.5485 40.7809 13.001 40.9383 13.4709 41.0038C13.9408 41.0693 14.419 41.0415 14.8783 40.9222C15.3375 40.8029 15.7687 40.5942 16.1473 40.3083C16.5259 40.0223 16.8444 39.6645 17.0848 39.2554C17.3251 38.8463 17.4825 38.3939 17.548 37.924C17.6134 37.454 17.5857 36.9758 17.4664 36.5166C17.3528 36.0794 17.1582 35.6675 16.893 35.3023C16.3256 34.3134 15.7828 33.3383 15.309 32.3337L15.309 32.3337L15.3066 32.3288C14.5382 30.7225 13.9443 29.04 13.534 27.3102ZM13.0238 16.0372L13.0243 16.0249L13.0244 16.0126C13.0322 15.3841 13.2265 14.7721 13.5829 14.2543C13.9392 13.7366 14.4414 13.3364 15.0257 13.1047C15.61 12.8731 16.25 12.8203 16.8643 12.9531C17.4786 13.086 18.0396 13.3985 18.4759 13.8509C18.9123 14.3033 19.2042 14.8752 19.3148 15.494C19.4253 16.1127 19.3495 16.7503 19.0968 17.3259C18.8441 17.9014 18.4261 18.3888 17.8957 18.7262C17.3654 19.0635 16.7468 19.2356 16.1184 19.2206L16.1061 19.2203L16.0938 19.2203C15.681 19.2206 15.2723 19.1376 14.8923 18.9763C14.5122 18.815 14.1686 18.5787 13.882 18.2815C13.5954 17.9843 13.3717 17.6324 13.2242 17.2468C13.0768 16.8612 13.0086 16.4498 13.0238 16.0372Z" fill="#C01F41" stroke="#344049" stroke-width="2"/>
<path d="M31.1944 34.8703C30.5525 35.7781 29.6488 36.4682 28.6041 36.8485C27.5594 37.2288 26.4234 37.2812 25.3482 36.9985C24.2729 36.7158 23.3096 36.1116 22.587 35.2667C21.8644 34.4218 21.4169 33.3764 21.3044 32.2703C21.2444 31.6203 21.3844 31.0203 22.1044 30.9303C22.8244 30.8403 23.1044 31.4103 23.1044 32.0503C23.1269 32.5201 23.2439 32.9805 23.4483 33.404C23.6527 33.8275 23.9404 34.2055 24.2942 34.5154C24.6479 34.8253 25.0605 35.0607 25.5073 35.2076C25.954 35.3545 26.4258 35.4098 26.8944 35.3703C27.3644 35.3474 27.8251 35.2313 28.2498 35.0287C28.6745 34.8262 29.0546 34.5412 29.3682 34.1904C29.6818 33.8396 29.9225 33.43 30.0764 32.9853C30.2302 32.5407 30.2941 32.0699 30.2644 31.6003V31.5103C30.4792 30.5724 30.4028 29.5913 30.0454 28.6979C29.6881 27.8045 29.0668 27.0414 28.2644 26.5103C27.9297 26.3148 27.6804 26.0011 27.5657 25.6308C27.4509 25.2606 27.479 24.8608 27.6444 24.5103C27.8112 24.1635 28.0847 23.8792 28.4248 23.6993C28.765 23.5193 29.1539 23.4531 29.5344 23.5103C30.6144 23.5103 31.6944 23.5103 32.7644 23.5103C33.1464 23.4524 33.5368 23.5182 33.8787 23.6982C34.2206 23.8781 34.4959 24.1627 34.6644 24.5103C34.8078 24.8593 34.8295 25.2463 34.7261 25.6091C34.6227 25.9719 34.4002 26.2894 34.0944 26.5103L34.0244 26.5703C32.1944 27.8503 31.7644 29.6303 32.0244 31.7703C32.0486 32.6827 32.4091 33.554 33.0367 34.2166C33.6643 34.8793 34.5147 35.2866 35.4244 35.3603C35.8851 35.4 36.3492 35.348 36.7896 35.2072C37.2301 35.0665 37.6384 34.8399 37.9908 34.5405C38.3432 34.2411 38.6328 33.8748 38.8428 33.4629C39.0528 33.0509 39.1791 32.6014 39.2144 32.1403C39.2844 31.4703 39.4544 30.8103 40.2144 30.9203C40.9744 31.0303 41.1144 31.7403 40.9944 32.4303C40.8803 33.4782 40.4613 34.4697 39.7895 35.2819C39.1176 36.0942 38.2223 36.6917 37.2144 37.0003C35.0244 37.6603 33.0244 36.9303 31.1944 34.8703Z" fill="#344049"/>
<path d="M40.1347 16.0003C40.1373 15.4466 40.2491 14.8989 40.4638 14.3884C40.6784 13.878 40.9916 13.4149 41.3854 13.0257C41.7793 12.6365 42.2461 12.3288 42.759 12.1203C43.272 11.9117 43.821 11.8064 44.3747 11.8103C45.5081 11.8103 46.5952 12.2599 47.3976 13.0604C48.2 13.8609 48.6521 14.947 48.6547 16.0803C48.6288 17.2001 48.1691 18.266 47.3725 19.0533C46.5759 19.8406 45.5046 20.2877 44.3847 20.3003C43.822 20.3017 43.2646 20.1911 42.7451 19.9749C42.2255 19.7586 41.7542 19.4411 41.3587 19.0409C40.9631 18.6407 40.6511 18.1657 40.441 17.6437C40.2309 17.1217 40.1267 16.563 40.1347 16.0003Z" fill="#344049"/>
</svg>
