<svg width="70" height="70" viewBox="0 0 70 70" fill="none" xmlns="http://www.w3.org/2000/svg">
<path fill-rule="evenodd" clip-rule="evenodd" d="M54.0312 61.9384C53.593 61.9792 53.149 62 52.7 62C44.6444 62 38.2 55.2955 38.2 47C38.2 38.7046 44.7595 32 52.7 32C53.1737 32 53.6425 32.0239 54.1053 32.0705V11.5069C54.1053 6.55529 50.0632 2.51318 45.1116 2.51318H14.0884C9.94527 2.51318 6.61053 5.84792 6.61053 9.99108V60.3153C6.61053 64.4584 9.94527 67.7932 14.0884 67.7932H46.7284C50.3138 67.7932 53.2938 65.2959 54.0312 61.9384Z" fill="white"/>
<path d="M51.579 62.4357C50.9727 64.6589 49.0527 66.2757 46.8295 66.2757H12.8758C10.1474 66.2757 7.82321 63.9515 7.82321 61.021V9.0799C7.82321 6.14938 10.0464 3.82517 12.8758 3.82517H46.8295C49.5579 3.82517 51.8822 6.14938 51.8822 9.0799V31.7157C52.2864 31.7157 52.6906 31.6146 52.9937 31.6146C53.2969 31.6146 53.8022 31.6146 54.1053 31.7157V9.0799C54.1053 4.83569 50.7706 1.3999 46.8295 1.3999H12.8758C8.83373 1.3999 5.60004 4.83569 5.60004 9.0799V60.9199C5.60004 65.1641 8.93479 68.5999 12.8758 68.5999H46.8295C50.3664 68.5999 53.3979 65.9725 54.0042 62.4357C53.7011 62.4357 53.2969 62.5367 52.9937 62.5367C52.4884 62.4357 52.0843 62.4357 51.579 62.4357ZM17.5243 41.5178C17.5243 42.1241 18.0295 42.7304 18.6358 42.7304H38.8463C39.0485 41.922 39.3516 41.1136 39.7558 40.3052H18.6358C17.9285 40.3052 17.5243 40.8104 17.5243 41.5178ZM18.6358 48.5915H38.3411C38.24 48.0862 38.2401 47.581 38.2401 47.0757C38.2401 46.7725 38.24 46.4694 38.3411 46.1662H18.6358C18.0295 46.1662 17.5243 46.7725 17.5243 47.3788C17.5243 48.0862 17.9285 48.5915 18.6358 48.5915ZM18.6358 52.2294C18.0295 52.2294 17.5243 52.8357 17.5243 53.442C17.5243 54.0483 18.0295 54.6546 18.6358 54.6546H40.16C39.7558 53.8462 39.3516 53.0378 39.1495 52.2294H18.6358ZM44.7074 59.9094C44.1011 59.5052 43.4948 58.8988 42.8885 58.4946C42.6863 58.6967 42.3832 59.101 42.3832 59.5052C42.3832 60.1115 42.8885 60.7178 43.4948 60.7178C44.2022 60.5157 44.6063 60.3136 44.7074 59.9094ZM36.4211 59.3031C36.4211 59.9094 36.9264 60.5157 37.5327 60.5157C38.139 60.5157 38.6442 59.9094 38.6442 59.3031C38.6442 58.6967 38.139 58.0904 37.5327 58.0904C36.9264 58.0904 36.4211 58.6967 36.4211 59.3031ZM40.6653 60.5157C41.2716 60.5157 41.7769 59.9094 41.7769 59.3031C41.7769 58.6967 41.2716 58.0904 40.6653 58.0904C40.059 58.0904 39.5537 58.6967 39.5537 59.3031C39.4527 60.0104 39.9579 60.5157 40.6653 60.5157ZM15.6042 46.1662C14.9979 46.1662 14.4927 46.7725 14.4927 47.3788C14.4927 47.9852 14.9979 48.5915 15.6042 48.5915C16.2106 48.5915 16.7158 47.9852 16.7158 47.3788C16.7158 46.7725 16.2106 46.1662 15.6042 46.1662ZM15.6042 58.0904C14.9979 58.0904 14.4927 58.6967 14.4927 59.3031C14.4927 59.9094 14.9979 60.5157 15.6042 60.5157C16.2106 60.5157 16.7158 59.9094 16.7158 59.3031C16.7158 58.6967 16.2106 58.0904 15.6042 58.0904ZM15.6042 52.2294C14.9979 52.2294 14.4927 52.8357 14.4927 53.442C14.4927 54.0483 14.9979 54.6546 15.6042 54.6546C16.2106 54.6546 16.7158 54.0483 16.7158 53.442C16.7158 52.7346 16.2106 52.2294 15.6042 52.2294ZM15.6042 40.3052C14.9979 40.3052 14.4927 40.9115 14.4927 41.5178C14.4927 42.1241 14.9979 42.7304 15.6042 42.7304C16.2106 42.7304 16.7158 42.1241 16.7158 41.5178C16.7158 40.8104 16.2106 40.3052 15.6042 40.3052ZM34.0969 58.0904C34.7032 58.0904 35.2085 58.6967 35.2085 59.3031C35.2085 59.9094 34.7032 60.5157 34.0969 60.5157H18.6358C18.0295 60.5157 17.5243 59.9094 17.5243 59.3031C17.5243 58.6967 18.0295 58.0904 18.6358 58.0904H34.0969Z" fill="#333333"/>
<path d="M27.1243 14.2329V21.5087H20.1516V27.1676H27.1243V34.4434H32.5811V27.1676H39.4527V21.5087H32.5811V14.2329H27.1243Z" fill="#C01F41"/>
<path d="M52.9938 33.7368C46.0211 33.7368 40.2612 39.6989 40.2612 47.0758C40.2612 54.4526 45.9201 60.4147 52.9938 60.4147C60.0675 60.4147 65.7264 54.4526 65.7264 47.0758C65.7264 39.6989 59.9664 33.7368 52.9938 33.7368ZM52.9938 57.9894C47.3348 57.9894 42.5854 53.0379 42.5854 47.0758C42.5854 41.1137 47.3348 36.1621 52.9938 36.1621C58.6527 36.1621 63.4022 41.1137 63.4022 47.0758C63.4022 53.1389 58.6527 57.9894 52.9938 57.9894Z" fill="#C01F41"/>
<path d="M52.9938 57.9895C47.3348 57.9895 42.5854 53.0379 42.5854 47.0758C42.5854 41.1137 47.3348 36.1621 52.9938 36.1621C58.6527 36.1621 63.4022 41.1137 63.4022 47.0758C63.4022 53.139 58.6527 57.9895 52.9938 57.9895Z" fill="white"/>
<path d="M54.1053 40.4062H51.7811V42.8315H54.1053V40.4062Z" fill="#C01F41"/>
<path d="M54.1053 44.1445H51.7811V53.8456H54.1053V44.1445Z" fill="#C01F41"/>
</svg>
