<svg width="220" height="100" viewBox="0 0 220 100" fill="none" xmlns="http://www.w3.org/2000/svg">
<g clip-path="url(#clip0_2141_2998)">
<mask id="mask0_2141_2998" style="mask-type:luminance" maskUnits="userSpaceOnUse" x="0" y="17" width="220" height="66">
<path d="M219.778 17.6399H0.22168V82.3599H219.778V17.6399Z" fill="white"/>
</mask>
<g mask="url(#mask0_2141_2998)">
<mask id="mask1_2141_2998" style="mask-type:luminance" maskUnits="userSpaceOnUse" x="0" y="17" width="220" height="66">
<path d="M219.778 17.6399H0.22168V82.3599H219.778V17.6399Z" fill="white"/>
</mask>
<g mask="url(#mask1_2141_2998)">
<path d="M189.895 61.3253C189.367 61.3935 188.957 61.6491 188.634 62.0752C188.327 62.5014 188.207 63.0468 188.292 63.7115C188.377 64.3933 188.634 64.8876 189.042 65.2285C189.452 65.5694 189.929 65.6887 190.458 65.6205C190.986 65.5524 191.413 65.2966 191.719 64.8705C192.026 64.4444 192.146 63.8819 192.061 63.2343C191.976 62.5695 191.719 62.0582 191.311 61.7344C190.901 61.4105 190.424 61.2741 189.895 61.3423V61.3253Z" fill="#373F51"/>
<path d="M202.887 66.2169C200.04 60.0638 195.3 53.6721 190.032 49.3769C185.582 45.7464 178.626 45.5077 173.29 46.9054C167.238 48.4735 161.987 52.3597 157.895 57.081C154.57 60.899 151.893 65.3647 150.632 70.2565C150.291 71.5689 150.052 72.9495 150.376 74.262C151.007 76.8868 153.667 78.5061 156.241 79.3413C160.895 80.8412 166.078 80.6537 170.596 78.8129C172.864 77.8925 175.012 76.58 177.416 76.2562C179.53 75.9835 181.695 76.5119 183.588 77.5005C185.531 78.5061 187.202 79.9719 189.162 80.9605C191.038 81.915 193.169 82.3922 195.266 82.3582C197.755 82.307 200.295 81.5059 202.085 79.7673C203.517 78.3868 204.404 76.4607 204.643 74.4835C204.882 72.4723 204.507 70.461 203.825 68.535C203.552 67.751 203.228 66.9669 202.87 66.2169H202.887ZM165.959 70.9042C165.158 71.7394 164.101 72.2508 162.788 72.4211C161.765 72.5575 160.844 72.4553 159.992 72.1314C159.14 71.8076 158.457 71.2792 157.895 70.5292C157.349 69.7963 157.008 68.8759 156.872 67.8021C156.736 66.7453 156.838 65.7738 157.178 64.9216C157.52 64.0693 158.048 63.3705 158.781 62.8421C159.515 62.3137 160.401 61.9729 161.407 61.8365C162.719 61.666 163.862 61.8876 164.851 62.4842C165.84 63.0807 166.556 64.0182 166.982 65.2625L163.163 65.7567C162.856 65.109 162.379 64.8363 161.747 64.9216C161.287 64.9727 160.964 65.2113 160.742 65.6204C160.52 66.0295 160.469 66.5919 160.554 67.3249C160.657 68.0407 160.862 68.5861 161.168 68.927C161.475 69.2679 161.867 69.4213 162.31 69.3531C162.959 69.2679 163.351 68.8759 163.469 68.1771L167.288 67.6828C167.203 68.9952 166.76 70.069 165.942 70.9042H165.959ZM168.567 71.5348L166.794 57.9333L170.392 57.456L172.164 71.0576L168.567 71.5348ZM180.416 69.9838L180.229 68.518C179.99 69.0293 179.615 69.4554 179.104 69.8133C178.609 70.1713 177.995 70.3929 177.297 70.4781C176.086 70.6315 175.097 70.3588 174.296 69.6599C173.494 68.9612 173.017 67.9214 172.829 66.5749L172.046 60.5752L175.625 60.115L176.342 65.6544C176.41 66.234 176.632 66.6772 176.99 66.984C177.347 67.2737 177.774 67.393 178.302 67.3249C178.831 67.2567 179.223 67.0351 179.479 66.6601C179.734 66.2851 179.837 65.7909 179.751 65.2113L179.035 59.6718L182.667 59.1946L184.013 69.5066L180.399 69.9838H180.416ZM195.505 65.6204C195.215 66.4726 194.772 67.1544 194.158 67.6828C193.544 68.1941 192.828 68.5009 192.01 68.6202C191.311 68.7054 190.68 68.6543 190.134 68.4498C189.589 68.2452 189.129 67.9044 188.787 67.4612L188.975 68.8929L185.378 69.3702L183.605 55.7686L187.202 55.2914L187.816 60.0127C188.037 59.4843 188.379 59.0582 188.856 58.7003C189.333 58.3594 189.93 58.1378 190.629 58.0526C191.447 57.9503 192.214 58.0526 192.947 58.4105C193.663 58.7514 194.277 59.2968 194.772 60.0468C195.266 60.7968 195.573 61.7001 195.709 62.7739C195.846 63.8477 195.777 64.8023 195.505 65.6544V65.6204Z" fill="#373F51"/>
<path d="M157.076 46.4455C158.934 47.0421 161.082 47.2296 162.753 46.2239C163.691 45.6615 164.389 44.7752 165.004 43.8718C165.856 42.6105 166.572 41.247 166.776 39.747C166.981 38.1619 166.572 36.5597 165.907 35.0938C165.123 33.3553 163.997 31.7872 162.617 30.4918C161.61 29.5373 160.468 28.7362 159.224 28.1056C152.66 24.7818 147.392 31.8894 148.909 38.1107C149.881 42.0651 153.205 45.2013 157.076 46.4626V46.4455Z" fill="#373F51"/>
<path d="M219.048 44.1105C217.855 41.9629 215.434 40.6334 212.979 40.4459C206.79 39.9857 201.761 45.3888 200.789 51.1499C200.414 53.3146 200.584 55.6156 201.573 57.5928C202.562 59.5529 204.438 61.121 206.602 61.4789C208.495 61.7857 210.421 61.1551 212.178 60.3881C214.24 59.4847 216.287 58.3427 217.701 56.5701C219.389 54.4566 220.038 51.6612 220.054 48.9512C220.054 48.8659 220.054 48.7977 220.054 48.7125C220.054 47.1274 219.816 45.4911 219.048 44.1105Z" fill="#373F51"/>
<path d="M191.445 44.0592C193.014 45.0648 195.077 44.9285 196.816 44.2637C199.254 43.3434 201.249 41.5195 202.988 39.5594C204.539 37.8038 205.971 35.8437 206.483 33.5597C206.909 31.6337 206.653 29.6224 206.108 27.7305C205.971 27.2362 205.801 26.7419 205.613 26.2647C205.016 24.7988 204.147 23.4352 202.851 22.566C201.437 21.6285 199.629 21.3728 197.941 21.6456C192.861 22.4466 188.087 27.4919 187.405 32.5711C187.047 35.2301 187.183 37.855 188.223 40.3264C188.803 41.7241 190.201 43.2411 191.463 44.0592H191.445Z" fill="#373F51"/>
<path d="M172.18 40.105C173.391 41.0255 174.824 41.7413 176.341 41.7925C177.756 41.8436 179.12 41.3322 180.364 40.6675C181.728 39.9346 183.007 38.9631 183.791 37.6165C184.609 36.2189 184.797 34.5314 184.797 32.8952C184.797 32.3497 184.763 31.8043 184.729 31.2759C184.541 28.9749 183.979 26.708 183.058 24.5774C182.359 22.9411 181.404 21.356 179.955 20.3503C173.715 15.9869 167.629 24.3729 167.424 29.9806C167.288 33.8497 169.129 37.7358 172.198 40.088L172.18 40.105Z" fill="#373F51"/>
<path d="M121.222 24.458C123.124 24.458 124.666 22.9317 124.666 21.0491C124.666 19.1664 123.124 17.6401 121.222 17.6401C119.32 17.6401 117.778 19.1664 117.778 21.0491C117.778 22.9317 119.32 24.458 121.222 24.458Z" fill="#373F51"/>
<path d="M12.313 48.0646C9.97727 48.0646 7.98254 47.3658 6.37994 45.6443V53.8938H0.498047V27.9179H6.03896V30.0655H6.14125C7.67566 28.1735 9.87502 27.2532 12.2789 27.2532C18.3824 27.2532 21.8945 32.1961 21.8945 37.8549C21.8945 43.5137 18.0585 48.0646 12.313 48.0646ZM11.0684 32.6904C8.22124 32.6904 6.14125 34.9062 6.14125 37.6674C6.14125 40.4286 8.2724 42.6103 11.0684 42.6103C13.8645 42.6103 15.9956 40.3945 15.9956 37.6674C15.9956 34.9403 13.8985 32.6904 11.0684 32.6904Z" fill="#373F51"/>
<path d="M35.8899 48.0646V45.3204H35.8217C34.7987 47.4339 32.9063 48.0135 30.707 48.0135C28.5077 48.0135 26.3425 47.2806 24.9274 45.559C23.3248 43.5989 23.1543 41.9797 23.1543 39.5593V27.9179H29.0533V38.6901C29.0533 40.9059 29.5477 42.5763 32.2073 42.5763C34.6624 42.5763 35.583 40.8547 35.583 38.6049V27.9009H41.482V48.0476H35.9069L35.8899 48.0646Z" fill="#373F51"/>
<path d="M67.961 48.0647V37.088C67.961 34.9404 67.6713 32.7757 64.9434 32.7757C62.2156 32.7757 61.67 34.5995 61.67 36.8153V48.0647H55.7711V36.8494C55.7711 34.8552 55.3107 32.7757 52.8216 32.7757C50.0938 32.7757 49.48 34.804 49.48 37.088V48.0647H43.5811V27.9692H49.0879V30.0316H49.1561C50.2984 28.0373 52.3442 27.2874 54.5777 27.2874C57.135 27.2874 59.0444 28.5487 60.255 30.7644C61.67 28.5487 63.8352 27.2874 66.4949 27.2874C68.4384 27.2874 70.2968 27.8499 71.6778 29.2475C73.9114 31.4974 73.8093 33.8154 73.8093 36.7982V48.0477H67.9099L67.961 48.0647Z" fill="#373F51"/>
<path d="M87.7543 48.0646C85.4187 48.0646 83.4244 47.3658 81.8213 45.6443V53.8938H75.9229V27.9179H81.4638V30.0655H81.5659C83.0831 28.1735 85.2997 27.2532 87.7036 27.2532C93.8069 27.2532 97.3191 32.1961 97.3191 37.8549C97.3191 43.5137 93.4831 48.0646 87.7374 48.0646H87.7543ZM86.527 32.6904C83.6798 32.6904 81.5997 34.9062 81.5997 37.6674C81.5997 40.4286 83.7312 42.6103 86.527 42.6103C89.3228 42.6103 91.4544 40.3945 91.4544 37.6674C91.4544 34.9403 89.3573 32.6904 86.527 32.6904Z" fill="#373F51"/>
<path d="M109.594 36.4745L117.096 48.0988H110.43L104.565 38.0085H104.497V48.0478H98.5977V21.4241H104.497V34.9745H104.565L110.106 27.9522H117.096L109.594 36.4745Z" fill="#373F51"/>
<path d="M118.272 48.065V27.9353H124.172V48.065H118.272Z" fill="#373F51"/>
<path d="M138.697 48.0648V36.7643C138.697 34.5825 138.27 32.7247 135.611 32.7247C132.951 32.7247 132.235 34.4803 132.235 36.7984V48.0648H126.336V27.9181H131.842V29.9805H131.911C133.156 27.9863 134.894 27.2363 137.265 27.2363C138.935 27.2363 141.032 27.867 142.311 28.9238C144.186 30.4749 144.578 32.9292 144.578 35.1962V48.0307H138.68L138.697 48.0648Z" fill="#373F51"/>
<path d="M30.726 59.8254L25.4237 79.2222H18.7746L15.6887 66.6433L12.4836 79.2222H5.86855L0.532227 59.8254H6.55051L9.32947 73.6827L12.637 59.8254H18.9962L22.3378 73.6145L25.0827 59.8254H30.743H30.726Z" fill="#373F51"/>
<path d="M49.9725 70.9388H36.3674C36.4527 72.149 36.8618 73.0693 37.5438 73.7C38.2429 74.3307 39.0782 74.6545 40.0841 74.6545C41.5844 74.6545 42.6244 74.0239 43.2041 72.7796H49.5975C49.2735 74.0579 48.6768 75.2 47.8243 76.2226C46.9719 77.2452 45.8978 78.0464 44.6021 78.6259C43.3064 79.2054 41.8743 79.4952 40.2717 79.4952C38.3451 79.4952 36.6403 79.0861 35.1399 78.285C33.6396 77.4668 32.4633 76.3249 31.6278 74.8079C30.7924 73.2909 30.3662 71.5353 30.3662 69.5241C30.3662 67.5128 30.7754 65.7572 31.6108 64.2403C32.4462 62.7404 33.6055 61.5813 35.1058 60.7632C36.6061 59.945 38.3281 59.553 40.2717 59.553C42.2152 59.553 43.852 59.945 45.3352 60.7291C46.8184 61.5131 47.9608 62.6381 48.7962 64.1039C49.6315 65.5698 50.0407 67.2742 50.0407 69.2173C50.0407 69.7797 50.0066 70.3592 49.9384 70.9558L49.9725 70.9388ZM43.9372 67.6321C43.9372 66.6094 43.5791 65.8084 42.8802 65.1947C42.1812 64.5982 41.2946 64.2914 40.2376 64.2914C39.1806 64.2914 38.3792 64.5812 37.6802 65.1607C36.9812 65.7402 36.555 66.5584 36.4016 67.6321H43.9202H43.9372Z" fill="#373F51"/>
<path d="M57.8517 53.4849V79.2052H51.833V53.4849H57.8517Z" fill="#373F51"/>
<path d="M66.8185 53.4849V79.2052H60.7998V53.4849H66.8185Z" fill="#373F51"/>
<path d="M87.2097 61.8196C88.5735 63.2855 89.273 65.3137 89.273 67.8875V79.2221H83.3056V68.6886C83.3056 67.3932 82.965 66.3876 82.2824 65.6717C81.6005 64.9558 80.6969 64.5979 79.5379 64.5979C78.3782 64.5979 77.4746 64.9558 76.7927 65.6717C76.1109 66.3876 75.7703 67.3932 75.7703 68.6886V79.2221H69.752V59.8254H75.7703V62.3992C76.3839 61.5469 77.2023 60.8652 78.2248 60.3708C79.248 59.8766 80.4246 59.6208 81.7032 59.6208C84.0043 59.6208 85.829 60.3538 87.2097 61.8196Z" fill="#373F51"/>
<path d="M110.429 70.9388H96.8235C96.9093 72.149 97.3182 73.0693 98.0001 73.7C98.6989 74.3307 99.5349 74.6545 100.54 74.6545C102.041 74.6545 103.081 74.0239 103.661 72.7796H110.054C109.73 74.0579 109.133 75.2 108.281 76.2226C107.428 77.2452 106.354 78.0464 105.058 78.6259C103.763 79.2054 102.331 79.4952 100.728 79.4952C98.8016 79.4952 97.0965 79.0861 95.5962 78.285C94.0959 77.4668 92.9193 76.3249 92.084 74.8079C91.2487 73.2909 90.8223 71.5353 90.8223 69.5241C90.8223 67.5128 91.2318 65.7572 92.0671 64.2403C92.9024 62.7404 94.0621 61.5813 95.5624 60.7632C97.0627 59.945 98.7847 59.553 100.728 59.553C102.671 59.553 104.308 59.945 105.792 60.7291C107.275 61.5131 108.417 62.6381 109.252 64.1039C110.088 65.5698 110.497 67.2742 110.497 69.2173C110.497 69.7797 110.463 70.3592 110.394 70.9558L110.429 70.9388ZM104.376 67.6321C104.376 66.6094 104.018 65.8084 103.319 65.1947C102.621 64.5982 101.734 64.2914 100.677 64.2914C99.62 64.2914 98.8185 64.5812 98.1197 65.1607C97.4202 65.7402 96.9945 66.5584 96.8411 67.6321H104.359H104.376Z" fill="#373F51"/>
<path d="M115.697 78.6086C114.367 78.0291 113.31 77.2451 112.543 76.2224C111.776 75.2167 111.332 74.0918 111.247 72.8305H117.18C117.248 73.4952 117.572 74.0407 118.135 74.4668C118.697 74.8758 119.396 75.0974 120.214 75.0974C120.965 75.0974 121.544 74.9611 121.954 74.6713C122.363 74.3816 122.568 74.0066 122.568 73.5464C122.568 72.9839 122.278 72.5748 121.681 72.3192C121.084 72.0635 120.146 71.7567 118.834 71.4329C117.435 71.109 116.26 70.7681 115.322 70.4101C114.384 70.0522 113.583 69.4898 112.901 68.7057C112.219 67.9217 111.878 66.8819 111.878 65.5695C111.878 64.4616 112.184 63.439 112.816 62.5355C113.429 61.6152 114.35 60.8993 115.56 60.3709C116.77 59.8425 118.203 59.5698 119.874 59.5698C122.329 59.5698 124.272 60.1664 125.687 61.3765C127.102 62.5867 127.921 64.1718 128.125 66.1661H122.568C122.482 65.5013 122.175 64.9559 121.664 64.5639C121.152 64.1718 120.504 63.9673 119.669 63.9673C118.97 63.9673 118.424 64.1037 118.049 64.3593C117.674 64.615 117.487 64.99 117.487 65.4502C117.487 66.0126 117.794 66.4217 118.39 66.6944C118.987 66.9672 119.924 67.2569 121.186 67.5296C122.636 67.9046 123.829 68.2626 124.733 68.6205C125.653 68.9784 126.455 69.5579 127.137 70.359C127.836 71.1601 128.177 72.2339 128.211 73.5804C128.211 74.7225 127.887 75.7281 127.239 76.6144C126.591 77.5007 125.67 78.1995 124.46 78.7109C123.249 79.2222 121.851 79.4779 120.266 79.4779C118.561 79.4779 117.027 79.1881 115.697 78.6086Z" fill="#373F51"/>
<path d="M133.906 78.6086C132.576 78.0291 131.519 77.2451 130.752 76.2224C129.985 75.2167 129.541 74.0918 129.456 72.8305H135.389C135.457 73.4952 135.781 74.0407 136.343 74.4668C136.906 74.8758 137.605 75.0974 138.423 75.0974C139.174 75.0974 139.753 74.9611 140.162 74.6713C140.572 74.3816 140.777 74.0066 140.777 73.5464C140.777 72.9839 140.487 72.5748 139.89 72.3192C139.293 72.0635 138.355 71.7567 137.043 71.4329C135.644 71.109 134.468 70.7681 133.531 70.4101C132.592 70.0522 131.792 69.4898 131.11 68.7057C130.428 67.9217 130.087 66.8819 130.087 65.5695C130.087 64.4616 130.393 63.439 131.024 62.5355C131.638 61.6152 132.559 60.8993 133.769 60.3709C134.979 59.8425 136.411 59.5698 138.083 59.5698C140.537 59.5698 142.481 60.1664 143.896 61.3765C145.311 62.5867 146.13 64.1718 146.334 66.1661H140.777C140.691 65.5013 140.384 64.9559 139.872 64.5639C139.361 64.1718 138.713 63.9673 137.878 63.9673C137.179 63.9673 136.633 64.1037 136.258 64.3593C135.883 64.615 135.696 64.99 135.696 65.4502C135.696 66.0126 136.003 66.4217 136.599 66.6944C137.196 66.9672 138.133 67.2569 139.395 67.5296C140.844 67.9046 142.038 68.2626 142.941 68.6205C143.862 68.9784 144.663 69.5579 145.345 70.359C146.045 71.1601 146.385 72.2339 146.42 73.5804C146.42 74.7225 146.095 75.7281 145.448 76.6144C144.8 77.5007 143.879 78.1995 142.669 78.7109C141.458 79.2222 140.06 79.4779 138.475 79.4779C136.77 79.4779 135.236 79.1881 133.906 78.6086Z" fill="#373F51"/>
</g>
</g>
</g>
<defs>
<clipPath id="clip0_2141_2998">
<rect width="219.556" height="64.72" fill="white" transform="translate(0.22168 17.6399)"/>
</clipPath>
</defs>
</svg>
