<svg xmlns="http://www.w3.org/2000/svg" width="17" height="17" viewBox="0 0 17 17" fill="none">
<g clip-path="url(#clip0_49_1449)">
<path d="M8.5 0.452148C6.91775 0.452148 5.37104 0.92134 4.05544 1.80039C2.73985 2.67944 1.71447 3.92887 1.10897 5.39068C0.503466 6.85249 0.34504 8.46102 0.653721 10.0129C0.962403 11.5647 1.72433 12.9902 2.84315 14.109C3.96197 15.2278 5.38743 15.9897 6.93928 16.2984C8.49113 16.6071 10.0997 16.4487 11.5615 15.8432C13.0233 15.2377 14.2727 14.2123 15.1518 12.8967C16.0308 11.5811 16.5 10.0344 16.5 8.45215C16.5 6.33042 15.6572 4.29559 14.1569 2.79529C12.6566 1.295 10.6217 0.452148 8.5 0.452148ZM13.12 5.91882L8.55334 12.1121C8.5002 12.1846 8.43298 12.2455 8.3557 12.2913C8.27843 12.3371 8.1927 12.3668 8.10366 12.3786C8.01462 12.3904 7.92411 12.3842 7.83756 12.3601C7.75101 12.3361 7.67021 12.2948 7.6 12.2388L4.34 9.63215C4.27152 9.57714 4.21458 9.50913 4.17247 9.43204C4.13035 9.35495 4.10389 9.27029 4.09459 9.18294C4.0853 9.09559 4.09336 9.00726 4.11832 8.92303C4.14327 8.83881 4.18463 8.76034 4.24 8.69215C4.35078 8.55772 4.50977 8.47199 4.68296 8.4533C4.85614 8.43462 5.02976 8.48445 5.16667 8.59215L7.88667 10.7655L12.0467 5.11882C12.1516 4.97825 12.3078 4.88472 12.4813 4.85851C12.6547 4.8323 12.8315 4.87553 12.9733 4.97882C13.0453 5.03039 13.1064 5.09579 13.1528 5.1712C13.1993 5.24662 13.2302 5.33053 13.2439 5.41805C13.2575 5.50556 13.2536 5.59492 13.2323 5.6809C13.2111 5.76688 13.1729 5.84776 13.12 5.91882Z" fill="black"></path>
</g>
</svg>