<svg width="70" height="70" viewBox="0 0 70 70" fill="none" xmlns="http://www.w3.org/2000/svg">
<path d="M28.0253 44.8374C28.4164 44.8374 28.8858 44.8374 29.2769 44.8374C31.3889 44.7507 32.9533 42.9295 33.0315 40.5879C33.1098 38.6799 32.4058 37.0321 31.3889 35.5578C30.2156 33.8233 28.7293 32.6091 27.0867 31.5684C25.1311 30.3543 23.2538 29.1401 20.9853 28.7932C19.6555 28.533 18.404 28.6198 17.3871 29.9206C16.8395 30.6145 16.3702 31.395 16.0573 32.2622C14.9622 35.2976 14.3364 38.4197 14.4146 41.6286C14.4929 43.71 15.0404 45.618 16.2137 47.2658C17.3089 48.7401 18.7169 49.5206 20.516 49.1737C21.7675 49.0003 22.628 48.133 23.4102 47.179C23.8013 46.6587 24.1924 46.1383 24.6618 45.7047C25.6787 44.8374 26.852 44.7507 28.0253 44.8374Z" fill="white"/>
<path d="M16.3703 26.6228C16.3703 26.1892 16.2921 25.6688 16.0574 25.2352C15.3534 23.7609 14.4147 22.6334 13.0849 21.9396C12.3809 21.5927 11.6769 21.4193 10.8947 21.6795C9.56494 22.1131 8.54806 23.5874 8.70451 24.975C9.0174 27.2299 10.7383 29.3113 12.8503 29.8317C14.5712 30.1786 16.3703 28.7042 16.3703 26.6228Z" fill="white"/>
<path d="M18.2476 22.2878C18.2476 22.7214 18.2476 23.2418 18.3258 23.6754C18.5605 24.9763 19.4991 26.017 20.6725 26.2772C21.924 26.5374 23.0191 26.1905 23.7231 24.8896C24.8182 22.8949 24.8965 20.9002 23.9578 18.8188C23.0974 16.9108 20.3596 16.7374 19.1862 18.4719C18.404 19.6861 18.2476 20.9869 18.2476 22.2878Z" fill="white"/>
<path d="M33.1098 23.9361C33.1098 22.6353 32.8751 21.768 32.0929 21.0742C30.7631 19.9468 28.964 20.207 27.8689 21.5946C27.0084 22.722 26.5391 24.0229 26.3044 25.4972C26.148 26.7981 26.6173 28.0122 27.556 28.706C28.6511 29.3999 29.9026 29.3999 30.8413 28.6193C32.484 27.3184 33.1098 25.6707 33.1098 23.9361Z" fill="white"/>
<path d="M30.5285 31.3064C32.6405 33.3011 34.2831 35.4693 34.9871 38.6781C35.2218 37.7241 35.4565 36.9436 35.6912 36.0763C36.7863 32.1737 37.8814 28.1843 39.1329 24.2817C39.2894 23.848 39.2894 23.6746 38.7418 23.6746C37.9596 23.6746 37.1774 23.3277 36.708 22.6339C35.6911 21.2463 35.5347 19.5118 35.4565 17.864C35.4565 16.7365 36.0823 15.8693 36.8645 15.2622C39.9934 12.487 43.5134 10.579 47.4245 9.45161C49.9276 8.7578 52.5089 8.32417 55.1685 8.4109C57.0458 8.49762 58.8449 8.84453 60.5658 9.88523C62.9907 11.2728 64.3987 13.5277 64.9463 16.3896C66.1978 22.4604 64.6334 27.664 60.8005 32.087C59.0014 34.0817 57.0458 35.9029 54.8556 37.3772C54.621 37.5507 54.4645 37.7241 54.6992 38.071C56.0289 40.3259 57.2023 42.6675 58.6885 44.8356C59.0796 45.4427 59.6272 46.0498 60.0965 46.4834C61.1134 47.4374 62.2867 47.3507 63.4601 47.0905C65.1027 46.7436 66.5889 47.871 67.0583 49.6055C67.4494 51.1666 66.9801 52.4675 66.2761 53.6816C64.6334 56.4568 62.1303 57.7577 59.236 58.1913C55.0903 58.8852 51.6485 56.8037 49.6147 52.5542C48.9107 50.9931 48.3632 49.4321 47.7374 47.871C47.1898 46.4834 46.6423 45.0091 45.7818 43.7949C45.7036 43.6215 45.5472 43.5347 45.3907 43.2746C45.156 44.3153 44.9214 45.2692 44.7649 46.2232C43.9045 50.1259 43.2005 54.0285 42.34 57.9312C42.1836 58.5382 42.0272 59.1453 41.7925 59.6657C41.2449 60.7931 40.228 61.0533 39.2894 61.0533C37.6467 61.14 36.1605 60.7931 34.7525 59.8391C32.6405 58.4515 31.9365 56.1967 32.1712 53.5949C32.4058 50.7329 33.0316 48.0445 33.6574 45.2692C33.5791 45.1825 33.5791 45.1825 33.5009 45.2692C32.1711 46.6569 30.4502 47.0038 28.7294 47.0905C28.26 47.0905 27.7907 47.0905 27.3214 47.0905C26.7738 47.0905 26.3045 47.3507 25.9134 47.7843C25.2094 48.7383 24.4271 49.6922 23.4885 50.386C21.1418 52.1206 17.7782 51.6869 15.6662 49.3453C14.1018 47.6108 13.3196 45.4427 12.9285 43.1011C12.772 42.1471 12.6938 41.1931 12.6938 40.3259C12.6938 39.8923 12.6156 39.8055 12.2245 39.8923C9.1738 41.1064 5.65379 39.6321 3.85467 37.2038C1.66445 34.3418 3.07246 29.7454 6.3578 28.8781C6.90535 28.7047 7.45289 28.6179 8.00045 28.6179C8.31333 28.6179 8.31334 28.5312 8.1569 28.271C7.76579 27.5772 7.53112 26.7967 7.29645 26.0162C6.20134 22.0268 9.87778 18.5578 13.0849 19.425C14.2582 19.7719 15.2751 20.379 16.2138 21.2463C16.292 21.333 16.3702 21.5065 16.5267 21.5065C16.7614 21.4197 16.6049 21.2463 16.6831 21.0728C16.9178 19.6852 17.1525 18.3843 17.9347 17.2569C19.108 15.6091 20.6725 14.9153 22.5498 15.1755C24.6618 15.5224 26.0698 16.7365 26.6174 19.0781C26.852 19.9454 26.852 19.9454 27.4778 19.425C29.8245 17.3436 33.4227 17.9507 34.9089 20.8126C35.5347 22.0268 35.6911 23.4144 35.5347 24.802C35.3 26.4498 34.8307 27.9241 33.892 29.225C32.7187 30.0923 31.78 30.8728 30.5285 31.3064ZM53.9952 10.7525C53.1347 10.7525 52.1961 10.7525 51.2574 10.9259C47.972 11.3596 44.7649 12.487 41.8707 14.2215C40.3845 15.0888 38.9765 16.0427 37.7249 17.3436C37.5685 17.5171 37.412 17.7773 37.412 18.0374C37.412 18.9914 37.5685 19.8587 37.9596 20.7259C38.2725 21.5065 38.6636 21.5932 39.2894 21.2463C39.9151 20.8994 40.4627 20.379 41.0103 19.8587C41.4796 19.425 42.0271 18.9914 42.4965 18.5578C42.6529 18.4711 42.8094 18.3843 42.9658 18.4711C43.1223 18.6445 43.044 18.818 43.044 18.9047C43.044 18.9914 42.9658 19.1649 42.8876 19.2516C42.4183 20.6392 41.9489 22.1135 41.4796 23.5011C38.8983 31.6533 36.5516 39.8055 34.8307 48.2179C34.3614 50.386 33.892 52.6409 33.9703 54.8958C33.9703 56.0232 34.4396 56.9772 35.2218 57.671C36.2387 58.4515 37.3338 58.7984 38.5854 58.7984C39.7587 58.7984 39.7587 58.7984 40.0716 57.4975C40.8538 54.4621 41.4014 51.34 42.0271 48.2179C42.5747 45.6161 43.2005 42.9277 43.748 40.3259C43.9045 39.7188 44.0609 39.5454 44.5303 39.8923C45.6254 40.6728 46.7205 41.4533 47.4245 42.6675C48.0503 43.7082 48.5978 44.7489 48.9889 45.8763C49.6929 47.6976 50.2405 49.6055 51.1009 51.34C51.8049 52.9011 52.7436 54.2887 54.1516 55.0692C56.9676 56.717 59.7836 56.2834 62.4432 54.4621C63.5383 53.7683 64.3987 52.6409 64.8681 51.34C65.3374 49.9524 64.6334 48.9984 63.3036 49.3453C60.957 49.8657 59.0796 49.0852 57.5934 47.0905C55.2467 44.0551 53.6823 40.4993 51.5703 37.2038C51.4138 36.9436 51.4921 36.6834 51.7267 36.51C51.8832 36.4232 52.0396 36.3365 52.196 36.2498C55.3249 34.5153 57.9063 32.087 60.0965 29.225C62.5996 25.9295 63.4601 22.0268 62.8343 17.7773C62.4432 14.8286 61.0352 12.5737 58.4538 11.4463C57.124 10.8392 55.6378 10.6658 53.9952 10.7525ZM28.0254 44.8356C28.4165 44.8356 28.8858 44.8356 29.2769 44.8356C31.3889 44.7489 32.9534 42.9277 33.0316 40.5861C33.1098 38.6781 32.4058 37.0303 31.3889 35.556C30.2156 33.8215 28.7294 32.6073 27.0867 31.5666C25.1311 30.3525 23.2538 29.1383 20.9853 28.7914C19.6556 28.5312 18.404 28.6179 17.3871 29.9188C16.8396 30.6126 16.3702 31.3932 16.0574 32.2604C14.9622 35.2958 14.3365 38.4179 14.4147 41.6268C14.4929 43.7082 15.0405 45.6161 16.2138 47.2639C17.3089 48.7383 18.7169 49.5188 20.516 49.1719C21.7676 48.9984 22.628 48.1312 23.4102 47.1772C23.8014 46.6568 24.1925 46.1365 24.6618 45.7029C25.6787 44.8356 26.852 44.7489 28.0254 44.8356ZM16.3702 26.6233C16.3702 26.1896 16.292 25.6693 16.0574 25.2356C15.3534 23.7613 14.4147 22.6339 13.0849 21.9401C12.3809 21.5932 11.6769 21.4197 10.8947 21.6799C9.5649 22.1135 8.54802 23.5879 8.70447 24.9755C9.01735 27.2303 10.7382 29.3117 12.8502 29.8321C14.5711 30.179 16.3702 28.7047 16.3702 26.6233ZM18.2476 22.287C18.2476 22.7206 18.2476 23.241 18.3258 23.6746C18.5605 24.9755 19.4991 26.0162 20.6725 26.2764C21.924 26.5365 23.0191 26.1896 23.7231 24.8887C24.8182 22.8941 24.8965 20.8994 23.9578 18.818C23.0974 16.91 20.3596 16.7365 19.1862 18.4711C18.404 19.6852 18.2476 20.9861 18.2476 22.287ZM33.1098 23.9348C33.1098 22.6339 32.8751 21.7666 32.0929 21.0728C30.7631 19.9454 28.964 20.2056 27.8689 21.5932C27.0085 22.7206 26.5391 24.0215 26.3045 25.4958C26.148 26.7967 26.6173 28.0109 27.556 28.7047C28.6511 29.3985 29.9027 29.3985 30.8414 28.6179C32.484 27.3171 33.1098 25.6693 33.1098 23.9348ZM7.60933 30.8728C7.06178 30.8728 6.51422 30.9595 6.04489 31.2197C4.55866 32.0002 4.01112 34.3418 5.02801 35.6427C6.51423 37.5507 8.39158 38.3312 10.66 37.9843C11.7551 37.8108 12.3809 37.0303 12.772 35.9029C13.0849 34.7755 12.8502 33.7347 12.068 32.8675C10.8165 31.5666 9.252 31.0463 7.60933 30.8728Z" fill="#333333"/>
<path d="M46.8769 32.6077C45.86 32.6077 45.7818 32.5209 46.0164 31.7404C47.4244 26.6236 49.0671 21.5068 50.9445 16.5634C51.1009 16.1298 51.4138 15.8696 51.8049 15.8696C52.196 15.8696 52.5089 15.8696 52.9 15.8696C54.308 15.9564 55.1685 16.7369 55.4813 18.2979C56.1071 20.9864 55.6378 23.5882 54.3862 26.0165C53.1347 28.3581 51.5702 30.2661 49.38 31.6537C48.5978 32.174 47.6591 32.6077 46.8769 32.6077ZM48.8325 29.2254L48.9107 29.3121C49.0671 29.2254 49.1453 29.1386 49.3018 28.9652C50.0058 28.3581 50.6316 27.751 51.1791 26.9705C52.4307 25.4094 53.3693 23.6749 53.604 21.5935C53.6822 20.6395 53.6822 19.6856 53.4476 18.7316C53.3693 18.3847 53.1347 18.1245 52.7436 18.1245C52.3525 18.1245 52.3524 18.4714 52.2742 18.7316C51.1009 21.767 50.084 24.8024 49.1453 27.9245C49.1453 28.3581 48.9889 28.7917 48.8325 29.2254Z" fill="#333333"/>
<path d="M63.3036 49.3461C60.9569 49.8664 59.0796 49.0859 57.5934 47.0912C55.2467 44.0558 53.6822 40.5001 51.5702 37.2045C51.4138 36.9443 51.492 36.6842 51.7267 36.5107C51.8831 36.424 52.0396 36.3373 52.196 36.2505C55.3249 34.516 57.9062 32.0877 60.0965 29.2258C62.5996 25.9302 63.46 22.0275 62.8342 17.778C62.4431 14.8293 61.0351 12.5745 58.4538 11.447C56.9676 10.84 55.4813 10.6665 53.8387 10.6665C52.9782 10.6665 52.0396 10.6665 51.1009 10.84C47.8156 11.2736 44.6084 12.401 41.7142 14.1355C40.228 15.0028 38.82 15.9568 37.5685 17.2576C37.412 17.4311 37.2556 17.6913 37.2556 17.9514C37.2556 18.9054 37.412 19.7727 37.8031 20.6399C38.116 21.4205 38.5071 21.5072 39.1329 21.1603C39.7587 20.8134 40.3062 20.293 40.8538 19.7727C41.3231 19.3391 41.8707 18.9054 42.34 18.4718C42.4965 18.3851 42.6529 18.2983 42.8093 18.3851C42.9658 18.5585 42.8876 18.732 42.8876 18.8187C42.8876 18.9054 42.8094 19.0789 42.7311 19.1656C42.2618 20.5532 41.7924 22.0275 41.3231 23.4152C38.7418 31.5674 36.3951 39.7196 34.6742 48.1319C34.2049 50.3001 33.7355 52.5549 33.8138 54.8098C33.8138 55.9372 34.2831 56.8912 35.0653 57.585C36.0822 58.3655 37.1773 58.7124 38.4289 58.7124C39.6022 58.7124 39.6022 58.7124 39.9151 57.4116C40.6973 54.3762 41.2449 51.254 41.8707 48.1319C42.4182 45.5302 43.044 42.8417 43.5916 40.2399C43.748 39.6328 43.9044 39.4594 44.3738 39.8063C45.4689 40.5868 46.564 41.3673 47.268 42.5815C47.8938 43.6222 48.4413 44.6629 48.8325 45.7903C49.5365 47.6116 50.084 49.5195 50.9445 51.254C51.6485 52.8151 52.5871 54.2027 53.9951 54.9832C56.8111 56.631 59.6271 56.1974 62.2867 54.3762C63.3818 53.6824 64.2422 52.5549 64.7116 51.254C65.3373 49.9532 64.6334 48.9992 63.3036 49.3461ZM49.4582 31.6541C48.5978 32.2612 47.6591 32.6081 46.8769 32.6948C45.86 32.6948 45.7818 32.6081 46.0164 31.8275C47.4245 26.7107 49.0671 21.5939 50.9445 16.6506C51.1009 16.2169 51.4138 15.9568 51.8049 15.9568C52.196 15.9568 52.5089 15.9568 52.9 15.9568C54.308 16.0435 55.1685 16.824 55.4814 18.3851C56.1071 21.0736 55.6378 23.6753 54.3862 26.1036C53.2129 28.3585 51.5702 30.2665 49.4582 31.6541Z" fill="#C01F41"/>
</svg>
