<svg xmlns="http://www.w3.org/2000/svg" viewBox="0 0 72 72"><defs><style>.w-cls-1,.w-cls-3{fill:#fff;}.w-cls-1{stroke:#4d4d4d;stroke-miterlimit:10;stroke-width:2px;}.w-cls-2{fill:#bf0d3e;}</style></defs><g id="Company"><g id="Walfare"><g id="Hands"><path class="w-cls-1" d="M25.34,41.14l-3.18-3a4.75,4.75,0,0,0-1.49-1,2.88,2.88,0,0,0-1.67-.2,2.34,2.34,0,0,0-1.25.71A1.92,1.92,0,0,0,18,40.18l5.9,8c-5.57-6.18-8.71-9.37-7.11-11.37a3,3,0,0,1,1-.77l-2.86-4.33-.3-9.09a3.71,3.71,0,0,0-3.9-3.16,1.09,1.09,0,0,0-1,1.14L9,31.56a4.25,4.25,0,0,0,.2,1.58l2.31,7.21a16.69,16.69,0,0,0,2.28,4l7.72,10.77.27,6.36H33.9L34,52.94C35,46.42,25.34,41.14,25.34,41.14Z"/><path class="w-cls-1" d="M46.66,41.14l3.18-3a4.75,4.75,0,0,1,1.49-1,2.88,2.88,0,0,1,1.67-.2,2.34,2.34,0,0,1,1.25.71A1.92,1.92,0,0,1,54,40.18l-5.9,8c5.57-6.18,8.71-9.37,7.11-11.37a3,3,0,0,0-1-.77l2.86-4.33.3-9.09a3.71,3.71,0,0,1,3.9-3.16,1.09,1.09,0,0,1,1,1.14L63,31.56a4.25,4.25,0,0,1-.2,1.58l-2.31,7.21a16.69,16.69,0,0,1-2.28,4L50.48,55.12l-.27,6.36H38.1L38,52.94C37,46.42,46.66,41.14,46.66,41.14Z"/></g><g id="Heart_Paw" data-name="Heart Paw"><path class="w-cls-2" d="M53,17.61c-3.23-10.74-15.39-7.42-17-2.16-1.55-5.26-13.71-8.58-16.94,2.16C15.24,30.52,36.07,40.37,36.07,40.37S56.91,30.52,53,17.61Z"/><path id="Paw_Print" data-name="Paw Print" class="w-cls-3" d="M31.6,21.82c.34,1.51,1.83,2.74,2.58,2.45s1.36-1.19,1.34-3c0-3.76-4.89-3.67-3.92.56Zm9.4.33c-.41,1.49-2,2.65-2.69,2.33S37,23.24,37.1,21.42c.19-3.75,5-3.46,3.9.73Zm3.51,4.13c-.71,1.12-2.26,1.68-2.78,1.23s-.76-1.35-.22-2.81c1.11-3,5-1.55,3,1.58Zm-13.2,7.59c1.61.7,2.67-.33,4.85-.32s2.43,1.18,4.59.41c1.52-.47,1.52-2.21,1-3.33a5.48,5.48,0,0,0-2.08-2.16,15.64,15.64,0,0,1-1.21-1.57c-1.08-1.22-3.86-1.29-4.84,0-.42.54-.66,1.2-1.49,1.63-2.4,1.25-3,4.66-.8,5.36Zm-3.72-8c.67,1.14,2.21,1.75,2.75,1.31s.79-1.32.29-2.8c-1-3-4.95-1.69-3,1.49Z"/></g></g></g></svg>
